%FSTAX23Y23*%
%MOIN*%
%SFA1B1*%

%IPPOS*%
%AMD19*
4,1,8,-0.004700,0.009800,-0.004700,-0.009800,-0.002700,-0.011800,0.002700,-0.011800,0.004700,-0.009800,0.004700,0.009800,0.002700,0.011800,-0.002700,0.011800,-0.004700,0.009800,0.0*
1,1,0.003960,-0.002700,0.009800*
1,1,0.003960,-0.002700,-0.009800*
1,1,0.003960,0.002700,-0.009800*
1,1,0.003960,0.002700,0.009800*
%
%AMD21*
4,1,8,0.027200,-0.015500,0.027200,0.015500,0.022000,0.020700,-0.022000,0.020700,-0.027200,0.015500,-0.027200,-0.015500,-0.022000,-0.020700,0.022000,-0.020700,0.027200,-0.015500,0.0*
1,1,0.010340,0.022000,-0.015500*
1,1,0.010340,0.022000,0.015500*
1,1,0.010340,-0.022000,0.015500*
1,1,0.010340,-0.022000,-0.015500*
%
%AMD22*
4,1,8,-0.011800,0.002700,-0.011800,-0.002700,-0.009800,-0.004700,0.009800,-0.004700,0.011800,-0.002700,0.011800,0.002700,0.009800,0.004700,-0.009800,0.004700,-0.011800,0.002700,0.0*
1,1,0.003960,-0.009800,0.002700*
1,1,0.003960,-0.009800,-0.002700*
1,1,0.003960,0.009800,-0.002700*
1,1,0.003960,0.009800,0.002700*
%
%AMD30*
4,1,8,0.000000,-0.032600,0.000000,-0.032600,0.010300,-0.022200,0.010300,0.022200,0.000000,0.032600,0.000000,0.032600,-0.010300,0.022200,-0.010300,-0.022200,0.000000,-0.032600,0.0*
1,1,0.020700,0.000000,-0.022200*
1,1,0.020700,0.000000,-0.022200*
1,1,0.020700,0.000000,0.022200*
1,1,0.020700,0.000000,0.022200*
%
%AMD32*
4,1,4,0.000600,0.013700,-0.013700,-0.000600,-0.000600,-0.013700,0.013700,0.000600,0.000600,0.013700,0.0*
%
%AMD38*
4,1,8,-0.022200,-0.010300,0.022200,-0.010300,0.032600,0.000000,0.032600,0.000000,0.022200,0.010300,-0.022200,0.010300,-0.032600,0.000000,-0.032600,0.000000,-0.022200,-0.010300,0.0*
1,1,0.020700,-0.022200,0.000000*
1,1,0.020700,0.022200,0.000000*
1,1,0.020700,0.022200,0.000000*
1,1,0.020700,-0.022200,0.000000*
%
%AMD43*
4,1,4,0.057100,-0.101500,0.101500,-0.057100,-0.057100,0.101500,-0.101500,0.057100,0.057100,-0.101500,0.0*
%
%AMD47*
4,1,8,-0.101400,0.099300,-0.101400,-0.099300,-0.099300,-0.101400,0.099300,-0.101400,0.101400,-0.099300,0.101400,0.099300,0.099300,0.101400,-0.099300,0.101400,-0.101400,0.099300,0.0*
1,1,0.004060,-0.099300,0.099300*
1,1,0.004060,-0.099300,-0.099300*
1,1,0.004060,0.099300,-0.099300*
1,1,0.004060,0.099300,0.099300*
%
%ADD14R,0.066930X0.023620*%
%ADD15R,0.106300X0.039370*%
%ADD16R,0.267720X0.271650*%
%ADD17R,0.043310X0.086610*%
%ADD18R,0.271650X0.267720*%
G04‾CAMADD=19‾8‾0.0‾0.0‾236.2‾94.5‾19.8‾0.0‾15‾0.0‾0.0‾0.0‾0.0‾0‾0.0‾0.0‾0.0‾0.0‾0‾0.0‾0.0‾0.0‾90.0‾94.0‾236.0*
%ADD19D19*%
%ADD20R,0.086610X0.043310*%
G04‾CAMADD=21‾8‾0.0‾0.0‾413.4‾543.3‾51.7‾0.0‾15‾0.0‾0.0‾0.0‾0.0‾0‾0.0‾0.0‾0.0‾0.0‾0‾0.0‾0.0‾0.0‾270.0‾544.0‾414.0*
%ADD21D21*%
G04‾CAMADD=22‾8‾0.0‾0.0‾94.5‾236.2‾19.8‾0.0‾15‾0.0‾0.0‾0.0‾0.0‾0‾0.0‾0.0‾0.0‾0.0‾0‾0.0‾0.0‾0.0‾90.0‾236.0‾94.0*
%ADD22D22*%
%ADD23R,0.028350X0.028350*%
%ADD24R,0.057090X0.027560*%
%ADD25R,0.070870X0.047240*%
%ADD26R,0.133860X0.070870*%
%ADD27R,0.028350X0.028350*%
%ADD28R,0.018600X0.020290*%
%ADD29R,0.031970X0.025930*%
G04‾CAMADD=30‾8‾0.0‾0.0‾207.0‾651.7‾103.5‾0.0‾15‾0.0‾0.0‾0.0‾0.0‾0‾0.0‾0.0‾0.0‾0.0‾0‾0.0‾0.0‾0.0‾180.0‾207.0‾651.0*
%ADD30D30*%
%ADD31R,0.024730X0.023870*%
G04‾CAMADD=32‾9‾0.0‾0.0‾202.9‾186.0‾0.0‾0.0‾0‾0.0‾0.0‾0.0‾0.0‾0‾0.0‾0.0‾0.0‾0.0‾0‾0.0‾0.0‾0.0‾45.0‾274.0‾273.0*
%ADD32D32*%
%ADD33R,0.020290X0.018600*%
%ADD34R,0.015750X0.019680*%
%ADD35R,0.066140X0.066930*%
%ADD36R,0.053150X0.106300*%
%ADD37R,0.074800X0.037400*%
G04‾CAMADD=38‾8‾0.0‾0.0‾651.7‾207.0‾103.5‾0.0‾15‾0.0‾0.0‾0.0‾0.0‾0‾0.0‾0.0‾0.0‾0.0‾0‾0.0‾0.0‾0.0‾180.0‾651.0‾207.0*
%ADD38D38*%
%ADD39R,0.065170X0.020700*%
%ADD40R,0.019680X0.017720*%
%ADD41R,0.025930X0.031970*%
%ADD42R,0.033470X0.025590*%
G04‾CAMADD=43‾9‾0.0‾0.0‾629.9‾2244.1‾0.0‾0.0‾0‾0.0‾0.0‾0.0‾0.0‾0‾0.0‾0.0‾0.0‾0.0‾0‾0.0‾0.0‾0.0‾225.0‾2030.0‾2029.0*
%ADD43D43*%
%ADD44R,0.035680X0.033660*%
%ADD45R,0.033470X0.035430*%
%ADD46R,0.051180X0.027560*%
G04‾CAMADD=47‾8‾0.0‾0.0‾2027.6‾2027.6‾20.3‾0.0‾15‾0.0‾0.0‾0.0‾0.0‾0‾0.0‾0.0‾0.0‾0.0‾0‾0.0‾0.0‾0.0‾90.0‾2028.0‾2028.0*
%ADD47D47*%
%ADD48C,0.050000*%
%ADD49C,0.039370*%
%ADD50C,0.118110*%
%ADD51C,0.019680*%
%LNpcbfoc-1*%
%LPD*%
G54D14*
X02062Y03265D03*
Y03314D03*
G54D15*
X01936Y03192D03*
Y03387D03*
G54D16*
X04291Y01968D03*
X03125Y01425D03*
X028D03*
X04291Y03149D03*
Y02559D03*
G54D17*
X0355Y02267D03*
X03421D03*
X03559Y02822D03*
X03229Y01645D03*
X02655Y02178D03*
X0343Y02822D03*
X03359Y01645D03*
X02525Y02178D03*
G54D18*
X03726Y02296D03*
X03728Y01699D03*
X03727Y02889D03*
X03875Y03186D03*
X03874Y02595D03*
X03877Y01997D03*
G54D19*
X0286Y02312D03*
X02879D03*
X0284Y02579D03*
X02938D03*
X02978Y02312D03*
X02781Y02579D03*
Y02312D03*
X02801Y02579D03*
X0286D03*
X02899D03*
X02879D03*
X0282D03*
X02978D03*
X02958D03*
X02761Y02312D03*
X02958D03*
X02761Y02579D03*
X02919D03*
X02938Y02312D03*
X02919D03*
X02899D03*
X0284D03*
X0282D03*
X02801D03*
G54D20*
X02925Y02128D03*
Y01999D03*
G54D21*
X03473Y0148D03*
Y01549D03*
G54D22*
X02736Y02337D03*
Y02357D03*
X03003Y02514D03*
Y02337D03*
X02736Y02376D03*
Y02436D03*
X03003Y02455D03*
X02736Y02554D03*
Y02455D03*
Y02514D03*
X03003Y02534D03*
X02736Y02475D03*
Y02534D03*
X03003Y02554D03*
X02736Y02495D03*
Y02396D03*
X03003Y02357D03*
Y02436D03*
X02736Y02416D03*
X03003Y02376D03*
Y02416D03*
Y02396D03*
Y02475D03*
Y02495D03*
G54D23*
X03257Y03149D03*
Y0319D03*
G54D24*
X03171Y0332D03*
X02984Y02921D03*
X03171Y03399D03*
X03187Y03D03*
Y02921D03*
X02984Y03D03*
X03374Y03399D03*
Y0332D03*
G54D25*
X0318Y03125D03*
X03022Y03219D03*
X0318D03*
X03022Y03125D03*
G54D26*
X03458Y02933D03*
X03475Y02378D03*
X03464Y01707D03*
Y01912D03*
X03475Y02583D03*
X03458Y03138D03*
G54D27*
X03108Y03076D03*
X03068D03*
G54D28*
X03087Y0334D03*
X02929Y02726D03*
X03087Y0337D03*
X02929Y02755D03*
G54D29*
X02897Y03026D03*
X02721Y02034D03*
X02897Y02973D03*
X02721Y02087D03*
G54D30*
X02665Y03457D03*
X02822Y03132D03*
X02602Y03457D03*
X02822D03*
X02696D03*
X02791Y03132D03*
X02633Y03457D03*
X02728D03*
X02791D03*
X02633Y03132D03*
X02696D03*
X02665D03*
X02759Y03457D03*
X02728Y03132D03*
X02602D03*
X02759D03*
G54D31*
X02603Y03525D03*
X02634D03*
G54D32*
X02867Y03111D03*
X02888Y03132D03*
G54D33*
X02447Y03451D03*
X02446Y03405D03*
X02477Y03451D03*
X02476Y03405D03*
G54D34*
X02748Y0262D03*
X02717D03*
G54D35*
X02584Y02284D03*
Y02425D03*
G54D36*
X02431Y02192D03*
X02318D03*
G54D37*
X03975Y02979D03*
X03626Y02505D03*
X03975Y02799D03*
X03627Y03096D03*
Y03276D03*
X03975Y02206D03*
Y02386D03*
X03629Y02086D03*
X03626Y02684D03*
X03976Y01609D03*
X03629Y01907D03*
X03976Y01789D03*
G54D38*
X02875Y03247D03*
Y03216D03*
X0255Y03184D03*
Y03216D03*
Y03247D03*
Y03279D03*
Y0331D03*
Y03342D03*
X02875Y03405D03*
Y03279D03*
X0255Y03405D03*
X02875Y03373D03*
Y03342D03*
Y0331D03*
X0255Y03373D03*
G54D39*
X02875Y03184D03*
G54D40*
X02897Y02862D03*
X02643Y03724D03*
Y03682D03*
Y03639D03*
X02927Y02862D03*
X02929Y02822D03*
X029D03*
X02614Y03682D03*
Y03639D03*
Y03724D03*
G54D41*
X03172Y03494D03*
X03225D03*
G54D42*
X02482Y03701D03*
X02539Y03667D03*
X02482D03*
X02539Y03701D03*
G54D43*
X02266Y02363D03*
X02397Y02494D03*
G54D44*
X02641Y02034D03*
Y02083D03*
G54D45*
X02417Y02585D03*
X02468D03*
G54D46*
X0281Y01916D03*
Y01991D03*
G54D47*
X0287Y02445D03*
G54D48*
X0337Y0285D03*
Y0293D03*
X03458Y03057D03*
X03356Y02523D03*
X03546Y01988D03*
X02154Y03261D03*
X03582Y01456D03*
Y01338D03*
X03818D03*
X037D03*
X03818Y01456D03*
X037D03*
X02086Y01574D03*
X02204D03*
X02322D03*
X02559D03*
X0244D03*
Y01692D03*
X02322D03*
X02204D03*
X02086D03*
X02322Y01811D03*
X02204D03*
X02086D03*
X02322Y01929D03*
X02204D03*
X02086D03*
X0254Y03428D03*
X01968Y01279D03*
D03*
D03*
D03*
X03363Y02298D03*
X0381Y0299D03*
Y0289D03*
Y0279D03*
X038Y023D03*
Y024D03*
X0371Y0289D03*
Y0279D03*
Y0299D03*
X037Y023D03*
Y024D03*
X038Y018D03*
Y016D03*
Y017D03*
Y022D03*
X037Y018D03*
Y022D03*
Y016D03*
Y017D03*
X02731Y02875D03*
X03075Y03215D03*
X0315Y0263D03*
X02885Y03075D03*
X02731Y02685D03*
X02477Y02648D03*
X03216Y03321D03*
X03234Y0308D03*
X03363Y02358D03*
X03281Y02212D03*
X03299Y02031D03*
X03443Y01629D03*
X03513D03*
X03342Y01747D03*
X03387Y01555D03*
X02589Y0355D03*
X02429Y0347D03*
X02719Y01975D03*
X03136Y02305D03*
X0285Y0368D03*
X02641Y02007D03*
X0235Y03225D03*
X02731Y02748D03*
X02355Y0305D03*
X02785Y0293D03*
X0285Y03545D03*
X02899Y02911D03*
X0285Y03615D03*
X03015Y0278D03*
X03Y0336D03*
X0278Y0301D03*
X02395Y03185D03*
X02733Y02808D03*
X03014Y03418D03*
X03015Y02715D03*
X02965Y0349D03*
X03015Y0265D03*
X0293Y03119D03*
X03253Y03495D03*
X0325Y03D03*
X0297Y02836D03*
X02649Y03549D03*
X02435Y037D03*
X023Y021D03*
X022Y023D03*
X021Y022D03*
Y024D03*
Y023D03*
X022Y021D03*
Y022D03*
X021Y021D03*
X024Y03D03*
X03154Y02569D03*
X03209Y02304D03*
X03536Y02682D03*
X03344Y01992D03*
G54D49*
X0261Y03375D03*
X02923Y02688D03*
X0266Y03395D03*
X02774Y02117D03*
Y02182D03*
Y0205D03*
X027Y03729D03*
X0276Y03394D03*
X027Y0368D03*
X0271Y03395D03*
X027Y0363D03*
G54D50*
X01968Y01279D03*
X04035Y03838D03*
Y01279D03*
X01968Y03838D03*
G54D51*
X02919Y02537D03*
X0287D03*
X02961Y02495D03*
X02919Y02445D03*
X02961D03*
X02919Y02396D03*
Y02495D03*
X0287D03*
Y02396D03*
Y02445D03*
X02961Y02396D03*
X0287Y02354D03*
X02919D03*
X0282Y02495D03*
Y02537D03*
X02778Y02495D03*
Y02445D03*
X0282D03*
Y02396D03*
X02778D03*
X0282Y02354D03*
M02*