%FSTAX23Y23*%
%MOIN*%
%SFA1B1*%

%IPPOS*%
%AMD49*
4,1,4,0.000000,0.043100,-0.043100,0.000000,0.000000,-0.043100,0.043100,0.000000,0.000000,0.043100,0.0*
%
G04~CAMADD=49~10~0.0~610.2~0.0~0.0~0.0~0.0~0~0.0~0.0~0.0~0.0~0~0.0~0.0~0.0~0.0~0~0.0~0.0~0.0~405.0~610.2~0.0*
%ADD49D49*%
%ADD50C,0.061020*%
%ADD51C,0.050000*%
%ADD52C,0.039370*%
%ADD53C,0.019680*%
%ADD54C,0.118110*%
%LNpcbfoc-1*%
%LPD*%
G36*
X03346Y02976D02*
X03341Y02972D01*
X03336Y0297*
X0333Y02971*
X03322*
X03315Y02969*
X03309Y02966*
X03303Y0296*
X03303Y0296*
X03292*
X03291Y0296*
X03286Y02966*
X03279Y02969*
X03272Y02971*
X03264*
X03257Y02969*
X0325Y02966*
X03245Y0296*
X03241Y02954*
X03239Y02946*
Y02939*
X03241Y02931*
X03245Y02925*
X0325Y02919*
X03251Y02919*
Y02907*
X03249Y02907*
X03244Y02901*
X0324Y02895*
X03238Y02887*
Y0288*
X0324Y02872*
X03244Y02866*
X03249Y0286*
X0325Y0286*
Y02848*
X03249Y02847*
X03244Y02842*
X0324Y02835*
X03238Y02828*
Y0282*
X0324Y02813*
X03244Y02807*
X03249Y02801*
X0325Y02801*
Y02789*
X03249Y02788*
X03244Y02783*
X0324Y02776*
X03238Y02769*
Y02761*
X0324Y02754*
X03244Y02747*
X03249Y02742*
X03256Y02738*
X03263Y02736*
X03271*
X03278Y02738*
X03285Y02742*
X0329Y02747*
X03291Y02749*
X03303*
X03303Y02747*
X03309Y02742*
X03315Y02738*
X03322Y02736*
X0333*
X03336Y02738*
X03341Y02736*
X03346Y02732*
Y0255*
X03344Y02549*
X03338Y02546*
X03332Y0254*
X03329Y02534*
X03327Y02526*
Y02519*
X03329Y02511*
X03332Y02505*
X03338Y02499*
X03344Y02496*
X03346Y02495*
Y02428*
X03345Y02428*
X03338Y02424*
X03333Y02419*
X03332Y02418*
X03321*
X0332Y02419*
X03315Y02424*
X03308Y02428*
X03301Y0243*
X03293*
X03286Y02428*
X03279Y02424*
X03274Y02419*
X03273Y02418*
X03261*
X03261Y02419*
X03255Y02424*
X03249Y02428*
X03242Y0243*
X03234*
X03227Y02428*
X0322Y02424*
X03215Y02419*
X03211Y02412*
X03209Y02405*
Y02397*
X03211Y0239*
X03215Y02383*
X0322Y02378*
X03221Y02377*
Y02366*
X0322Y02365*
X03215Y0236*
X03211Y02353*
X03209Y02346*
Y02338*
X03211Y02331*
X03215Y02324*
X0322Y02319*
X03221Y02318*
Y02307*
X0322Y02307*
X03215Y02301*
X03211Y02295*
X03209Y02287*
Y0228*
X03211Y02272*
X03215Y02266*
X0322Y0226*
X03222Y0226*
X03222Y02248*
X0322Y02247*
X03215Y02242*
X03211Y02235*
X03209Y02228*
Y0222*
X03211Y02213*
X03215Y02206*
X0322Y02201*
X03227Y02197*
X03234Y02195*
X03242*
X03249Y02197*
X03255Y02201*
X03261Y02206*
X03262Y02208*
X03273Y02208*
X03274Y02207*
X03279Y02201*
X03286Y02197*
X03293Y02195*
X03301*
X03308Y02197*
X03315Y02201*
X0332Y02207*
X03321Y02207*
X03332*
X03333Y02206*
X03338Y02201*
X03345Y02197*
X03346Y02197*
Y02021*
X03341*
X03336Y0202*
X03329Y02025*
X03328Y02027*
Y02035*
X03326Y02042*
X03322Y02049*
X03316Y02054*
X0331Y02058*
X03303Y0206*
X03296*
X03293Y02064*
X03291Y02069*
X03294Y02075*
X03296Y02082*
Y0209*
X03294Y02097*
X0329Y02104*
X03285Y02109*
X03278Y02113*
X03271Y02115*
X03263*
X03256Y02113*
X03249Y02109*
X03244Y02104*
X0324Y02097*
X03238Y0209*
Y02082*
X0324Y02075*
X03244Y02068*
X03249Y02063*
X03256Y02059*
X03263Y02057*
X0327*
X03273Y02053*
X03275Y02048*
X03272Y02042*
X0327Y02035*
Y02027*
X03272Y0202*
X03276Y02013*
X03281Y02008*
X03288Y02004*
X03295Y02002*
X03303*
X03307Y02003*
X03314Y01998*
X03315Y01996*
Y01988*
X03317Y01981*
X03321Y01975*
X03327Y01969*
X03333Y01965*
X03341Y01963*
X03346*
Y01797*
X03336Y01793*
X03334Y01794*
X03328Y01798*
X0332Y018*
X03313*
X03305Y01798*
X03299Y01794*
X03293Y01789*
X03293Y01788*
X03281*
X03281Y01789*
X03275Y01794*
X03269Y01798*
X03261Y018*
X03254*
X03246Y01798*
X0324Y01794*
X03234Y01789*
X0323Y01782*
X03228Y01775*
Y01767*
X0323Y0176*
X03234Y01753*
X0324Y01748*
X03241Y01747*
Y01736*
X0324Y01735*
X03234Y0173*
X0323Y01723*
X03228Y01716*
Y01708*
X0323Y01701*
X03234Y01694*
X0324Y01689*
X03246Y01685*
X03254Y01683*
X03261*
X03269Y01685*
X03275Y01689*
X03281Y01694*
X03281Y01695*
X03293*
X03293Y01695*
X03293Y01694*
X03299Y01689*
X033Y01688*
X033Y01688*
Y01677*
X03299Y01676*
X03293Y01671*
X03289Y01664*
X03287Y01657*
Y01649*
X03289Y01642*
X03293Y01635*
X03294Y01634*
X02939Y01279*
X02037*
Y01286*
X02034Y01299*
X02029Y01312*
X02022Y01323*
X02012Y01333*
X02001Y0134*
X01988Y01345*
X01975Y01348*
X01968*
Y03769*
X01975*
X01988Y03772*
X02001Y03777*
X02012Y03784*
X02022Y03794*
X02029Y03805*
X02034Y03818*
X02037Y03831*
Y03838*
X03346*
Y02976*
G37*
G36*
X03966Y03831D02*
X03969Y03818D01*
X03974Y03805*
X03981Y03794*
X03991Y03784*
X04002Y03777*
X04015Y03772*
X04028Y03769*
X04035*
Y01348*
X04028*
X04015Y01345*
X04002Y0134*
X03991Y01333*
X03981Y01323*
X03974Y01312*
X03969Y01299*
X03966Y01286*
Y01279*
X03054*
X0305Y01288*
X03267Y01505*
X0334Y01578*
X03352Y01576*
X03352Y01576*
X03358Y01571*
X03364Y01567*
X03372Y01565*
X03379*
X03387Y01567*
X03393Y01571*
X03399Y01576*
X03399Y01577*
X03411*
X03411Y01576*
X03417Y01571*
X03423Y01567*
X03431Y01565*
X03438*
X03446Y01567*
X03452Y01571*
X03458Y01576*
X03458Y01577*
X0347*
X0347Y01576*
X03476Y01571*
X03482Y01567*
X0349Y01565*
X03497*
X03505Y01567*
X03511Y01571*
X03517Y01576*
X03521Y01583*
X03523Y0159*
Y01598*
X03521Y01605*
X03517Y01612*
X03511Y01617*
X0351Y01618*
Y01629*
X03511Y0163*
X03517Y01635*
X03521Y01642*
X03523Y01649*
Y01657*
X03521Y01664*
X03517Y01671*
X03511Y01676*
X03505Y0168*
X03497Y01682*
X0349*
X03482Y0168*
X03476Y01676*
X0347Y01671*
X0347Y0167*
X03458*
X03458Y01671*
X03452Y01676*
X03452Y01676*
X03444Y01682*
Y03023*
X03454Y03031*
X03461*
X03469Y03033*
X03475Y03036*
X03481Y03042*
X03484Y03048*
X03486Y03056*
Y03063*
X03484Y03071*
X03481Y03077*
X03475Y03083*
X03469Y03086*
X03461Y03088*
X03454*
X03444Y03096*
Y03838*
X03966*
Y03831*
G37*
%LNpcbfoc-2*%
%LPC*%
G36*
X02704Y03752D02*
X02695D01*
X02686Y03749*
X02679Y03742*
X02676Y03734*
Y03724*
X02679Y03715*
X02685Y0371*
X02686Y03704*
X02685Y03698*
X02679Y03693*
X02676Y03684*
Y03675*
X02679Y03666*
X02686Y0366*
X02686Y03655*
X02686Y03649*
X02679Y03643*
X02676Y03634*
Y03625*
X02679Y03616*
X02686Y03609*
X02695Y03606*
X02704*
X02713Y03609*
X0272Y03616*
X02723Y03625*
Y03634*
X0272Y03643*
X02714Y03649*
X02713Y03655*
X02714Y0366*
X0272Y03666*
X02723Y03675*
Y03684*
X0272Y03693*
X02714Y03698*
X02713Y03704*
X02714Y0371*
X0272Y03715*
X02723Y03724*
Y03734*
X0272Y03742*
X02713Y03749*
X02704Y03752*
G37*
G36*
X02853Y03708D02*
X02846D01*
X02838Y03706*
X02832Y03703*
X02826Y03697*
X02823Y03691*
X02821Y03683*
Y03676*
X02823Y03668*
X02826Y03662*
X02832Y03656*
X02838Y03653*
X0284Y03652*
Y03642*
X02838Y03641*
X02832Y03638*
X02826Y03632*
X02823Y03626*
X02821Y03618*
Y03611*
X02823Y03603*
X02826Y03597*
X02832Y03591*
X02838Y03588*
X02846Y03586*
X02853*
X02861Y03588*
X02867Y03591*
X02873Y03597*
X02876Y03603*
X02878Y03611*
Y03618*
X02876Y03626*
X02873Y03632*
X02867Y03638*
X02861Y03641*
X02859Y03642*
Y03652*
X02861Y03653*
X02867Y03656*
X02873Y03662*
X02876Y03668*
X02878Y03676*
Y03683*
X02876Y03691*
X02873Y03697*
X02867Y03703*
X02861Y03706*
X02853Y03708*
G37*
G36*
Y03573D02*
X02846D01*
X02838Y03571*
X02832Y03568*
X02826Y03562*
X02823Y03556*
X02821Y03548*
Y03541*
X02823Y03533*
X02826Y03527*
X02832Y03521*
X02838Y03518*
X02846Y03516*
X02853*
X02861Y03518*
X02867Y03521*
X02873Y03527*
X02876Y03533*
X02878Y03541*
Y03548*
X02876Y03556*
X02873Y03562*
X02867Y03568*
X02861Y03571*
X02853Y03573*
G37*
G36*
X02566Y03556D02*
X02559D01*
X02551Y03554*
X02545Y03551*
X02539Y03545*
X02536Y03539*
X02534Y03531*
Y03524*
X02536Y03516*
X02539Y0351*
X02545Y03504*
X02551Y03501*
X02559Y03499*
X02566*
X02574Y03501*
X0258Y03504*
X02586Y0351*
X02589Y03516*
X02591Y03524*
Y03531*
X02589Y03539*
X02586Y03545*
X0258Y03551*
X02574Y03554*
X02566Y03556*
G37*
G36*
X0245Y03539D02*
X02443D01*
X02435Y03537*
X02429Y03534*
X02423Y03528*
X0242Y03522*
X02418Y03514*
Y03507*
X0242Y03499*
X02423Y03493*
X02429Y03487*
X02435Y03484*
X02443Y03482*
X0245*
X02458Y03484*
X02464Y03487*
X0247Y03493*
X02473Y03499*
X02475Y03507*
Y03514*
X02473Y03522*
X0247Y03528*
X02464Y03534*
X02458Y03537*
X0245Y03539*
G37*
G36*
X02968Y03518D02*
X02961D01*
X02953Y03516*
X02947Y03513*
X02941Y03507*
X02938Y03501*
X02936Y03493*
Y03486*
X02938Y03478*
X02941Y03472*
X02947Y03466*
X02953Y03463*
X02961Y03461*
X02968*
X02976Y03463*
X02982Y03466*
X02988Y03472*
X02991Y03478*
X02993Y03486*
Y03493*
X02991Y03501*
X02988Y03507*
X02982Y03513*
X02976Y03516*
X02968Y03518*
G37*
G36*
X02714Y03418D02*
X02705D01*
X02696Y03415*
X02691Y03409*
X02685Y03408*
X02679Y03409*
X02674Y03415*
X02665Y03418*
X02655*
X02647Y03415*
X0264Y03408*
X02637Y03399*
Y03395*
X02627Y03391*
X02623Y03395*
X02614Y03398*
X02605*
X02596Y03395*
X02589Y03388*
X02586Y03379*
Y0337*
X02589Y03361*
X02596Y03354*
X02605Y03351*
X02614*
X02623Y03354*
X0263Y03361*
X02633Y0337*
Y03374*
X02643Y03378*
X02647Y03374*
X02655Y03371*
X02665*
X02674Y03374*
X02679Y0338*
X02685Y03381*
X02691Y0338*
X02696Y03374*
X02705Y03371*
X02714*
X02723Y03374*
X02729Y0338*
X02739Y03381*
X0274*
X02746Y03374*
X02755Y03371*
X02764*
X02773Y03374*
X0278Y03381*
X02783Y0339*
Y03399*
X0278Y03408*
X02773Y03414*
X02764Y03418*
X02755*
X02746Y03414*
X0274Y03408*
X0273Y03408*
X0273*
X02723Y03415*
X02714Y03418*
G37*
G36*
X03018Y03447D02*
X0301D01*
X03003Y03445*
X02996Y03441*
X02991Y03435*
X02987Y03429*
X02985Y03422*
Y03414*
X02987Y03407*
X02991Y034*
X02993Y03398*
X0299Y03387*
X02988Y03386*
X02982Y03383*
X02976Y03377*
X02973Y03371*
X02971Y03363*
Y03356*
X02973Y03348*
X02976Y03342*
X02982Y03336*
X02988Y03333*
X02996Y03331*
X03003*
X03011Y03333*
X03017Y03336*
X03023Y03342*
X03026Y03348*
X03028Y03356*
Y03363*
X03026Y03371*
X03023Y03377*
X03021Y03379*
X03023Y0339*
X03025Y03391*
X03032Y03395*
X03037Y034*
X03041Y03407*
X03043Y03414*
Y03422*
X03041Y03429*
X03037Y03435*
X03032Y03441*
X03025Y03445*
X03018Y03447*
G37*
G36*
X03219Y03349D02*
X03212D01*
X03204Y03347*
X03198Y03344*
X03192Y03338*
X03189Y03332*
X03187Y03324*
Y03317*
X03189Y03309*
X03192Y03303*
X03198Y03297*
X03204Y03294*
X03212Y03292*
X03219*
X03227Y03294*
X03233Y03297*
X03239Y03303*
X03242Y03309*
X03244Y03317*
Y03324*
X03242Y03332*
X03239Y03338*
X03233Y03344*
X03227Y03347*
X03219Y03349*
G37*
G36*
X02157Y03289D02*
X0215D01*
X02142Y03287*
X02136Y03284*
X0213Y03278*
X02127Y03272*
X02125Y03264*
Y03257*
X02127Y03249*
X0213Y03243*
X02136Y03237*
X02142Y03234*
X0215Y03232*
X02157*
X02165Y03234*
X02171Y03237*
X02177Y03243*
X0218Y03249*
X02182Y03257*
Y03264*
X0218Y03272*
X02177Y03278*
X02171Y03284*
X02165Y03287*
X02157Y03289*
G37*
G36*
X02353Y03253D02*
X02346D01*
X02338Y03251*
X02332Y03248*
X02326Y03242*
X02323Y03236*
X02321Y03228*
Y03221*
X02323Y03213*
X02326Y03207*
X02332Y03201*
X02338Y03198*
X02346Y03196*
X02353*
X02357Y03197*
X02364Y03191*
X02366Y03189*
X02366Y03188*
Y03181*
X02368Y03173*
X02371Y03167*
X02377Y03161*
X02383Y03158*
X02391Y03156*
X02398*
X02406Y03158*
X02412Y03161*
X02418Y03167*
X02421Y03173*
X02423Y03181*
Y03188*
X02421Y03196*
X02418Y03202*
X02412Y03208*
X02406Y03211*
X02398Y03213*
X02391*
X02387Y03212*
X0238Y03218*
X02378Y0322*
X02378Y03221*
Y03228*
X02376Y03236*
X02373Y03242*
X02367Y03248*
X02361Y03251*
X02353Y03253*
G37*
G36*
X03087Y03212D02*
X0308D01*
X03072Y0321*
X03066Y03207*
X0306Y03201*
X03057Y03195*
X03055Y03187*
Y0318*
X03057Y03172*
X0306Y03166*
X03066Y0316*
X03072Y03157*
X0308Y03155*
X03087*
X03095Y03157*
X03101Y0316*
X03107Y03166*
X0311Y03172*
X03112Y0318*
Y03187*
X0311Y03195*
X03107Y03201*
X03101Y03207*
X03095Y0321*
X03087Y03212*
G37*
G36*
X03228Y03121D02*
X0322D01*
X03213Y03119*
X03206Y03116*
X03201Y0311*
X03197Y03104*
X03195Y03096*
Y03089*
X03197Y03081*
X03201Y03075*
X03206Y03069*
X03213Y03065*
X0322Y03063*
X03228*
X03235Y03065*
X03242Y03069*
X03247Y03075*
X03251Y03081*
X03253Y03089*
Y03096*
X03251Y03104*
X03247Y0311*
X03242Y03116*
X03235Y03119*
X03228Y03121*
G37*
G36*
X0226Y03152D02*
X02211Y03104D01*
X0226Y03055*
X02308Y03104*
X0226Y03152*
G37*
G36*
X02903Y03084D02*
X02896D01*
X02888Y03082*
X02882Y03079*
X02876Y03073*
X02873Y03067*
X02871Y03059*
Y03052*
X02873Y03044*
X02876Y03038*
X02882Y03032*
X02888Y03029*
X02896Y03027*
X02903*
X02911Y03029*
X02917Y03032*
X02923Y03038*
X02926Y03044*
X02928Y03052*
Y03059*
X02926Y03067*
X02923Y03073*
X02917Y03079*
X02911Y03082*
X02903Y03084*
G37*
G36*
X02335Y03067D02*
X02326D01*
X02317Y03065*
X02309Y0306*
X02303Y03054*
X02298Y03046*
X02296Y03037*
Y03028*
X02298Y0302*
X02303Y03012*
X02309Y03005*
X02317Y03001*
X02326Y02998*
X02335*
X02344Y03001*
X02352Y03005*
X02358Y03012*
X02362Y0302*
X02365Y03028*
Y03037*
X02362Y03046*
X02358Y03054*
X02352Y0306*
X02344Y03065*
X02335Y03067*
G37*
G36*
X02783Y03038D02*
X02775D01*
X02768Y03036*
X02761Y03032*
X02756Y03027*
X02752Y0302*
X0275Y03013*
Y03005*
X02752Y02998*
X02756Y02992*
X02761Y02986*
X02768Y02982*
X02775Y0298*
X02783*
X0279Y02982*
X02797Y02986*
X02802Y02992*
X02806Y02998*
X02808Y03005*
Y03013*
X02806Y0302*
X02802Y03027*
X02797Y03032*
X0279Y03036*
X02783Y03038*
G37*
G36*
X02406Y02997D02*
X02397D01*
X02388Y02994*
X0238Y0299*
X02374Y02983*
X02369Y02975*
X02367Y02967*
Y02958*
X02369Y02949*
X02374Y02941*
X0238Y02935*
X02388Y0293*
X02397Y02928*
X02406*
X02414Y0293*
X02422Y02935*
X02429Y02941*
X02433Y02949*
X02436Y02958*
Y02967*
X02433Y02975*
X02429Y02983*
X02422Y0299*
X02414Y02994*
X02406Y02997*
G37*
G36*
X02788Y02958D02*
X02781D01*
X02773Y02956*
X02767Y02953*
X02761Y02947*
X02758Y02941*
X02756Y02933*
Y02926*
X02758Y02918*
X02761Y02912*
X02767Y02906*
X02773Y02903*
X02781Y02901*
X02788*
X02796Y02903*
X02802Y02906*
X02808Y02912*
X02811Y02918*
X02813Y02926*
Y02933*
X02811Y02941*
X02808Y02947*
X02802Y02953*
X02796Y02956*
X02788Y02958*
G37*
G36*
X02902Y02939D02*
X02895D01*
X02887Y02937*
X02881Y02934*
X02875Y02928*
X02872Y02922*
X0287Y02914*
Y02907*
X02872Y02899*
X02875Y02893*
X02881Y02887*
X02887Y02884*
X02895Y02882*
X02902*
X0291Y02884*
X02916Y02887*
X02922Y02893*
X02925Y02899*
X02927Y02907*
Y02914*
X02925Y02922*
X02922Y02928*
X02916Y02934*
X0291Y02937*
X02902Y02939*
G37*
G36*
X02927Y02711D02*
X02918D01*
X02909Y02708*
X02902Y02701*
X02899Y02692*
Y02683*
X02902Y02674*
X02909Y02667*
X02918Y02664*
X02927*
X02936Y02667*
X02943Y02674*
X02946Y02683*
Y02692*
X02943Y02701*
X02936Y02708*
X02927Y02711*
G37*
G36*
X02735Y02903D02*
X02727D01*
X0272Y02901*
X02713Y02898*
X02708Y02892*
X02704Y02886*
X02702Y02878*
Y02871*
X02704Y02863*
X02708Y02857*
X02713Y02851*
X0272Y02848*
X02725Y02846*
X02727Y02839*
X02726Y02836*
X02722Y02835*
X02715Y02831*
X0271Y02826*
X02706Y02819*
X02704Y02812*
Y02804*
X02706Y02797*
X0271Y0279*
X02715Y02785*
X02717Y02784*
X02717Y02783*
X02716Y02772*
X02713Y02771*
X02708Y02766*
X02704Y02759*
X02702Y02752*
Y02744*
X02704Y02737*
X02708Y0273*
X02713Y02725*
X02719Y02722*
X02719Y02716*
X02719Y02711*
X02713Y02708*
X02708Y02702*
X02704Y02696*
X02702Y02688*
Y02681*
X02704Y02673*
X02708Y02667*
X02713Y02661*
X0272Y02658*
X02727Y02656*
X02735*
X02742Y02658*
X02749Y02661*
X02754Y02667*
X02758Y02673*
X0276Y02681*
Y02688*
X02758Y02696*
X02754Y02702*
X02749Y02708*
X02744Y02711*
X02743Y02716*
X02744Y02722*
X02749Y02725*
X02754Y0273*
X02758Y02737*
X0276Y02744*
Y02752*
X02758Y02759*
X02754Y02766*
X02749Y02771*
X02747Y02772*
X02747Y02772*
X02748Y02783*
X02751Y02785*
X02756Y0279*
X0276Y02797*
X02762Y02804*
Y02812*
X0276Y02819*
X02756Y02826*
X02751Y02831*
X02744Y02835*
X02739Y02836*
X02737Y02844*
X02738Y02846*
X02742Y02848*
X02749Y02851*
X02754Y02857*
X02758Y02863*
X0276Y02871*
Y02878*
X02758Y02886*
X02754Y02892*
X02749Y02898*
X02742Y02901*
X02735Y02903*
G37*
G36*
X03018Y02808D02*
X03011D01*
X03003Y02806*
X02997Y02803*
X02991Y02797*
X02988Y02791*
X02986Y02783*
Y02776*
X02988Y02768*
X02991Y02762*
X02997Y02756*
X03003Y02753*
X03005Y02752*
Y02742*
X03003Y02741*
X02997Y02738*
X02991Y02732*
X02988Y02726*
X02986Y02718*
Y02711*
X02988Y02703*
X02991Y02697*
X02997Y02691*
X03003Y02688*
X03005Y02687*
Y02677*
X03003Y02676*
X02997Y02673*
X02991Y02667*
X02988Y02661*
X02986Y02653*
Y02646*
X02988Y02638*
X02991Y02632*
X02997Y02626*
X03003Y02623*
X03011Y02621*
X03018*
X03026Y02623*
X03032Y02626*
X03038Y02632*
X03041Y02638*
X03043Y02646*
Y02653*
X03041Y02661*
X03038Y02667*
X03032Y02673*
X03026Y02676*
X03024Y02677*
Y02687*
X03026Y02688*
X03032Y02691*
X03038Y02697*
X03041Y02703*
X03043Y02711*
Y02718*
X03041Y02726*
X03038Y02732*
X03032Y02738*
X03026Y02741*
X03024Y02742*
Y02752*
X03026Y02753*
X03032Y02756*
X03038Y02762*
X03041Y02768*
X03043Y02776*
Y02783*
X03041Y02791*
X03038Y02797*
X03032Y02803*
X03026Y02806*
X03018Y02808*
G37*
G36*
X0248Y02676D02*
X02473D01*
X02465Y02674*
X02459Y02671*
X02453Y02665*
X0245Y02659*
X02448Y02651*
Y02644*
X0245Y02636*
X02453Y0263*
X02459Y02624*
X02465Y02621*
X02473Y02619*
X0248*
X02488Y02621*
X02494Y02624*
X025Y0263*
X02503Y02636*
X02505Y02644*
Y02651*
X02503Y02659*
X025Y02665*
X02494Y02671*
X02488Y02674*
X0248Y02676*
G37*
G36*
X03153Y02658D02*
X03146D01*
X03138Y02656*
X03132Y02653*
X03126Y02647*
X03123Y02641*
X03121Y02633*
Y02626*
X03123Y02618*
X03126Y02612*
X03132Y02606*
X03136Y02604*
X03138Y02597*
X03137Y02592*
X03136Y02592*
X0313Y02586*
X03127Y0258*
X03125Y02572*
Y02565*
X03127Y02557*
X0313Y02551*
X03136Y02545*
X03142Y02542*
X0315Y0254*
X03157*
X03165Y02542*
X03171Y02545*
X03177Y02551*
X0318Y02557*
X03182Y02565*
Y02572*
X0318Y0258*
X03177Y02586*
X03171Y02592*
X03167Y02594*
X03165Y02601*
X03166Y02606*
X03167Y02606*
X03173Y02612*
X03176Y02618*
X03178Y02626*
Y02633*
X03176Y02641*
X03173Y02647*
X03167Y02653*
X03161Y02656*
X03153Y02658*
G37*
G36*
X02922Y02551D02*
X02916D01*
X02911Y02549*
X02907Y02545*
X02905Y0254*
Y02534*
X02907Y02529*
X02911Y02525*
X02916Y02523*
X02922*
X02927Y02525*
X02931Y02529*
X02933Y02534*
Y0254*
X02931Y02545*
X02927Y02549*
X02922Y02551*
G37*
G36*
X02872D02*
X02867D01*
X02862Y02549*
X02858Y02545*
X02856Y0254*
Y02534*
X02858Y02529*
X02862Y02525*
X02867Y02523*
X02872*
X02877Y02525*
X02881Y02529*
X02884Y02534*
Y0254*
X02881Y02545*
X02877Y02549*
X02872Y02551*
G37*
G36*
X02823D02*
X02817D01*
X02812Y02549*
X02808Y02545*
X02806Y0254*
Y02534*
X02808Y02529*
X02812Y02525*
X02817Y02523*
X02823*
X02828Y02525*
X02832Y02529*
X02834Y02534*
Y0254*
X02832Y02545*
X02828Y02549*
X02823Y02551*
G37*
G36*
X02964Y02509D02*
X02958D01*
X02953Y02507*
X02949Y02503*
X02947Y02498*
Y02492*
X02949Y02487*
X02953Y02483*
X02958Y02481*
X02964*
X02969Y02483*
X02973Y02487*
X02975Y02492*
Y02498*
X02973Y02503*
X02969Y02507*
X02964Y02509*
G37*
G36*
X02922D02*
X02916D01*
X02911Y02507*
X02907Y02503*
X02905Y02498*
Y02492*
X02907Y02487*
X02911Y02483*
X02916Y02481*
X02922*
X02927Y02483*
X02931Y02487*
X02933Y02492*
Y02498*
X02931Y02503*
X02927Y02507*
X02922Y02509*
G37*
G36*
X02872D02*
X02867D01*
X02862Y02507*
X02858Y02503*
X02856Y02498*
Y02492*
X02858Y02487*
X02862Y02483*
X02867Y02481*
X02872*
X02877Y02483*
X02881Y02487*
X02884Y02492*
Y02498*
X02881Y02503*
X02877Y02507*
X02872Y02509*
G37*
G36*
X02823D02*
X02817D01*
X02812Y02507*
X02808Y02503*
X02806Y02498*
Y02492*
X02808Y02487*
X02812Y02483*
X02817Y02481*
X02823*
X02828Y02483*
X02832Y02487*
X02834Y02492*
Y02498*
X02832Y02503*
X02828Y02507*
X02823Y02509*
G37*
G36*
X02781D02*
X02775D01*
X0277Y02507*
X02766Y02503*
X02764Y02498*
Y02492*
X02766Y02487*
X0277Y02483*
X02775Y02481*
X02781*
X02786Y02483*
X0279Y02487*
X02792Y02492*
Y02498*
X0279Y02503*
X02786Y02507*
X02781Y02509*
G37*
G36*
X02964Y02459D02*
X02958D01*
X02953Y02457*
X02949Y02453*
X02947Y02448*
Y02443*
X02949Y02437*
X02953Y02434*
X02958Y02431*
X02964*
X02969Y02434*
X02973Y02437*
X02975Y02443*
Y02448*
X02973Y02453*
X02969Y02457*
X02964Y02459*
G37*
G36*
X02922D02*
X02916D01*
X02911Y02457*
X02907Y02453*
X02905Y02448*
Y02443*
X02907Y02437*
X02911Y02434*
X02916Y02431*
X02922*
X02927Y02434*
X02931Y02437*
X02933Y02443*
Y02448*
X02931Y02453*
X02927Y02457*
X02922Y02459*
G37*
G36*
X02872D02*
X02867D01*
X02862Y02457*
X02858Y02453*
X02856Y02448*
Y02443*
X02858Y02437*
X02862Y02434*
X02867Y02431*
X02872*
X02877Y02434*
X02881Y02437*
X02884Y02443*
Y02448*
X02881Y02453*
X02877Y02457*
X02872Y02459*
G37*
G36*
X02823D02*
X02817D01*
X02812Y02457*
X02808Y02453*
X02806Y02448*
Y02443*
X02808Y02437*
X02812Y02434*
X02817Y02431*
X02823*
X02828Y02434*
X02832Y02437*
X02834Y02443*
Y02448*
X02832Y02453*
X02828Y02457*
X02823Y02459*
G37*
G36*
X02781D02*
X02775D01*
X0277Y02457*
X02766Y02453*
X02764Y02448*
Y02443*
X02766Y02437*
X0277Y02434*
X02775Y02431*
X02781*
X02786Y02434*
X0279Y02437*
X02792Y02443*
Y02448*
X0279Y02453*
X02786Y02457*
X02781Y02459*
G37*
G36*
X02964Y0241D02*
X02958D01*
X02953Y02408*
X02949Y02404*
X02947Y02399*
Y02393*
X02949Y02388*
X02953Y02384*
X02958Y02382*
X02964*
X02969Y02384*
X02973Y02388*
X02975Y02393*
Y02399*
X02973Y02404*
X02969Y02408*
X02964Y0241*
G37*
G36*
X02922D02*
X02916D01*
X02911Y02408*
X02907Y02404*
X02905Y02399*
Y02393*
X02907Y02388*
X02911Y02384*
X02916Y02382*
X02922*
X02927Y02384*
X02931Y02388*
X02933Y02393*
Y02399*
X02931Y02404*
X02927Y02408*
X02922Y0241*
G37*
G36*
X02872D02*
X02867D01*
X02862Y02408*
X02858Y02404*
X02856Y02399*
Y02393*
X02858Y02388*
X02862Y02384*
X02867Y02382*
X02872*
X02877Y02384*
X02881Y02388*
X02884Y02393*
Y02399*
X02881Y02404*
X02877Y02408*
X02872Y0241*
G37*
G36*
X02823D02*
X02817D01*
X02812Y02408*
X02808Y02404*
X02806Y02399*
Y02393*
X02808Y02388*
X02812Y02384*
X02817Y02382*
X02823*
X02828Y02384*
X02832Y02388*
X02834Y02393*
Y02399*
X02832Y02404*
X02828Y02408*
X02823Y0241*
G37*
G36*
X02781D02*
X02775D01*
X0277Y02408*
X02766Y02404*
X02764Y02399*
Y02393*
X02766Y02388*
X0277Y02384*
X02775Y02382*
X02781*
X02786Y02384*
X0279Y02388*
X02792Y02393*
Y02399*
X0279Y02404*
X02786Y02408*
X02781Y0241*
G37*
G36*
X02922Y02368D02*
X02916D01*
X02911Y02366*
X02907Y02362*
X02905Y02357*
Y02351*
X02907Y02346*
X02911Y02342*
X02916Y0234*
X02922*
X02927Y02342*
X02931Y02346*
X02933Y02351*
Y02357*
X02931Y02362*
X02927Y02366*
X02922Y02368*
G37*
G36*
X02872D02*
X02867D01*
X02862Y02366*
X02858Y02362*
X02856Y02357*
Y02351*
X02858Y02346*
X02862Y02342*
X02867Y0234*
X02872*
X02877Y02342*
X02881Y02346*
X02884Y02351*
Y02357*
X02881Y02362*
X02877Y02366*
X02872Y02368*
G37*
G36*
X02823D02*
X02817D01*
X02812Y02366*
X02808Y02362*
X02806Y02357*
Y02351*
X02808Y02346*
X02812Y02342*
X02817Y0234*
X02823*
X02828Y02342*
X02832Y02346*
X02834Y02351*
Y02357*
X02832Y02362*
X02828Y02366*
X02823Y02368*
G37*
G36*
X03112Y0228D02*
X03105D01*
X03097Y02278*
X03091Y02275*
X03085Y02269*
X03082Y02263*
X0308Y02255*
Y02248*
X03082Y0224*
X03085Y02234*
X03091Y02228*
X03097Y02225*
X03105Y02223*
X03112*
X03115Y02223*
X03121Y02217*
X03122Y02215*
X0312Y02208*
Y022*
X03122Y02193*
X03126Y02186*
X03131Y02181*
X03138Y02177*
X03145Y02175*
X03153*
X0316Y02177*
X03167Y02181*
X03172Y02186*
X03176Y02193*
X03178Y022*
Y02208*
X03176Y02215*
X03172Y02222*
X03167Y02227*
X0316Y02231*
X03153Y02233*
X03145*
X03142Y02232*
X03137Y02239*
X03136Y02241*
X03137Y02248*
Y02255*
X03135Y02263*
X03132Y02269*
X03126Y02275*
X0312Y02278*
X03112Y0228*
G37*
G36*
X02779Y02205D02*
X02769D01*
X0276Y02202*
X02754Y02195*
X0275Y02186*
Y02177*
X02754Y02168*
X0276Y02162*
X02769Y02158*
X02779*
X02787Y02162*
X02794Y02168*
X02797Y02177*
Y02186*
X02794Y02195*
X02787Y02202*
X02779Y02205*
G37*
G36*
Y0214D02*
X02769D01*
X0276Y02137*
X02754Y0213*
X0275Y02121*
Y02112*
X02754Y02103*
X0276Y02097*
X02769Y02093*
X02779*
X02787Y02097*
X02794Y02103*
X02797Y02112*
Y02121*
X02794Y0213*
X02787Y02137*
X02779Y0214*
G37*
G36*
Y02073D02*
X02769D01*
X0276Y0207*
X02754Y02063*
X0275Y02054*
Y02045*
X02754Y02036*
X0276Y0203*
X02769Y02026*
X02779*
X02787Y0203*
X02794Y02036*
X02797Y02045*
Y02054*
X02794Y02063*
X02787Y0207*
X02779Y02073*
G37*
G36*
X02722Y02003D02*
X02715D01*
X02707Y02001*
X02701Y01998*
X02695Y01992*
X02692Y01986*
X0269Y01978*
Y01971*
X02692Y01963*
X02695Y01957*
X02701Y01951*
X02707Y01948*
X02715Y01946*
X02722*
X0273Y01948*
X02736Y01951*
X02742Y01957*
X02745Y01963*
X02747Y01971*
Y01978*
X02745Y01986*
X02742Y01992*
X02736Y01998*
X0273Y02001*
X02722Y02003*
G37*
G36*
X02326Y01958D02*
X02319D01*
X02311Y01956*
X02305Y01952*
X02299Y01946*
X02295Y0194*
X02293Y01932*
Y01925*
X02295Y01917*
X02299Y01911*
X02305Y01905*
X02311Y01902*
X02319Y019*
X02326*
X02334Y01902*
X0234Y01905*
X02345Y01911*
X02349Y01917*
X02351Y01925*
Y01932*
X02349Y0194*
X02345Y01946*
X0234Y01952*
X02334Y01956*
X02326Y01958*
G37*
G36*
X02208D02*
X022D01*
X02193Y01956*
X02186Y01952*
X02181Y01946*
X02177Y0194*
X02175Y01932*
Y01925*
X02177Y01917*
X02181Y01911*
X02186Y01905*
X02193Y01902*
X022Y019*
X02208*
X02215Y01902*
X02222Y01905*
X02227Y01911*
X02231Y01917*
X02233Y01925*
Y01932*
X02231Y0194*
X02227Y01946*
X02222Y01952*
X02215Y01956*
X02208Y01958*
G37*
G36*
X0209D02*
X02082D01*
X02075Y01956*
X02068Y01952*
X02063Y01946*
X02059Y0194*
X02057Y01932*
Y01925*
X02059Y01917*
X02063Y01911*
X02068Y01905*
X02075Y01902*
X02082Y019*
X0209*
X02097Y01902*
X02104Y01905*
X02109Y01911*
X02113Y01917*
X02115Y01925*
Y01932*
X02113Y0194*
X02109Y01946*
X02104Y01952*
X02097Y01956*
X0209Y01958*
G37*
G36*
X02326Y01839D02*
X02319D01*
X02311Y01837*
X02305Y01834*
X02299Y01828*
X02295Y01822*
X02293Y01814*
Y01807*
X02295Y01799*
X02299Y01793*
X02305Y01787*
X02311Y01784*
X02319Y01782*
X02326*
X02334Y01784*
X0234Y01787*
X02345Y01793*
X02349Y01799*
X02351Y01807*
Y01814*
X02349Y01822*
X02345Y01828*
X0234Y01834*
X02334Y01837*
X02326Y01839*
G37*
G36*
X02208D02*
X022D01*
X02193Y01837*
X02186Y01834*
X02181Y01828*
X02177Y01822*
X02175Y01814*
Y01807*
X02177Y01799*
X02181Y01793*
X02186Y01787*
X02193Y01784*
X022Y01782*
X02208*
X02215Y01784*
X02222Y01787*
X02227Y01793*
X02231Y01799*
X02233Y01807*
Y01814*
X02231Y01822*
X02227Y01828*
X02222Y01834*
X02215Y01837*
X02208Y01839*
G37*
G36*
X0209D02*
X02082D01*
X02075Y01837*
X02068Y01834*
X02063Y01828*
X02059Y01822*
X02057Y01814*
Y01807*
X02059Y01799*
X02063Y01793*
X02068Y01787*
X02075Y01784*
X02082Y01782*
X0209*
X02097Y01784*
X02104Y01787*
X02109Y01793*
X02113Y01799*
X02115Y01807*
Y01814*
X02113Y01822*
X02109Y01828*
X02104Y01834*
X02097Y01837*
X0209Y01839*
G37*
G36*
X02444Y01721D02*
X02437D01*
X02429Y01719*
X02423Y01716*
X02417Y0171*
X02413Y01704*
X02412Y01696*
Y01689*
X02413Y01681*
X02417Y01675*
X02423Y01669*
X02429Y01665*
X02437Y01663*
X02444*
X02452Y01665*
X02458Y01669*
X02464Y01675*
X02467Y01681*
X02469Y01689*
Y01696*
X02467Y01704*
X02464Y0171*
X02458Y01716*
X02452Y01719*
X02444Y01721*
G37*
G36*
X02326D02*
X02319D01*
X02311Y01719*
X02305Y01716*
X02299Y0171*
X02295Y01704*
X02293Y01696*
Y01689*
X02295Y01681*
X02299Y01675*
X02305Y01669*
X02311Y01665*
X02319Y01663*
X02326*
X02334Y01665*
X0234Y01669*
X02345Y01675*
X02349Y01681*
X02351Y01689*
Y01696*
X02349Y01704*
X02345Y0171*
X0234Y01716*
X02334Y01719*
X02326Y01721*
G37*
G36*
X02208D02*
X022D01*
X02193Y01719*
X02186Y01716*
X02181Y0171*
X02177Y01704*
X02175Y01696*
Y01689*
X02177Y01681*
X02181Y01675*
X02186Y01669*
X02193Y01665*
X022Y01663*
X02208*
X02215Y01665*
X02222Y01669*
X02227Y01675*
X02231Y01681*
X02233Y01689*
Y01696*
X02231Y01704*
X02227Y0171*
X02222Y01716*
X02215Y01719*
X02208Y01721*
G37*
G36*
X0209D02*
X02082D01*
X02075Y01719*
X02068Y01716*
X02063Y0171*
X02059Y01704*
X02057Y01696*
Y01689*
X02059Y01681*
X02063Y01675*
X02068Y01669*
X02075Y01665*
X02082Y01663*
X0209*
X02097Y01665*
X02104Y01669*
X02109Y01675*
X02113Y01681*
X02115Y01689*
Y01696*
X02113Y01704*
X02109Y0171*
X02104Y01716*
X02097Y01719*
X0209Y01721*
G37*
G36*
X02562Y01603D02*
X02555D01*
X02547Y01601*
X02541Y01597*
X02535Y01592*
X02532Y01585*
X0253Y01578*
Y0157*
X02532Y01563*
X02535Y01557*
X02541Y01551*
X02547Y01547*
X02555Y01545*
X02562*
X0257Y01547*
X02576Y01551*
X02582Y01557*
X02586Y01563*
X02587Y0157*
Y01578*
X02586Y01585*
X02582Y01592*
X02576Y01597*
X0257Y01601*
X02562Y01603*
G37*
G36*
X02444D02*
X02437D01*
X02429Y01601*
X02423Y01597*
X02417Y01592*
X02413Y01585*
X02412Y01578*
Y0157*
X02413Y01563*
X02417Y01557*
X02423Y01551*
X02429Y01547*
X02437Y01545*
X02444*
X02452Y01547*
X02458Y01551*
X02464Y01557*
X02467Y01563*
X02469Y0157*
Y01578*
X02467Y01585*
X02464Y01592*
X02458Y01597*
X02452Y01601*
X02444Y01603*
G37*
G36*
X02326D02*
X02319D01*
X02311Y01601*
X02305Y01597*
X02299Y01592*
X02295Y01585*
X02293Y01578*
Y0157*
X02295Y01563*
X02299Y01557*
X02305Y01551*
X02311Y01547*
X02319Y01545*
X02326*
X02334Y01547*
X0234Y01551*
X02345Y01557*
X02349Y01563*
X02351Y0157*
Y01578*
X02349Y01585*
X02345Y01592*
X0234Y01597*
X02334Y01601*
X02326Y01603*
G37*
G36*
X02208D02*
X022D01*
X02193Y01601*
X02186Y01597*
X02181Y01592*
X02177Y01585*
X02175Y01578*
Y0157*
X02177Y01563*
X02181Y01557*
X02186Y01551*
X02193Y01547*
X022Y01545*
X02208*
X02215Y01547*
X02222Y01551*
X02227Y01557*
X02231Y01563*
X02233Y0157*
Y01578*
X02231Y01585*
X02227Y01592*
X02222Y01597*
X02215Y01601*
X02208Y01603*
G37*
G36*
X0209D02*
X02082D01*
X02075Y01601*
X02068Y01597*
X02063Y01592*
X02059Y01585*
X02057Y01578*
Y0157*
X02059Y01563*
X02063Y01557*
X02068Y01551*
X02075Y01547*
X02082Y01545*
X0209*
X02097Y01547*
X02104Y01551*
X02109Y01557*
X02113Y01563*
X02115Y0157*
Y01578*
X02113Y01585*
X02109Y01592*
X02104Y01597*
X02097Y01601*
X0209Y01603*
G37*
G36*
X03539Y0271D02*
X03532D01*
X03524Y02708*
X03518Y02705*
X03512Y02699*
X03509Y02693*
X03507Y02685*
Y02678*
X03509Y0267*
X03512Y02664*
X03518Y02658*
X03524Y02655*
X03532Y02653*
X03539*
X03547Y02655*
X03553Y02658*
X03559Y02664*
X03562Y0267*
X03564Y02678*
Y02685*
X03562Y02693*
X03559Y02699*
X03553Y02705*
X03547Y02708*
X03539Y0271*
G37*
G36*
X03549Y02016D02*
X03542D01*
X03534Y02014*
X03528Y02011*
X03522Y02005*
X03519Y01999*
X03517Y01991*
Y01984*
X03519Y01976*
X03522Y0197*
X03528Y01964*
X03534Y01961*
X03542Y01959*
X03549*
X03557Y01961*
X03563Y01964*
X03569Y0197*
X03572Y01976*
X03574Y01984*
Y01991*
X03572Y01999*
X03569Y02005*
X03563Y02011*
X03557Y02014*
X03549Y02016*
G37*
%LNpcbfoc-3*%
%LPD*%
G54D49*
X0226Y03104D03*
G54D50*
X0233Y03033D03*
X02401Y02962D03*
X02472Y02891D03*
G54D51*
X02679Y03556D03*
X02447Y03511D03*
X03346Y01456D03*
Y01338D03*
X03405Y01397D03*
X03464Y01338D03*
X03523Y01397D03*
X03582Y01338D03*
Y01456D03*
X03464D03*
X03622Y01594D03*
Y01791D03*
Y01692D03*
Y02401D03*
Y02204D03*
Y02303D03*
Y02795D03*
Y02992D03*
Y02893D03*
X03641Y01397D03*
X037Y01456D03*
Y01338D03*
X0372Y01594D03*
X03671Y01643D03*
Y01742D03*
X0372Y01692D03*
Y02204D03*
Y01791D03*
X03759Y01397D03*
X03818Y01594D03*
Y01338D03*
Y01456D03*
X03771Y01642D03*
X03769Y01742D03*
X03818Y01692D03*
Y02204D03*
Y01791D03*
X03671Y02253D03*
Y02352D03*
X0372Y02303D03*
Y02401D03*
X03671Y02844D03*
Y02942D03*
X0372Y02795D03*
Y02992D03*
Y02893D03*
X03769Y02253D03*
Y02352D03*
X03818Y02303D03*
Y02401D03*
X03769Y02844D03*
Y02942D03*
X03818Y02795D03*
Y02992D03*
Y02893D03*
X02086Y01574D03*
X02204D03*
Y01692D03*
X02086Y01811D03*
Y01692D03*
X02204Y01811D03*
X02322Y01574D03*
X02559D03*
X0244D03*
X02322Y01811D03*
Y01929D03*
X0244Y01692D03*
X02322D03*
X02086Y01929D03*
X02204D03*
X02719Y01975D03*
X02154Y03261D03*
X02477Y02648D03*
X02563Y03528D03*
X02731Y02685D03*
Y02875D03*
X03267Y02086D03*
X03238Y02342D03*
Y02401D03*
X0315Y0263D03*
X03375Y01594D03*
Y01653D03*
X03316Y01771D03*
X03375Y01712D03*
Y01771D03*
X03257D03*
Y01712D03*
X03435Y01653D03*
X03494D03*
X03299Y02031D03*
X03297Y02401D03*
Y02283D03*
Y02342D03*
X03356Y02224D03*
Y02342D03*
Y02401D03*
Y02283D03*
X029Y03056D03*
X03084Y03184D03*
X03267Y02765D03*
X03326Y02824D03*
X03267Y02883D03*
Y02824D03*
X03326Y02883D03*
Y02765D03*
X03385D03*
Y02883D03*
Y02942D03*
Y02824D03*
X03216Y03321D03*
X03268Y02942D03*
X03326Y02942D03*
X03224Y03092D03*
X03238Y02283D03*
X03297Y02224D03*
X03238Y02224D03*
X03435Y01594D03*
X03494D03*
X03316Y01653D03*
Y01712D03*
X03149Y02204D03*
X03109Y02252D03*
X03458Y0306D03*
X03356Y02523D03*
X03154Y02569D03*
X03015Y0265D03*
X0309Y02992D03*
X02395Y03185D03*
X0235Y03225D03*
X03279Y03493D03*
X02779Y03009D03*
X0295Y03105D03*
X021Y021D03*
X022Y022D03*
Y021D03*
X021Y023D03*
Y024D03*
Y022D03*
X022Y023D03*
X023Y021D03*
X02435Y037D03*
X0297Y02836D03*
X02641Y02007D03*
X0254Y03428D03*
X03546Y01988D03*
X0285Y0368D03*
X02731Y02748D03*
X02785Y0293D03*
X0285Y03545D03*
X02899Y02911D03*
X0285Y03615D03*
X03015Y0278D03*
X03Y0336D03*
X02733Y02808D03*
X03014Y03418D03*
X03015Y02715D03*
X02965Y0349D03*
X03536Y02682D03*
X03344Y01992D03*
G54D52*
X02774Y02117D03*
Y0205D03*
Y02182D03*
X0266Y03395D03*
X02923Y02688D03*
X0261Y03375D03*
X027Y03729D03*
X0276Y03394D03*
X027Y0368D03*
X0271Y03395D03*
X027Y0363D03*
G54D53*
X02778Y02445D03*
Y02396D03*
X0287Y02354D03*
X0282D03*
Y02396D03*
Y02445D03*
X0287Y02396D03*
Y02445D03*
X02778Y02495D03*
X0282D03*
X0287D03*
Y02537D03*
X0282D03*
X02919Y02396D03*
Y02354D03*
X02961Y02396D03*
X02919Y02495D03*
Y02445D03*
X02961Y02495D03*
X02919Y02537D03*
X02961Y02445D03*
G54D54*
X01968Y01279D03*
X04035Y03838D03*
Y01279D03*
X01968Y03838D03*
M02*