%FSTAX23Y23*%
%MOIN*%
%SFA1B1*%

%IPPOS*%
%AMD49*
4,1,4,0.000000,0.043100,-0.043100,0.000000,0.000000,-0.043100,0.043100,0.000000,0.000000,0.043100,0.0*
%
G04~CAMADD=49~10~0.0~610.2~0.0~0.0~0.0~0.0~0~0.0~0.0~0.0~0.0~0~0.0~0.0~0.0~0.0~0~0.0~0.0~0.0~405.0~610.2~0.0*
%ADD49D49*%
%ADD50C,0.061020*%
%ADD51C,0.050000*%
%ADD52C,0.039370*%
%ADD53C,0.019680*%
%ADD54C,0.118110*%
%LNpcbfoc-1*%
%LPD*%
G54D49*
X0226Y03104D03*
G54D50*
X0233Y03033D03*
X02401Y02962D03*
X02472Y02891D03*
G54D51*
X02679Y03556D03*
X02447Y03511D03*
X03346Y01456D03*
Y01338D03*
X03405Y01397D03*
X03464Y01338D03*
X03523Y01397D03*
X03582Y01338D03*
Y01456D03*
X03464D03*
X03622Y01594D03*
Y01791D03*
Y01692D03*
Y02401D03*
Y02204D03*
Y02303D03*
Y02795D03*
Y02992D03*
Y02893D03*
X03641Y01397D03*
X037Y01456D03*
Y01338D03*
X0372Y01594D03*
X03671Y01643D03*
Y01742D03*
X0372Y01692D03*
Y02204D03*
Y01791D03*
X03759Y01397D03*
X03818Y01594D03*
Y01338D03*
Y01456D03*
X03771Y01642D03*
X03769Y01742D03*
X03818Y01692D03*
Y02204D03*
Y01791D03*
X03671Y02253D03*
Y02352D03*
X0372Y02303D03*
Y02401D03*
X03671Y02844D03*
Y02942D03*
X0372Y02795D03*
Y02992D03*
Y02893D03*
X03769Y02253D03*
Y02352D03*
X03818Y02303D03*
Y02401D03*
X03769Y02844D03*
Y02942D03*
X03818Y02795D03*
Y02992D03*
Y02893D03*
X02086Y01574D03*
X02204D03*
Y01692D03*
X02086Y01811D03*
Y01692D03*
X02204Y01811D03*
X02322Y01574D03*
X02559D03*
X0244D03*
X02322Y01811D03*
Y01929D03*
X0244Y01692D03*
X02322D03*
X02086Y01929D03*
X02204D03*
X02719Y01975D03*
X02154Y03261D03*
X02477Y02648D03*
X02563Y03528D03*
X02731Y02685D03*
Y02875D03*
X03267Y02086D03*
X03238Y02342D03*
Y02401D03*
X0315Y0263D03*
X03375Y01594D03*
Y01653D03*
X03316Y01771D03*
X03375Y01712D03*
Y01771D03*
X03257D03*
Y01712D03*
X03435Y01653D03*
X03494D03*
X03299Y02031D03*
X03297Y02401D03*
Y02283D03*
Y02342D03*
X03356Y02224D03*
Y02342D03*
Y02401D03*
Y02283D03*
X029Y03056D03*
X03084Y03184D03*
X03267Y02765D03*
X03326Y02824D03*
X03267Y02883D03*
Y02824D03*
X03326Y02883D03*
Y02765D03*
X03385D03*
Y02883D03*
Y02942D03*
Y02824D03*
X03216Y03321D03*
X03268Y02942D03*
X03326Y02942D03*
X03224Y03092D03*
X03238Y02283D03*
X03297Y02224D03*
X03238Y02224D03*
X03435Y01594D03*
X03494D03*
X03316Y01653D03*
Y01712D03*
X03149Y02204D03*
X03109Y02252D03*
X03458Y0306D03*
X03356Y02523D03*
X03154Y02569D03*
X03015Y0265D03*
X0309Y02992D03*
X02395Y03185D03*
X0235Y03225D03*
X03279Y03493D03*
X02779Y03009D03*
X0295Y03105D03*
X021Y021D03*
X022Y022D03*
Y021D03*
X021Y023D03*
Y024D03*
Y022D03*
X022Y023D03*
X023Y021D03*
X02435Y037D03*
X0297Y02836D03*
X02641Y02007D03*
X0254Y03428D03*
X03546Y01988D03*
X0285Y0368D03*
X02731Y02748D03*
X02785Y0293D03*
X0285Y03545D03*
X02899Y02911D03*
X0285Y03615D03*
X03015Y0278D03*
X03Y0336D03*
X02733Y02808D03*
X03014Y03418D03*
X03015Y02715D03*
X02965Y0349D03*
X03536Y02682D03*
X03344Y01992D03*
G54D52*
X02774Y02117D03*
Y0205D03*
Y02182D03*
X0266Y03395D03*
X02923Y02688D03*
X0261Y03375D03*
X027Y03729D03*
X0276Y03394D03*
X027Y0368D03*
X0271Y03395D03*
X027Y0363D03*
G54D53*
X02778Y02445D03*
Y02396D03*
X0287Y02354D03*
X0282D03*
Y02396D03*
Y02445D03*
X0287Y02396D03*
Y02445D03*
X02778Y02495D03*
X0282D03*
X0287D03*
Y02537D03*
X0282D03*
X02919Y02396D03*
Y02354D03*
X02961Y02396D03*
X02919Y02495D03*
Y02445D03*
X02961Y02495D03*
X02919Y02537D03*
X02961Y02445D03*
G54D54*
X01968Y01279D03*
X04035Y03838D03*
Y01279D03*
X01968Y03838D03*
M02*