%FSTAX23Y23*%
%MOIN*%
%SFA1B1*%

%IPPOS*%
%AMD49*
4,1,4,0.000000,0.043100,-0.043100,0.000000,0.000000,-0.043100,0.043100,0.000000,0.000000,0.043100,0.0*
%
G04~CAMADD=49~10~0.0~610.2~0.0~0.0~0.0~0.0~0~0.0~0.0~0.0~0.0~0~0.0~0.0~0.0~0.0~0~0.0~0.0~0.0~405.0~610.2~0.0*
%ADD49D49*%
%ADD50C,0.061020*%
%ADD51C,0.118110*%
%ADD52C,0.050000*%
%ADD53C,0.039370*%
%ADD54C,0.019680*%
%LNpcbfoc-1*%
%LPD*%
G36*
X03966Y03831D02*
X03969Y03818D01*
X03974Y03805*
X03981Y03794*
X03991Y03784*
X04002Y03777*
X04015Y03772*
X04028Y03769*
X04035*
Y01348*
X04028*
X04015Y01345*
X04002Y0134*
X03991Y01333*
X03981Y01323*
X03974Y01312*
X03969Y01299*
X03966Y01286*
Y01279*
X02037*
Y01286*
X02034Y01299*
X02029Y01312*
X02022Y01323*
X02012Y01333*
X02001Y0134*
X01988Y01345*
X01975Y01348*
X01967*
Y03769*
X01975*
X01988Y03772*
X02001Y03777*
X02012Y03784*
X02022Y03794*
X02029Y03805*
X02034Y03818*
X02037Y03831*
Y03838*
X03966*
Y03831*
G37*
%LNpcbfoc-2*%
%LPC*%
G36*
X02438Y03728D02*
X02431D01*
X02423Y03726*
X02417Y03723*
X02411Y03717*
X02408Y03711*
X02406Y03703*
Y03696*
X02408Y03688*
X02411Y03682*
X02417Y03676*
X02423Y03673*
X02431Y03671*
X02438*
X02446Y03673*
X02452Y03676*
X02458Y03682*
X02461Y03688*
X02463Y03696*
Y03703*
X02461Y03711*
X02458Y03717*
X02452Y03723*
X02446Y03726*
X02438Y03728*
G37*
G36*
X02704Y03752D02*
X02695D01*
X02686Y03749*
X02679Y03742*
X02676Y03734*
Y03724*
X02679Y03715*
X02685Y0371*
X02686Y03704*
X02685Y03698*
X02679Y03693*
X02676Y03684*
Y03675*
X02679Y03666*
X02686Y0366*
X02686Y03655*
X02686Y03649*
X02679Y03643*
X02676Y03634*
Y03625*
X02679Y03616*
X02686Y03609*
X02695Y03606*
X02704*
X02713Y03609*
X0272Y03616*
X02723Y03625*
Y03634*
X0272Y03643*
X02714Y03649*
X02713Y03655*
X02714Y0366*
X0272Y03666*
X02723Y03675*
Y03684*
X0272Y03693*
X02714Y03698*
X02713Y03704*
X02714Y0371*
X0272Y03715*
X02723Y03724*
Y03734*
X0272Y03742*
X02713Y03749*
X02704Y03752*
G37*
G36*
X02853Y03708D02*
X02846D01*
X02838Y03706*
X02832Y03703*
X02826Y03697*
X02823Y03691*
X02821Y03683*
Y03676*
X02823Y03668*
X02826Y03662*
X02832Y03656*
X02838Y03653*
X0284Y03652*
Y03642*
X02838Y03641*
X02832Y03638*
X02826Y03632*
X02823Y03626*
X02821Y03618*
Y03611*
X02823Y03603*
X02826Y03597*
X02832Y03591*
X02838Y03588*
X02846Y03586*
X02853*
X02861Y03588*
X02867Y03591*
X02873Y03597*
X02876Y03603*
X02878Y03611*
Y03618*
X02876Y03626*
X02873Y03632*
X02867Y03638*
X02861Y03641*
X02859Y03642*
Y03652*
X02861Y03653*
X02867Y03656*
X02873Y03662*
X02876Y03668*
X02878Y03676*
Y03683*
X02876Y03691*
X02873Y03697*
X02867Y03703*
X02861Y03706*
X02853Y03708*
G37*
G36*
X02657Y03609D02*
X0265D01*
X02642Y03607*
X02636Y03604*
X0263Y03598*
X02627Y03592*
X02625Y03584*
Y03577*
X02627Y03569*
X0263Y03563*
X02636Y03557*
X02642Y03554*
X0265Y03552*
X02657*
X02665Y03554*
X02671Y03557*
X02677Y03563*
X0268Y03569*
X02682Y03577*
Y03584*
X0268Y03592*
X02677Y03598*
X02671Y03604*
X02665Y03607*
X02657Y03609*
G37*
G36*
X02853Y03573D02*
X02846D01*
X02838Y03571*
X02832Y03568*
X02826Y03562*
X02823Y03556*
X02821Y03548*
Y03541*
X02823Y03533*
X02826Y03527*
X02832Y03521*
X02838Y03518*
X02846Y03516*
X02853*
X02861Y03518*
X02867Y03521*
X02873Y03527*
X02876Y03533*
X02878Y03541*
Y03548*
X02876Y03556*
X02873Y03562*
X02867Y03568*
X02861Y03571*
X02853Y03573*
G37*
G36*
X03282Y03521D02*
X03275D01*
X03267Y03519*
X03261Y03516*
X03255Y0351*
X03252Y03504*
X0325Y03496*
Y03489*
X03252Y03481*
X03255Y03475*
X03261Y03469*
X03267Y03466*
X03275Y03464*
X03282*
X0329Y03466*
X03296Y03469*
X03302Y03475*
X03305Y03481*
X03307Y03489*
Y03496*
X03305Y03504*
X03302Y0351*
X03296Y03516*
X0329Y03519*
X03282Y03521*
G37*
G36*
X02968Y03518D02*
X02961D01*
X02953Y03516*
X02947Y03513*
X02941Y03507*
X02938Y03501*
X02936Y03493*
Y03486*
X02938Y03478*
X02941Y03472*
X02947Y03466*
X02953Y03463*
X02961Y03461*
X02968*
X02976Y03463*
X02982Y03466*
X02988Y03472*
X02991Y03478*
X02993Y03486*
Y03493*
X02991Y03501*
X02988Y03507*
X02982Y03513*
X02976Y03516*
X02968Y03518*
G37*
G36*
X02544Y03457D02*
X02536D01*
X02529Y03455*
X02522Y03451*
X02517Y03446*
X02513Y03439*
X02511Y03432*
Y03424*
X02513Y03417*
X02517Y0341*
X02522Y03405*
X02529Y03401*
X02536Y03399*
X02544*
X02551Y03401*
X02558Y03405*
X02563Y0341*
X02567Y03417*
X02569Y03424*
Y03432*
X02567Y03439*
X02563Y03446*
X02558Y03451*
X02551Y03455*
X02544Y03457*
G37*
G36*
X02714Y03418D02*
X02705D01*
X02696Y03415*
X02689Y03408*
X02686Y03399*
Y0339*
X02689Y03381*
X02696Y03374*
X02705Y03371*
X02714*
X02723Y03374*
X02729Y0338*
X02739Y03381*
X0274*
X02746Y03374*
X02755Y03371*
X02764*
X02773Y03374*
X0278Y03381*
X02783Y0339*
Y03399*
X0278Y03408*
X02773Y03414*
X02764Y03418*
X02755*
X02746Y03414*
X0274Y03408*
X0273Y03408*
X0273*
X02723Y03415*
X02714Y03418*
G37*
G36*
X02614Y03398D02*
X02605D01*
X02596Y03395*
X02589Y03388*
X02586Y03379*
Y0337*
X02589Y03361*
X02596Y03354*
X02605Y03351*
X02614*
X02623Y03354*
X0263Y03361*
X02633Y0337*
Y03379*
X0263Y03388*
X02623Y03395*
X02614Y03398*
G37*
G36*
X03018Y03447D02*
X0301D01*
X03003Y03445*
X02996Y03441*
X02991Y03435*
X02987Y03429*
X02985Y03422*
Y03414*
X02987Y03407*
X02991Y034*
X02993Y03398*
X0299Y03387*
X02988Y03386*
X02982Y03383*
X02976Y03377*
X02973Y03371*
X02971Y03363*
Y03356*
X02973Y03348*
X02976Y03342*
X02982Y03336*
X02988Y03333*
X02996Y03331*
X03003*
X03011Y03333*
X03017Y03336*
X03023Y03342*
X03026Y03348*
X03028Y03356*
Y03363*
X03026Y03371*
X03023Y03377*
X03021Y03379*
X03023Y0339*
X03025Y03391*
X03032Y03395*
X03037Y034*
X03041Y03407*
X03043Y03414*
Y03422*
X03041Y03429*
X03037Y03435*
X03032Y03441*
X03025Y03445*
X03018Y03447*
G37*
G36*
X02353Y03253D02*
X02346D01*
X02338Y03251*
X02332Y03248*
X02326Y03242*
X02323Y03236*
X02321Y03228*
Y03221*
X02323Y03213*
X02326Y03207*
X02332Y03201*
X02338Y03198*
X02346Y03196*
X02353*
X02357Y03197*
X02364Y03191*
X02366Y03189*
X02366Y03188*
Y03181*
X02368Y03173*
X02371Y03167*
X02377Y03161*
X02383Y03158*
X02391Y03156*
X02398*
X02406Y03158*
X02412Y03161*
X02418Y03167*
X02421Y03173*
X02423Y03181*
Y03188*
X02421Y03196*
X02418Y03202*
X02412Y03208*
X02406Y03211*
X02398Y03213*
X02391*
X02387Y03212*
X0238Y03218*
X02378Y0322*
X02378Y03221*
Y03228*
X02376Y03236*
X02373Y03242*
X02367Y03248*
X02361Y03251*
X02353Y03253*
G37*
G36*
X02953Y03133D02*
X02946D01*
X02938Y03131*
X02932Y03128*
X02926Y03122*
X02923Y03116*
X02921Y03108*
Y03101*
X02923Y03093*
X02926Y03087*
X02932Y03081*
X02938Y03078*
X02946Y03076*
X02953*
X02961Y03078*
X02967Y03081*
X02973Y03087*
X02976Y03093*
X02978Y03101*
Y03108*
X02976Y03116*
X02973Y03122*
X02967Y03128*
X02961Y03131*
X02953Y03133*
G37*
G36*
X03461Y03085D02*
X03454D01*
X03446Y03083*
X0344Y0308*
X03434Y03074*
X03431Y03068*
X03429Y0306*
Y03053*
X03431Y03045*
X03434Y03039*
X0344Y03033*
X03446Y0303*
X03454Y03028*
X03461*
X03469Y0303*
X03475Y03033*
X03481Y03039*
X03484Y03045*
X03486Y03053*
Y0306*
X03484Y03068*
X03481Y03074*
X03475Y0308*
X03469Y03083*
X03461Y03085*
G37*
G36*
X02335Y03067D02*
X02326D01*
X02317Y03065*
X02309Y0306*
X02303Y03054*
X02298Y03046*
X02296Y03037*
Y03028*
X02298Y0302*
X02303Y03012*
X02309Y03005*
X02317Y03001*
X02326Y02998*
X02335*
X02344Y03001*
X02352Y03005*
X02358Y03012*
X02362Y0302*
X02365Y03028*
Y03037*
X02362Y03046*
X02358Y03054*
X02352Y0306*
X02344Y03065*
X02335Y03067*
G37*
G36*
X02783Y03038D02*
X02775D01*
X02768Y03036*
X02761Y03032*
X02756Y03027*
X02752Y0302*
X0275Y03013*
Y03005*
X02752Y02998*
X02756Y02992*
X02761Y02986*
X02768Y02982*
X02775Y0298*
X02783*
X0279Y02982*
X02797Y02986*
X02802Y02992*
X02806Y02998*
X02808Y03005*
Y03013*
X02806Y0302*
X02802Y03027*
X02797Y03032*
X0279Y03036*
X02783Y03038*
G37*
G36*
X03253Y03028D02*
X03246D01*
X03238Y03026*
X03232Y03023*
X03226Y03017*
X03223Y03011*
X03221Y03003*
Y02996*
X03223Y02988*
X03226Y02982*
X03232Y02976*
X03238Y02973*
X03246Y02971*
X03253*
X03261Y02973*
X03267Y02976*
X03273Y02982*
X03276Y02988*
X03278Y02996*
Y03003*
X03276Y03011*
X03273Y03017*
X03267Y03023*
X03261Y03026*
X03253Y03028*
G37*
G36*
X03822Y03021D02*
X03815D01*
X03807Y03019*
X03801Y03015*
X03795Y03009*
X03791Y03003*
X03789Y02995*
Y02988*
X03791Y0298*
X03795Y02974*
X03801Y02968*
X03807Y02965*
X03815Y02963*
X03822*
X0383Y02965*
X03836Y02968*
X03842Y02974*
X03845Y0298*
X03847Y02988*
Y02995*
X03845Y03003*
X03842Y03009*
X03836Y03015*
X0383Y03019*
X03822Y03021*
G37*
G36*
X03724D02*
X03716D01*
X03709Y03019*
X03702Y03015*
X03697Y03009*
X03693Y03003*
X03691Y02995*
Y02988*
X03693Y0298*
X03697Y02974*
X03702Y02968*
X03709Y02965*
X03716Y02963*
X03724*
X03731Y02965*
X03738Y02968*
X03743Y02974*
X03747Y0298*
X03749Y02988*
Y02995*
X03747Y03003*
X03743Y03009*
X03738Y03015*
X03731Y03019*
X03724Y03021*
G37*
G36*
X03625D02*
X03618D01*
X0361Y03019*
X03604Y03015*
X03598Y03009*
X03595Y03003*
X03593Y02995*
Y02988*
X03595Y0298*
X03598Y02974*
X03604Y02968*
X0361Y02965*
X03618Y02963*
X03625*
X03633Y02965*
X03639Y02968*
X03645Y02974*
X03649Y0298*
X0365Y02988*
Y02995*
X03649Y03003*
X03645Y03009*
X03639Y03015*
X03633Y03019*
X03625Y03021*
G37*
G36*
X02406Y02997D02*
X02397D01*
X02388Y02994*
X0238Y0299*
X02374Y02983*
X02369Y02975*
X02367Y02967*
Y02958*
X02369Y02949*
X02374Y02941*
X0238Y02935*
X02388Y0293*
X02397Y02928*
X02406*
X02414Y0293*
X02422Y02935*
X02429Y02941*
X02433Y02949*
X02436Y02958*
Y02967*
X02433Y02975*
X02429Y02983*
X02422Y0299*
X02414Y02994*
X02406Y02997*
G37*
G36*
X03773Y02971D02*
X03765D01*
X03758Y02969*
X03751Y02966*
X03746Y0296*
X03742Y02954*
X0374Y02946*
Y02939*
X03742Y02931*
X03746Y02925*
X03751Y02919*
X03758Y02915*
X03765Y02913*
X03773*
X0378Y02915*
X03787Y02919*
X03792Y02925*
X03796Y02931*
X03798Y02939*
Y02946*
X03796Y02954*
X03792Y0296*
X03787Y02966*
X0378Y02969*
X03773Y02971*
G37*
G36*
X03675D02*
X03667D01*
X0366Y02969*
X03653Y02966*
X03648Y0296*
X03644Y02954*
X03642Y02946*
Y02939*
X03644Y02931*
X03648Y02925*
X03653Y02919*
X0366Y02915*
X03667Y02913*
X03675*
X03682Y02915*
X03689Y02919*
X03694Y02925*
X03698Y02931*
X037Y02939*
Y02946*
X03698Y02954*
X03694Y0296*
X03689Y02966*
X03682Y02969*
X03675Y02971*
G37*
G36*
X02788Y02958D02*
X02781D01*
X02773Y02956*
X02767Y02953*
X02761Y02947*
X02758Y02941*
X02756Y02933*
Y02926*
X02758Y02918*
X02761Y02912*
X02767Y02906*
X02773Y02903*
X02781Y02901*
X02788*
X02796Y02903*
X02802Y02906*
X02808Y02912*
X02811Y02918*
X02813Y02926*
Y02933*
X02811Y02941*
X02808Y02947*
X02802Y02953*
X02796Y02956*
X02788Y02958*
G37*
G36*
X02902Y02939D02*
X02895D01*
X02887Y02937*
X02881Y02934*
X02875Y02928*
X02872Y02922*
X0287Y02914*
Y02907*
X02872Y02899*
X02875Y02893*
X02881Y02887*
X02887Y02884*
X02895Y02882*
X02902*
X0291Y02884*
X02916Y02887*
X02922Y02893*
X02925Y02899*
X02927Y02907*
Y02914*
X02925Y02922*
X02922Y02928*
X02916Y02934*
X0291Y02937*
X02902Y02939*
G37*
G36*
X03822Y02922D02*
X03815D01*
X03807Y0292*
X03801Y02916*
X03795Y02911*
X03791Y02904*
X03789Y02897*
Y02889*
X03791Y02882*
X03795Y02875*
X03801Y0287*
X03807Y02866*
X03815Y02864*
X03822*
X0383Y02866*
X03836Y0287*
X03842Y02875*
X03845Y02882*
X03847Y02889*
Y02897*
X03845Y02904*
X03842Y02911*
X03836Y02916*
X0383Y0292*
X03822Y02922*
G37*
G36*
X03724D02*
X03716D01*
X03709Y0292*
X03702Y02916*
X03697Y02911*
X03693Y02904*
X03691Y02897*
Y02889*
X03693Y02882*
X03697Y02875*
X03702Y0287*
X03709Y02866*
X03716Y02864*
X03724*
X03731Y02866*
X03738Y0287*
X03743Y02875*
X03747Y02882*
X03749Y02889*
Y02897*
X03747Y02904*
X03743Y02911*
X03738Y02916*
X03731Y0292*
X03724Y02922*
G37*
G36*
X03625D02*
X03618D01*
X0361Y0292*
X03604Y02916*
X03598Y02911*
X03595Y02904*
X03593Y02897*
Y02889*
X03595Y02882*
X03598Y02875*
X03604Y0287*
X0361Y02866*
X03618Y02864*
X03625*
X03633Y02866*
X03639Y0287*
X03645Y02875*
X03649Y02882*
X0365Y02889*
Y02897*
X03649Y02904*
X03645Y02911*
X03639Y02916*
X03633Y0292*
X03625Y02922*
G37*
G36*
X02476Y02926D02*
X02467D01*
X02458Y02923*
X02451Y02919*
X02444Y02913*
X0244Y02905*
X02437Y02896*
Y02887*
X0244Y02878*
X02444Y0287*
X02451Y02864*
X02458Y02859*
X02467Y02857*
X02476*
X02485Y02859*
X02493Y02864*
X02499Y0287*
X02504Y02878*
X02506Y02887*
Y02896*
X02504Y02905*
X02499Y02913*
X02493Y02919*
X02485Y02923*
X02476Y02926*
G37*
G36*
X03773Y02873D02*
X03765D01*
X03758Y02871*
X03751Y02867*
X03746Y02862*
X03742Y02855*
X0374Y02848*
Y0284*
X03742Y02833*
X03746Y02826*
X03751Y02821*
X03758Y02817*
X03765Y02815*
X03773*
X0378Y02817*
X03787Y02821*
X03792Y02826*
X03796Y02833*
X03798Y0284*
Y02848*
X03796Y02855*
X03792Y02862*
X03787Y02867*
X0378Y02871*
X03773Y02873*
G37*
G36*
X03675D02*
X03667D01*
X0366Y02871*
X03653Y02867*
X03648Y02862*
X03644Y02855*
X03642Y02848*
Y0284*
X03644Y02833*
X03648Y02826*
X03653Y02821*
X0366Y02817*
X03667Y02815*
X03675*
X03682Y02817*
X03689Y02821*
X03694Y02826*
X03698Y02833*
X037Y0284*
Y02848*
X03698Y02855*
X03694Y02862*
X03689Y02867*
X03682Y02871*
X03675Y02873*
G37*
G36*
X02973Y02864D02*
X02966D01*
X02958Y02862*
X02952Y02859*
X02946Y02853*
X02943Y02847*
X02941Y02839*
Y02832*
X02943Y02824*
X02946Y02818*
X02952Y02812*
X02958Y02809*
X02966Y02807*
X02973*
X02981Y02809*
X02987Y02812*
X02993Y02818*
X02996Y02824*
X02998Y02832*
Y02839*
X02996Y02847*
X02993Y02853*
X02987Y02859*
X02981Y02862*
X02973Y02864*
G37*
G36*
X03822Y02824D02*
X03815D01*
X03807Y02822*
X03801Y02818*
X03795Y02813*
X03791Y02806*
X03789Y02799*
Y02791*
X03791Y02784*
X03795Y02777*
X03801Y02772*
X03807Y02768*
X03815Y02766*
X03822*
X0383Y02768*
X03836Y02772*
X03842Y02777*
X03845Y02784*
X03847Y02791*
Y02799*
X03845Y02806*
X03842Y02813*
X03836Y02818*
X0383Y02822*
X03822Y02824*
G37*
G36*
X03724D02*
X03716D01*
X03709Y02822*
X03702Y02818*
X03697Y02813*
X03693Y02806*
X03691Y02799*
Y02791*
X03693Y02784*
X03697Y02777*
X03702Y02772*
X03709Y02768*
X03716Y02766*
X03724*
X03731Y02768*
X03738Y02772*
X03743Y02777*
X03747Y02784*
X03749Y02791*
Y02799*
X03747Y02806*
X03743Y02813*
X03738Y02818*
X03731Y02822*
X03724Y02824*
G37*
G36*
X03625D02*
X03618D01*
X0361Y02822*
X03604Y02818*
X03598Y02813*
X03595Y02806*
X03593Y02799*
Y02791*
X03595Y02784*
X03598Y02777*
X03604Y02772*
X0361Y02768*
X03618Y02766*
X03625*
X03633Y02768*
X03639Y02772*
X03645Y02777*
X03649Y02784*
X0365Y02791*
Y02799*
X03649Y02806*
X03645Y02813*
X03639Y02818*
X03633Y02822*
X03625Y02824*
G37*
G36*
X02737Y02837D02*
X02729D01*
X02722Y02835*
X02715Y02831*
X0271Y02826*
X02706Y02819*
X02704Y02812*
Y02804*
X02706Y02797*
X0271Y0279*
X02715Y02785*
X02717Y02784*
X02717Y02783*
X02716Y02772*
X02713Y02771*
X02708Y02766*
X02704Y02759*
X02702Y02752*
Y02744*
X02704Y02737*
X02708Y0273*
X02713Y02725*
X0272Y02721*
X02727Y02719*
X02735*
X02742Y02721*
X02749Y02725*
X02754Y0273*
X02758Y02737*
X0276Y02744*
Y02752*
X02758Y02759*
X02754Y02766*
X02749Y02771*
X02747Y02772*
X02747Y02772*
X02748Y02783*
X02751Y02785*
X02756Y0279*
X0276Y02797*
X02762Y02804*
Y02812*
X0276Y02819*
X02756Y02826*
X02751Y02831*
X02744Y02835*
X02737Y02837*
G37*
G36*
X03539Y0271D02*
X03532D01*
X03524Y02708*
X03518Y02705*
X03512Y02699*
X03509Y02693*
X03507Y02685*
Y02678*
X03509Y0267*
X03512Y02664*
X03518Y02658*
X03524Y02655*
X03532Y02653*
X03539*
X03547Y02655*
X03553Y02658*
X03559Y02664*
X03562Y0267*
X03564Y02678*
Y02685*
X03562Y02693*
X03559Y02699*
X03553Y02705*
X03547Y02708*
X03539Y0271*
G37*
G36*
X03018Y02808D02*
X03011D01*
X03003Y02806*
X02997Y02803*
X02991Y02797*
X02988Y02791*
X02986Y02783*
Y02776*
X02988Y02768*
X02991Y02762*
X02997Y02756*
X03003Y02753*
X03005Y02752*
Y02742*
X03003Y02741*
X02997Y02738*
X02991Y02732*
X02988Y02726*
X02986Y02718*
Y02711*
X02988Y02703*
X02991Y02697*
X02997Y02691*
X03003Y02688*
X03005Y02687*
Y02677*
X03003Y02676*
X02997Y02673*
X02991Y02667*
X02988Y02661*
X02986Y02653*
Y02646*
X02988Y02638*
X02991Y02632*
X02997Y02626*
X03003Y02623*
X03011Y02621*
X03018*
X03026Y02623*
X03032Y02626*
X03038Y02632*
X03041Y02638*
X03043Y02646*
Y02653*
X03041Y02661*
X03038Y02667*
X03032Y02673*
X03026Y02676*
X03024Y02677*
Y02687*
X03026Y02688*
X03032Y02691*
X03038Y02697*
X03041Y02703*
X03043Y02711*
Y02718*
X03041Y02726*
X03038Y02732*
X03032Y02738*
X03026Y02741*
X03024Y02742*
Y02752*
X03026Y02753*
X03032Y02756*
X03038Y02762*
X03041Y02768*
X03043Y02776*
Y02783*
X03041Y02791*
X03038Y02797*
X03032Y02803*
X03026Y02806*
X03018Y02808*
G37*
G36*
X03157Y02597D02*
X0315D01*
X03142Y02595*
X03136Y02592*
X0313Y02586*
X03127Y0258*
X03125Y02572*
Y02565*
X03127Y02557*
X0313Y02551*
X03136Y02545*
X03142Y02542*
X0315Y0254*
X03157*
X03165Y02542*
X03171Y02545*
X03177Y02551*
X0318Y02557*
X03182Y02565*
Y02572*
X0318Y0258*
X03177Y02586*
X03171Y02592*
X03165Y02595*
X03157Y02597*
G37*
G36*
X03359Y02551D02*
X03352D01*
X03344Y02549*
X03338Y02546*
X03332Y0254*
X03329Y02534*
X03327Y02526*
Y02519*
X03329Y02511*
X03332Y02505*
X03338Y02499*
X03344Y02496*
X03352Y02494*
X03359*
X03367Y02496*
X03373Y02499*
X03379Y02505*
X03382Y02511*
X03384Y02519*
Y02526*
X03382Y02534*
X03379Y0254*
X03373Y02546*
X03367Y02549*
X03359Y02551*
G37*
G36*
X03822Y0243D02*
X03815D01*
X03807Y02428*
X03801Y02424*
X03795Y02419*
X03791Y02412*
X03789Y02405*
Y02397*
X03791Y0239*
X03795Y02383*
X03801Y02378*
X03807Y02374*
X03815Y02372*
X03822*
X0383Y02374*
X03836Y02378*
X03842Y02383*
X03845Y0239*
X03847Y02397*
Y02405*
X03845Y02412*
X03842Y02419*
X03836Y02424*
X0383Y02428*
X03822Y0243*
G37*
G36*
X03724D02*
X03716D01*
X03709Y02428*
X03702Y02424*
X03697Y02419*
X03693Y02412*
X03691Y02405*
Y02397*
X03693Y0239*
X03697Y02383*
X03702Y02378*
X03709Y02374*
X03716Y02372*
X03724*
X03731Y02374*
X03738Y02378*
X03743Y02383*
X03747Y0239*
X03749Y02397*
Y02405*
X03747Y02412*
X03743Y02419*
X03738Y02424*
X03731Y02428*
X03724Y0243*
G37*
G36*
X03625D02*
X03618D01*
X0361Y02428*
X03604Y02424*
X03598Y02419*
X03595Y02412*
X03593Y02405*
Y02397*
X03595Y0239*
X03598Y02383*
X03604Y02378*
X0361Y02374*
X03618Y02372*
X03625*
X03633Y02374*
X03639Y02378*
X03645Y02383*
X03649Y0239*
X0365Y02397*
Y02405*
X03649Y02412*
X03645Y02419*
X03639Y02424*
X03633Y02428*
X03625Y0243*
G37*
G36*
X02103Y02428D02*
X02096D01*
X02088Y02426*
X02082Y02423*
X02076Y02417*
X02073Y02411*
X02071Y02403*
Y02396*
X02073Y02388*
X02076Y02382*
X02082Y02376*
X02088Y02373*
X02096Y02371*
X02103*
X02111Y02373*
X02117Y02376*
X02123Y02382*
X02126Y02388*
X02128Y02396*
Y02403*
X02126Y02411*
X02123Y02417*
X02117Y02423*
X02111Y02426*
X02103Y02428*
G37*
G36*
X03773Y02381D02*
X03765D01*
X03758Y02379*
X03751Y02375*
X03746Y0237*
X03742Y02363*
X0374Y02356*
Y02348*
X03742Y02341*
X03746Y02334*
X03751Y02329*
X03758Y02325*
X03765Y02323*
X03773*
X0378Y02325*
X03787Y02329*
X03792Y02334*
X03796Y02341*
X03798Y02348*
Y02356*
X03796Y02363*
X03792Y0237*
X03787Y02375*
X0378Y02379*
X03773Y02381*
G37*
G36*
X03675D02*
X03667D01*
X0366Y02379*
X03653Y02375*
X03648Y0237*
X03644Y02363*
X03642Y02356*
Y02348*
X03644Y02341*
X03648Y02334*
X03653Y02329*
X0366Y02325*
X03667Y02323*
X03675*
X03682Y02325*
X03689Y02329*
X03694Y02334*
X03698Y02341*
X037Y02348*
Y02356*
X03698Y02363*
X03694Y0237*
X03689Y02375*
X03682Y02379*
X03675Y02381*
G37*
G36*
X03139Y02333D02*
X03132D01*
X03124Y02331*
X03118Y02328*
X03112Y02322*
X03109Y02316*
X03107Y02308*
Y02301*
X03109Y02293*
X03112Y02287*
X03118Y02281*
X03124Y02278*
X03132Y02276*
X03139*
X03147Y02278*
X03153Y02281*
X03159Y02287*
X03162Y02293*
X03164Y02301*
Y02308*
X03162Y02316*
X03159Y02322*
X03153Y02328*
X03147Y02331*
X03139Y02333*
G37*
G36*
X03212Y02332D02*
X03205D01*
X03197Y0233*
X03191Y02327*
X03185Y02321*
X03182Y02315*
X0318Y02307*
Y023*
X03182Y02292*
X03185Y02286*
X03191Y0228*
X03197Y02277*
X03205Y02275*
X03212*
X0322Y02277*
X03226Y0228*
X03232Y02286*
X03235Y02292*
X03237Y023*
Y02307*
X03235Y02315*
X03232Y02321*
X03226Y02327*
X0322Y0233*
X03212Y02332*
G37*
G36*
X03822Y02332D02*
X03815D01*
X03807Y0233*
X03801Y02326*
X03795Y0232*
X03791Y02314*
X03789Y02306*
Y02299*
X03791Y02291*
X03795Y02285*
X03801Y02279*
X03807Y02276*
X03815Y02274*
X03822*
X0383Y02276*
X03836Y02279*
X03842Y02285*
X03845Y02291*
X03847Y02299*
Y02306*
X03845Y02314*
X03842Y0232*
X03836Y02326*
X0383Y0233*
X03822Y02332*
G37*
G36*
X03724D02*
X03716D01*
X03709Y0233*
X03702Y02326*
X03697Y0232*
X03693Y02314*
X03691Y02306*
Y02299*
X03693Y02291*
X03697Y02285*
X03702Y02279*
X03709Y02276*
X03716Y02274*
X03724*
X03731Y02276*
X03738Y02279*
X03743Y02285*
X03747Y02291*
X03749Y02299*
Y02306*
X03747Y02314*
X03743Y0232*
X03738Y02326*
X03731Y0233*
X03724Y02332*
G37*
G36*
X03625D02*
X03618D01*
X0361Y0233*
X03604Y02326*
X03598Y0232*
X03595Y02314*
X03593Y02306*
Y02299*
X03595Y02291*
X03598Y02285*
X03604Y02279*
X0361Y02276*
X03618Y02274*
X03625*
X03633Y02276*
X03639Y02279*
X03645Y02285*
X03649Y02291*
X0365Y02299*
Y02306*
X03649Y02314*
X03645Y0232*
X03639Y02326*
X03633Y0233*
X03625Y02332*
G37*
G36*
X02203Y02328D02*
X02196D01*
X02188Y02326*
X02182Y02323*
X02176Y02317*
X02173Y02311*
X02171Y02303*
Y02296*
X02173Y02288*
X02176Y02282*
X02182Y02276*
X02188Y02273*
X02196Y02271*
X02203*
X02211Y02273*
X02217Y02276*
X02223Y02282*
X02226Y02288*
X02228Y02296*
Y02303*
X02226Y02311*
X02223Y02317*
X02217Y02323*
X02211Y02326*
X02203Y02328*
G37*
G36*
X02103D02*
X02096D01*
X02088Y02326*
X02082Y02323*
X02076Y02317*
X02073Y02311*
X02071Y02303*
Y02296*
X02073Y02288*
X02076Y02282*
X02082Y02276*
X02088Y02273*
X02096Y02271*
X02103*
X02111Y02273*
X02117Y02276*
X02123Y02282*
X02126Y02288*
X02128Y02296*
Y02303*
X02126Y02311*
X02123Y02317*
X02117Y02323*
X02111Y02326*
X02103Y02328*
G37*
G36*
X03773Y02282D02*
X03765D01*
X03758Y0228*
X03751Y02277*
X03746Y02271*
X03742Y02265*
X0374Y02257*
Y0225*
X03742Y02242*
X03746Y02236*
X03751Y0223*
X03758Y02226*
X03765Y02225*
X03773*
X0378Y02226*
X03787Y0223*
X03792Y02236*
X03796Y02242*
X03798Y0225*
Y02257*
X03796Y02265*
X03792Y02271*
X03787Y02277*
X0378Y0228*
X03773Y02282*
G37*
G36*
X03675D02*
X03667D01*
X0366Y0228*
X03653Y02277*
X03648Y02271*
X03644Y02265*
X03642Y02257*
Y0225*
X03644Y02242*
X03648Y02236*
X03653Y0223*
X0366Y02226*
X03667Y02225*
X03675*
X03682Y02226*
X03689Y0223*
X03694Y02236*
X03698Y02242*
X037Y0225*
Y02257*
X03698Y02265*
X03694Y02271*
X03689Y02277*
X03682Y0228*
X03675Y02282*
G37*
G36*
X03822Y02233D02*
X03815D01*
X03807Y02231*
X03801Y02227*
X03795Y02222*
X03791Y02215*
X03789Y02208*
Y022*
X03791Y02193*
X03795Y02186*
X03801Y02181*
X03807Y02177*
X03815Y02175*
X03822*
X0383Y02177*
X03836Y02181*
X03842Y02186*
X03845Y02193*
X03847Y022*
Y02208*
X03845Y02215*
X03842Y02222*
X03836Y02227*
X0383Y02231*
X03822Y02233*
G37*
G36*
X03724D02*
X03716D01*
X03709Y02231*
X03702Y02227*
X03697Y02222*
X03693Y02215*
X03691Y02208*
Y022*
X03693Y02193*
X03697Y02186*
X03702Y02181*
X03709Y02177*
X03716Y02175*
X03724*
X03731Y02177*
X03738Y02181*
X03743Y02186*
X03747Y02193*
X03749Y022*
Y02208*
X03747Y02215*
X03743Y02222*
X03738Y02227*
X03731Y02231*
X03724Y02233*
G37*
G36*
X03625D02*
X03618D01*
X0361Y02231*
X03604Y02227*
X03598Y02222*
X03595Y02215*
X03593Y02208*
Y022*
X03595Y02193*
X03598Y02186*
X03604Y02181*
X0361Y02177*
X03618Y02175*
X03625*
X03633Y02177*
X03639Y02181*
X03645Y02186*
X03649Y02193*
X0365Y022*
Y02208*
X03649Y02215*
X03645Y02222*
X03639Y02227*
X03633Y02231*
X03625Y02233*
G37*
G36*
X02203Y02228D02*
X02196D01*
X02188Y02226*
X02182Y02223*
X02176Y02217*
X02173Y02211*
X02171Y02203*
Y02196*
X02173Y02188*
X02176Y02182*
X02182Y02176*
X02188Y02173*
X02196Y02171*
X02203*
X02211Y02173*
X02217Y02176*
X02223Y02182*
X02226Y02188*
X02228Y02196*
Y02203*
X02226Y02211*
X02223Y02217*
X02217Y02223*
X02211Y02226*
X02203Y02228*
G37*
G36*
X02103D02*
X02096D01*
X02088Y02226*
X02082Y02223*
X02076Y02217*
X02073Y02211*
X02071Y02203*
Y02196*
X02073Y02188*
X02076Y02182*
X02082Y02176*
X02088Y02173*
X02096Y02171*
X02103*
X02111Y02173*
X02117Y02176*
X02123Y02182*
X02126Y02188*
X02128Y02196*
Y02203*
X02126Y02211*
X02123Y02217*
X02117Y02223*
X02111Y02226*
X02103Y02228*
G37*
G36*
X02303Y02128D02*
X02296D01*
X02288Y02126*
X02282Y02123*
X02276Y02117*
X02273Y02111*
X02271Y02103*
Y02096*
X02273Y02088*
X02276Y02082*
X02282Y02076*
X02288Y02073*
X02296Y02071*
X02303*
X02311Y02073*
X02317Y02076*
X02323Y02082*
X02326Y02088*
X02328Y02096*
Y02103*
X02326Y02111*
X02323Y02117*
X02317Y02123*
X02311Y02126*
X02303Y02128*
G37*
G36*
X02203D02*
X02196D01*
X02188Y02126*
X02182Y02123*
X02176Y02117*
X02173Y02111*
X02171Y02103*
Y02096*
X02173Y02088*
X02176Y02082*
X02182Y02076*
X02188Y02073*
X02196Y02071*
X02203*
X02211Y02073*
X02217Y02076*
X02223Y02082*
X02226Y02088*
X02228Y02096*
Y02103*
X02226Y02111*
X02223Y02117*
X02217Y02123*
X02211Y02126*
X02203Y02128*
G37*
G36*
X02103D02*
X02096D01*
X02088Y02126*
X02082Y02123*
X02076Y02117*
X02073Y02111*
X02071Y02103*
Y02096*
X02073Y02088*
X02076Y02082*
X02082Y02076*
X02088Y02073*
X02096Y02071*
X02103*
X02111Y02073*
X02117Y02076*
X02123Y02082*
X02126Y02088*
X02128Y02096*
Y02103*
X02126Y02111*
X02123Y02117*
X02117Y02123*
X02111Y02126*
X02103Y02128*
G37*
G36*
X02645Y02036D02*
X02637D01*
X0263Y02034*
X02623Y02031*
X02618Y02025*
X02614Y02019*
X02612Y02011*
Y02004*
X02614Y01996*
X02618Y0199*
X02623Y01984*
X0263Y0198*
X02637Y01978*
X02645*
X02652Y0198*
X02659Y01984*
X02664Y0199*
X02668Y01996*
X0267Y02004*
Y02011*
X02668Y02019*
X02664Y02025*
X02659Y02031*
X02652Y02034*
X02645Y02036*
G37*
G36*
X03348Y02021D02*
X03341D01*
X03333Y02019*
X03327Y02015*
X03321Y0201*
X03317Y02003*
X03315Y01996*
Y01988*
X03317Y01981*
X03321Y01975*
X03327Y01969*
X03333Y01965*
X03341Y01963*
X03348*
X03356Y01965*
X03362Y01969*
X03368Y01975*
X03371Y01981*
X03373Y01988*
Y01996*
X03371Y02003*
X03368Y0201*
X03362Y02015*
X03356Y02019*
X03348Y02021*
G37*
G36*
X03549Y02016D02*
X03542D01*
X03534Y02014*
X03528Y02011*
X03522Y02005*
X03519Y01999*
X03517Y01991*
Y01984*
X03519Y01976*
X03522Y0197*
X03528Y01964*
X03534Y01961*
X03542Y01959*
X03549*
X03557Y01961*
X03563Y01964*
X03569Y0197*
X03572Y01976*
X03574Y01984*
Y01991*
X03572Y01999*
X03569Y02005*
X03563Y02011*
X03557Y02014*
X03549Y02016*
G37*
G36*
X03822Y0182D02*
X03815D01*
X03807Y01818*
X03801Y01814*
X03795Y01809*
X03791Y01802*
X03789Y01795*
Y01787*
X03791Y0178*
X03795Y01773*
X03801Y01768*
X03807Y01764*
X03815Y01762*
X03822*
X0383Y01764*
X03836Y01768*
X03842Y01773*
X03845Y0178*
X03847Y01787*
Y01795*
X03845Y01802*
X03842Y01809*
X03836Y01814*
X0383Y01818*
X03822Y0182*
G37*
G36*
X03724D02*
X03716D01*
X03709Y01818*
X03702Y01814*
X03697Y01809*
X03693Y01802*
X03691Y01795*
Y01787*
X03693Y0178*
X03697Y01773*
X03702Y01768*
X03709Y01764*
X03716Y01762*
X03724*
X03731Y01764*
X03738Y01768*
X03743Y01773*
X03747Y0178*
X03749Y01787*
Y01795*
X03747Y01802*
X03743Y01809*
X03738Y01814*
X03731Y01818*
X03724Y0182*
G37*
G36*
X03625D02*
X03618D01*
X0361Y01818*
X03604Y01814*
X03598Y01809*
X03595Y01802*
X03593Y01795*
Y01787*
X03595Y0178*
X03598Y01773*
X03604Y01768*
X0361Y01764*
X03618Y01762*
X03625*
X03633Y01764*
X03639Y01768*
X03645Y01773*
X03649Y0178*
X0365Y01787*
Y01795*
X03649Y01802*
X03645Y01809*
X03639Y01814*
X03633Y01818*
X03625Y0182*
G37*
G36*
X03773Y01771D02*
X03765D01*
X03758Y01769*
X03751Y01765*
X03746Y01759*
X03742Y01753*
X0374Y01745*
Y01738*
X03742Y0173*
X03746Y01724*
X03751Y01718*
X03758Y01715*
X03765Y01713*
X03773*
X0378Y01715*
X03787Y01718*
X03792Y01724*
X03796Y0173*
X03798Y01738*
Y01745*
X03796Y01753*
X03792Y01759*
X03787Y01765*
X0378Y01769*
X03773Y01771*
G37*
G36*
X03675D02*
X03667D01*
X0366Y01769*
X03653Y01765*
X03648Y01759*
X03644Y01753*
X03642Y01745*
Y01738*
X03644Y0173*
X03648Y01724*
X03653Y01718*
X0366Y01715*
X03667Y01713*
X03675*
X03682Y01715*
X03689Y01718*
X03694Y01724*
X03698Y0173*
X037Y01738*
Y01745*
X03698Y01753*
X03694Y01759*
X03689Y01765*
X03682Y01769*
X03675Y01771*
G37*
G36*
X03822Y01721D02*
X03815D01*
X03807Y01719*
X03801Y01716*
X03795Y0171*
X03791Y01704*
X03789Y01696*
Y01689*
X03791Y01681*
X03795Y01675*
X03801Y01669*
X03807Y01665*
X03815Y01663*
X03822*
X0383Y01665*
X03836Y01669*
X03842Y01675*
X03845Y01681*
X03847Y01689*
Y01696*
X03845Y01704*
X03842Y0171*
X03836Y01716*
X0383Y01719*
X03822Y01721*
G37*
G36*
X03724D02*
X03716D01*
X03709Y01719*
X03702Y01716*
X03697Y0171*
X03693Y01704*
X03691Y01696*
Y01689*
X03693Y01681*
X03697Y01675*
X03702Y01669*
X03709Y01665*
X03716Y01663*
X03724*
X03731Y01665*
X03738Y01669*
X03743Y01675*
X03747Y01681*
X03749Y01689*
Y01696*
X03747Y01704*
X03743Y0171*
X03738Y01716*
X03731Y01719*
X03724Y01721*
G37*
G36*
X03625D02*
X03618D01*
X0361Y01719*
X03604Y01716*
X03598Y0171*
X03595Y01704*
X03593Y01696*
Y01689*
X03595Y01681*
X03598Y01675*
X03604Y01669*
X0361Y01665*
X03618Y01663*
X03625*
X03633Y01665*
X03639Y01669*
X03645Y01675*
X03649Y01681*
X0365Y01689*
Y01696*
X03649Y01704*
X03645Y0171*
X03639Y01716*
X03633Y01719*
X03625Y01721*
G37*
G36*
X03675Y01672D02*
X03667D01*
X0366Y0167*
X03653Y01666*
X03648Y01661*
X03644Y01654*
X03642Y01647*
Y01639*
X03644Y01632*
X03648Y01625*
X03653Y0162*
X0366Y01616*
X03667Y01614*
X03675*
X03682Y01616*
X03689Y0162*
X03694Y01625*
X03698Y01632*
X037Y01639*
Y01647*
X03698Y01654*
X03694Y01661*
X03689Y01666*
X03682Y0167*
X03675Y01672*
G37*
G36*
X03774Y01671D02*
X03767D01*
X03759Y01669*
X03753Y01665*
X03747Y0166*
X03744Y01653*
X03742Y01646*
Y01638*
X03744Y01631*
X03747Y01624*
X03753Y01619*
X03759Y01615*
X03767Y01613*
X03774*
X03782Y01615*
X03788Y01619*
X03794Y01624*
X03798Y01631*
X038Y01638*
Y01646*
X03798Y01653*
X03794Y0166*
X03788Y01665*
X03782Y01669*
X03774Y01671*
G37*
G36*
X03822Y01623D02*
X03815D01*
X03807Y01621*
X03801Y01617*
X03795Y01612*
X03791Y01605*
X03789Y01598*
Y0159*
X03791Y01583*
X03795Y01576*
X03801Y01571*
X03807Y01567*
X03815Y01565*
X03822*
X0383Y01567*
X03836Y01571*
X03842Y01576*
X03845Y01583*
X03847Y0159*
Y01598*
X03845Y01605*
X03842Y01612*
X03836Y01617*
X0383Y01621*
X03822Y01623*
G37*
G36*
X03724D02*
X03716D01*
X03709Y01621*
X03702Y01617*
X03697Y01612*
X03693Y01605*
X03691Y01598*
Y0159*
X03693Y01583*
X03697Y01576*
X03702Y01571*
X03709Y01567*
X03716Y01565*
X03724*
X03731Y01567*
X03738Y01571*
X03743Y01576*
X03747Y01583*
X03749Y0159*
Y01598*
X03747Y01605*
X03743Y01612*
X03738Y01617*
X03731Y01621*
X03724Y01623*
G37*
G36*
X03625D02*
X03618D01*
X0361Y01621*
X03604Y01617*
X03598Y01612*
X03595Y01605*
X03593Y01598*
Y0159*
X03595Y01583*
X03598Y01576*
X03604Y01571*
X0361Y01567*
X03618Y01565*
X03625*
X03633Y01567*
X03639Y01571*
X03645Y01576*
X03649Y01583*
X0365Y0159*
Y01598*
X03649Y01605*
X03645Y01612*
X03639Y01617*
X03633Y01621*
X03625Y01623*
G37*
G36*
X03822Y01485D02*
X03815D01*
X03807Y01483*
X03801Y01479*
X03795Y01474*
X03791Y01467*
X03789Y0146*
Y01452*
X03791Y01445*
X03795Y01438*
X03801Y01433*
X03807Y01429*
X03815Y01427*
X03822*
X0383Y01429*
X03836Y01433*
X03842Y01438*
X03845Y01445*
X03847Y01452*
Y0146*
X03845Y01467*
X03842Y01474*
X03836Y01479*
X0383Y01483*
X03822Y01485*
G37*
G36*
X03704D02*
X03696D01*
X03689Y01483*
X03683Y01479*
X03677Y01474*
X03673Y01467*
X03671Y0146*
Y01452*
X03673Y01445*
X03677Y01438*
X03683Y01433*
X03689Y01429*
X03696Y01427*
X03704*
X03711Y01429*
X03718Y01433*
X03723Y01438*
X03727Y01445*
X03729Y01452*
Y0146*
X03727Y01467*
X03723Y01474*
X03718Y01479*
X03711Y01483*
X03704Y01485*
G37*
G36*
X03586D02*
X03578D01*
X03571Y01483*
X03564Y01479*
X03559Y01474*
X03555Y01467*
X03553Y0146*
Y01452*
X03555Y01445*
X03559Y01438*
X03564Y01433*
X03571Y01429*
X03578Y01427*
X03586*
X03593Y01429*
X036Y01433*
X03605Y01438*
X03609Y01445*
X03611Y01452*
Y0146*
X03609Y01467*
X03605Y01474*
X036Y01479*
X03593Y01483*
X03586Y01485*
G37*
G36*
X03468D02*
X0346D01*
X03453Y01483*
X03446Y01479*
X03441Y01474*
X03437Y01467*
X03435Y0146*
Y01452*
X03437Y01445*
X03441Y01438*
X03446Y01433*
X03453Y01429*
X0346Y01427*
X03468*
X03475Y01429*
X03482Y01433*
X03487Y01438*
X03491Y01445*
X03493Y01452*
Y0146*
X03491Y01467*
X03487Y01474*
X03482Y01479*
X03475Y01483*
X03468Y01485*
G37*
G36*
X0335D02*
X03342D01*
X03335Y01483*
X03328Y01479*
X03323Y01474*
X03319Y01467*
X03317Y0146*
Y01452*
X03319Y01445*
X03323Y01438*
X03328Y01433*
X03335Y01429*
X03342Y01427*
X0335*
X03357Y01429*
X03364Y01433*
X03369Y01438*
X03373Y01445*
X03375Y01452*
Y0146*
X03373Y01467*
X03369Y01474*
X03364Y01479*
X03357Y01483*
X0335Y01485*
G37*
G36*
X03763Y01426D02*
X03756D01*
X03748Y01424*
X03742Y0142*
X03736Y01415*
X03732Y01408*
X0373Y01401*
Y01393*
X03732Y01386*
X03736Y01379*
X03742Y01374*
X03748Y0137*
X03756Y01368*
X03763*
X03771Y0137*
X03777Y01374*
X03783Y01379*
X03786Y01386*
X03788Y01393*
Y01401*
X03786Y01408*
X03783Y01415*
X03777Y0142*
X03771Y01424*
X03763Y01426*
G37*
G36*
X03645D02*
X03637D01*
X0363Y01424*
X03623Y0142*
X03618Y01415*
X03614Y01408*
X03612Y01401*
Y01393*
X03614Y01386*
X03618Y01379*
X03623Y01374*
X0363Y0137*
X03637Y01368*
X03645*
X03652Y0137*
X03659Y01374*
X03664Y01379*
X03668Y01386*
X0367Y01393*
Y01401*
X03668Y01408*
X03664Y01415*
X03659Y0142*
X03652Y01424*
X03645Y01426*
G37*
G36*
X03527D02*
X03519D01*
X03512Y01424*
X03505Y0142*
X035Y01415*
X03496Y01408*
X03494Y01401*
Y01393*
X03496Y01386*
X035Y01379*
X03505Y01374*
X03512Y0137*
X03519Y01368*
X03527*
X03534Y0137*
X03541Y01374*
X03546Y01379*
X0355Y01386*
X03552Y01393*
Y01401*
X0355Y01408*
X03546Y01415*
X03541Y0142*
X03534Y01424*
X03527Y01426*
G37*
G36*
X03409D02*
X03401D01*
X03394Y01424*
X03387Y0142*
X03382Y01415*
X03378Y01408*
X03376Y01401*
Y01393*
X03378Y01386*
X03382Y01379*
X03387Y01374*
X03394Y0137*
X03401Y01368*
X03409*
X03416Y0137*
X03423Y01374*
X03428Y01379*
X03432Y01386*
X03434Y01393*
Y01401*
X03432Y01408*
X03428Y01415*
X03423Y0142*
X03416Y01424*
X03409Y01426*
G37*
G36*
X03822Y01367D02*
X03815D01*
X03807Y01365*
X03801Y01361*
X03795Y01356*
X03791Y01349*
X03789Y01342*
Y01334*
X03791Y01327*
X03795Y0132*
X03801Y01315*
X03807Y01311*
X03815Y01309*
X03822*
X0383Y01311*
X03836Y01315*
X03842Y0132*
X03845Y01327*
X03847Y01334*
Y01342*
X03845Y01349*
X03842Y01356*
X03836Y01361*
X0383Y01365*
X03822Y01367*
G37*
G36*
X03704D02*
X03696D01*
X03689Y01365*
X03683Y01361*
X03677Y01356*
X03673Y01349*
X03671Y01342*
Y01334*
X03673Y01327*
X03677Y0132*
X03683Y01315*
X03689Y01311*
X03696Y01309*
X03704*
X03711Y01311*
X03718Y01315*
X03723Y0132*
X03727Y01327*
X03729Y01334*
Y01342*
X03727Y01349*
X03723Y01356*
X03718Y01361*
X03711Y01365*
X03704Y01367*
G37*
G36*
X03586D02*
X03578D01*
X03571Y01365*
X03564Y01361*
X03559Y01356*
X03555Y01349*
X03553Y01342*
Y01334*
X03555Y01327*
X03559Y0132*
X03564Y01315*
X03571Y01311*
X03578Y01309*
X03586*
X03593Y01311*
X036Y01315*
X03605Y0132*
X03609Y01327*
X03611Y01334*
Y01342*
X03609Y01349*
X03605Y01356*
X036Y01361*
X03593Y01365*
X03586Y01367*
G37*
G36*
X03468D02*
X0346D01*
X03453Y01365*
X03446Y01361*
X03441Y01356*
X03437Y01349*
X03435Y01342*
Y01334*
X03437Y01327*
X03441Y0132*
X03446Y01315*
X03453Y01311*
X0346Y01309*
X03468*
X03475Y01311*
X03482Y01315*
X03487Y0132*
X03491Y01327*
X03493Y01334*
Y01342*
X03491Y01349*
X03487Y01356*
X03482Y01361*
X03475Y01365*
X03468Y01367*
G37*
G36*
X0335D02*
X03342D01*
X03335Y01365*
X03328Y01361*
X03323Y01356*
X03319Y01349*
X03317Y01342*
Y01334*
X03319Y01327*
X03323Y0132*
X03328Y01315*
X03335Y01311*
X03342Y01309*
X0335*
X03357Y01311*
X03364Y01315*
X03369Y0132*
X03373Y01327*
X03375Y01334*
Y01342*
X03373Y01349*
X03369Y01356*
X03364Y01361*
X03357Y01365*
X0335Y01367*
G37*
%LNpcbfoc-3*%
%LPD*%
G54D49*
X0226Y03104D03*
G54D50*
X0233Y03033D03*
X02401Y02962D03*
X02472Y02891D03*
G54D51*
X01968Y01279D03*
X04035Y03838D03*
Y01279D03*
X01968Y03838D03*
G54D52*
X02395Y03185D03*
X0235Y03225D03*
X037Y01456D03*
X03818D03*
X037Y01338D03*
X03818D03*
X03582Y01456D03*
Y01338D03*
X03464D03*
Y01456D03*
X03346D03*
Y01338D03*
X03405Y01397D03*
X03523D03*
X03641D03*
X03759D03*
X03818Y01594D03*
X0372Y01692D03*
X03818D03*
Y01791D03*
X0372D03*
X03622Y01594D03*
Y01692D03*
Y01791D03*
X0372Y01594D03*
X03818Y02204D03*
Y02303D03*
Y02401D03*
X0372D03*
Y02303D03*
Y02204D03*
X03622Y02401D03*
Y02303D03*
Y02204D03*
X03818Y02795D03*
Y02893D03*
Y02992D03*
X0372D03*
Y02893D03*
Y02795D03*
X03622D03*
Y02893D03*
Y02992D03*
X03771Y01642D03*
X03671Y01643D03*
Y01742D03*
X03769D03*
X03671Y02253D03*
X03769D03*
Y02352D03*
X03671D03*
Y02844D03*
X03769D03*
Y02942D03*
X03671D03*
X02563Y03528D03*
X03216Y03321D03*
X03084Y03184D03*
X03234Y0308D03*
X0337Y0293D03*
Y0285D03*
X029Y03056D03*
X03363Y02298D03*
Y02358D03*
X03281Y02212D03*
X0315Y0263D03*
X03443Y01629D03*
X03513D03*
X03387Y01555D03*
X03299Y02031D03*
X03342Y01747D03*
X02731Y02875D03*
Y02685D03*
X02429Y0347D03*
X02477Y02648D03*
X02154Y03261D03*
X02719Y01975D03*
X02204Y01929D03*
X02086D03*
X02322D03*
X02086Y01811D03*
X02322Y01692D03*
X0244D03*
X02322Y01811D03*
X0244Y01574D03*
X02559D03*
X02322D03*
X02204Y01811D03*
Y01692D03*
X02086D03*
X02204Y01574D03*
X02086D03*
X03279Y03493D03*
X02654Y03581D03*
X02779Y03009D03*
X0295Y03105D03*
X021Y021D03*
X022Y022D03*
Y021D03*
X021Y023D03*
Y024D03*
Y022D03*
X022Y023D03*
X023Y021D03*
X02435Y037D03*
X0297Y02836D03*
X0325Y03D03*
X02641Y02007D03*
X0254Y03428D03*
X03458Y03057D03*
X03356Y02523D03*
X03546Y01988D03*
X03136Y02305D03*
X0285Y0368D03*
X02731Y02748D03*
X02785Y0293D03*
X0285Y03545D03*
X02899Y02911D03*
X0285Y03615D03*
X03015Y0278D03*
X03Y0336D03*
X02733Y02808D03*
X03014Y03418D03*
X03015Y02715D03*
X02965Y0349D03*
X03015Y0265D03*
X03154Y02569D03*
X03209Y02304D03*
X03536Y02682D03*
X03344Y01992D03*
G54D53*
X02923Y02688D03*
X0266Y03395D03*
X02774Y0205D03*
Y02182D03*
Y02117D03*
X0261Y03375D03*
X027Y03729D03*
X0276Y03394D03*
X027Y0368D03*
X0271Y03395D03*
X027Y0363D03*
G54D54*
X02919Y02537D03*
X02961Y02495D03*
X02919D03*
X0287Y02537D03*
Y02445D03*
Y02495D03*
X02961Y02396D03*
Y02445D03*
X02919D03*
Y02396D03*
X0287D03*
X02919Y02354D03*
X0287D03*
X0282Y02537D03*
Y02495D03*
X02778Y02445D03*
Y02495D03*
X0282Y02445D03*
Y02396D03*
X02778D03*
X0282Y02354D03*
M02*