%FSTAX23Y23*%
%MOIN*%
%SFA1B1*%

%IPPOS*%
%ADD48C,0.050000*%
%ADD49C,0.039370*%
%ADD50C,0.118110*%
%ADD51C,0.019680*%
%LNpcbfoc-1*%
%LPD*%
G54D48*
X0337Y0285D03*
Y0293D03*
X03458Y03057D03*
X03356Y02523D03*
X03546Y01988D03*
X02154Y03261D03*
X03582Y01456D03*
Y01338D03*
X03818D03*
X037D03*
X03818Y01456D03*
X037D03*
X02086Y01574D03*
X02204D03*
X02322D03*
X02559D03*
X0244D03*
Y01692D03*
X02322D03*
X02204D03*
X02086D03*
X02322Y01811D03*
X02204D03*
X02086D03*
X02322Y01929D03*
X02204D03*
X02086D03*
X0254Y03428D03*
X01968Y01279D03*
D03*
D03*
D03*
X03363Y02298D03*
X0381Y0299D03*
Y0289D03*
Y0279D03*
X038Y023D03*
Y024D03*
X0371Y0289D03*
Y0279D03*
Y0299D03*
X037Y023D03*
Y024D03*
X038Y018D03*
Y016D03*
Y017D03*
Y022D03*
X037Y018D03*
Y022D03*
Y016D03*
Y017D03*
X02731Y02875D03*
X03075Y03215D03*
X0315Y0263D03*
X02885Y03075D03*
X02731Y02685D03*
X02477Y02648D03*
X03216Y03321D03*
X03234Y0308D03*
X03363Y02358D03*
X03281Y02212D03*
X03299Y02031D03*
X03443Y01629D03*
X03513D03*
X03342Y01747D03*
X03387Y01555D03*
X02589Y0355D03*
X02429Y0347D03*
X02719Y01975D03*
X03136Y02305D03*
X0285Y0368D03*
X02641Y02007D03*
X0235Y03225D03*
X02731Y02748D03*
X02355Y0305D03*
X02785Y0293D03*
X0285Y03545D03*
X02899Y02911D03*
X0285Y03615D03*
X03015Y0278D03*
X03Y0336D03*
X0278Y0301D03*
X02395Y03185D03*
X02733Y02808D03*
X03014Y03418D03*
X03015Y02715D03*
X02965Y0349D03*
X03015Y0265D03*
X0293Y03119D03*
X03253Y03495D03*
X0325Y03D03*
X0297Y02836D03*
X02649Y03549D03*
X02435Y037D03*
X023Y021D03*
X022Y023D03*
X021Y022D03*
Y024D03*
Y023D03*
X022Y021D03*
Y022D03*
X021Y021D03*
X024Y03D03*
X03154Y02569D03*
X03209Y02304D03*
X03536Y02682D03*
X03344Y01992D03*
G54D49*
X0261Y03375D03*
X02923Y02688D03*
X0266Y03395D03*
X02774Y02117D03*
Y02182D03*
Y0205D03*
X027Y03729D03*
X0276Y03394D03*
X027Y0368D03*
X0271Y03395D03*
X027Y0363D03*
G54D50*
X01968Y01279D03*
X04035Y03838D03*
Y01279D03*
X01968Y03838D03*
G54D51*
X02919Y02537D03*
X0287D03*
X02961Y02495D03*
X02919Y02445D03*
X02961D03*
X02919Y02396D03*
Y02495D03*
X0287D03*
Y02396D03*
Y02445D03*
X02961Y02396D03*
X0287Y02354D03*
X02919D03*
X0282Y02495D03*
Y02537D03*
X02778Y02495D03*
Y02445D03*
X0282D03*
Y02396D03*
X02778D03*
X0282Y02354D03*
M02*