%FSTAX23Y23*%
%MOIN*%
%SFA1B1*%

%IPPOS*%
%ADD10C,0.009840*%
%ADD11C,0.019680*%
%ADD12C,0.007870*%
%ADD13C,0.010000*%
%LNpcbfoc-1*%
%LPD*%
G36*
X03638Y0361D02*
X03641Y0361D01*
X03656Y0361*
X03657Y03609*
X03659Y03609*
X0366Y03608*
X0366Y03608*
X03658Y03608*
X03656Y03607*
X03646Y03607*
X0364Y03607*
X0364Y03606*
X0364Y03604*
X03641Y03603*
X03641Y03602*
X03674Y03603*
X03675Y03604*
X03676Y03604*
X03679Y03606*
X03683Y03606*
X03684Y03606*
X03686Y03605*
X03688Y03604*
X03689Y03603*
X03691Y03602*
X03721Y03603*
X03722Y03603*
X03723Y03606*
X03723Y03607*
X0372Y03607*
X03706Y03607*
X03706Y03608*
X03704Y03608*
X03704Y03608*
X03706Y03609*
X03711Y0361*
X03718Y0361*
X03725Y0361*
X03726Y03611*
X03727Y03611*
X03729Y0361*
X03745Y0361*
X03746Y03609*
X03749Y03609*
X0375Y03608*
X03749Y03608*
X03747Y03608*
X03742Y03607*
X0373Y03607*
X03729Y03606*
X03729Y03606*
X0373Y03605*
X03731Y03602*
X03731Y03602*
X03731Y036*
X03731Y03599*
X03731Y03598*
X03731Y03597*
X0373Y03594*
X03729Y03593*
X03728Y03593*
X03723Y03593*
X03723Y03593*
X03722Y03596*
X03721Y03596*
X03701Y03596*
X037Y03595*
X03701Y03593*
X03704Y03589*
X03705Y03587*
X03706Y03585*
X03706Y03583*
X03706Y03578*
X03706Y03567*
X03706Y03567*
X03704Y03566*
X03703Y03567*
X03702Y03568*
X03702Y03583*
X03701Y03584*
X03699Y03588*
X03698Y03589*
X03698Y0359*
X03697Y0359*
X03695Y03591*
X03694Y0359*
X03692Y0359*
X03691Y03589*
X03691Y03588*
X0369Y03588*
X03689Y03586*
X03688Y03586*
X03687Y03585*
X03686Y03585*
X03684Y03584*
X03679Y03584*
X03675Y03586*
X03673Y03588*
X03673Y03589*
X03671Y0359*
X0367Y03591*
X03669Y0359*
X03668Y03591*
X03667Y0359*
X03666Y0359*
X03665Y03589*
X03665Y03588*
X03664Y03587*
X03663Y03584*
X03662Y03583*
X03662Y03579*
X03661Y03567*
X0366Y03567*
X03658Y03567*
X03658Y03567*
Y03582*
Y03583*
X03658Y03585*
X03659Y03585*
X0366Y03588*
X0366Y03589*
X03662Y03591*
X03662Y03592*
X03663Y03593*
X03663Y03593*
X03664Y03595*
X03662Y03596*
X03661Y03596*
X03641Y03596*
X0364Y03594*
X03639Y03593*
X03634Y03593*
X03633Y03594*
X03632Y03596*
X03632Y03598*
X03632Y03602*
X03633Y03603*
X03633Y03605*
X03634Y03607*
X03632Y03607*
X03617Y03607*
X03616Y03608*
X03614Y03608*
X03615Y03609*
X03617Y03609*
X03621Y0361*
X03629Y0361*
X03636Y0361*
X03636Y03611*
X03637Y03611*
X03637Y03612*
X03638Y0361*
G37*
G36*
X03769Y03524D02*
X03769Y03523D01*
X0377Y03521*
X0377Y03518*
X03769Y03517*
X03753Y03516*
X03753Y03515*
Y03505*
Y03504*
X03753Y03468*
X03746Y03468*
X03746Y03469*
X03745Y0347*
X03745Y03516*
X03745Y03517*
X03729Y03517*
X03729Y03518*
X03729Y03523*
X0373Y03524*
X03732Y03524*
X03733Y03524*
X03734Y03524*
X03766Y03524*
X03768Y03524*
X03769Y03524*
G37*
G36*
X03614Y03523D02*
X03614Y03521D01*
X03614Y03518*
X03614Y03517*
X03612Y03517*
X03611Y03517*
X0359Y03517*
X0359Y03517*
X03589Y03515*
X03589Y03514*
X03589Y03513*
X03589Y03501*
X0359Y035*
X03591Y03499*
X03612Y03499*
X03613Y03498*
X03613Y03493*
X03612Y03493*
X03611Y03492*
X0359Y03492*
X03589Y0349*
X03589Y03489*
X03589Y03479*
Y03479*
X0359Y03475*
X03591Y03475*
X03614Y03474*
X03614Y03474*
X03614Y03472*
X03614Y03469*
X03613Y03468*
X03583Y03468*
X03582Y0347*
X03582Y03523*
X03583Y03524*
X03585Y03524*
X03586Y03524*
X03586Y03524*
X03611Y03524*
X03613Y03524*
X03614Y03523*
G37*
G36*
X03569D02*
X03569Y03522D01*
X03569Y03517*
X03567Y03514*
X03567Y03514*
X03565Y03511*
X03565Y03511*
X03564Y0351*
X03563Y03508*
X03562Y03507*
X03561Y03505*
X03559Y03502*
X03559Y03502*
X03558Y03501*
X03557Y03499*
X03556Y03498*
X03555Y03496*
X03553Y03494*
X03553Y03493*
X03551Y03491*
X03551Y0349*
X03549Y03488*
X03549Y03488*
X03549Y03487*
X03548Y03486*
X03545Y03482*
X03543Y03478*
X03542Y03478*
X03542Y03476*
X03542Y03475*
X03542Y03475*
X03568Y03474*
X03569Y03474*
X03569Y03473*
Y03472*
Y03472*
X03569Y03469*
X03567Y03468*
X03532Y03468*
X03532Y0347*
X03532Y03475*
X03533Y03477*
X03534Y03478*
X03535Y03479*
X03536Y03482*
X03537Y03482*
X03539Y03486*
X03539Y03486*
X0354Y03487*
X0354Y03488*
X03542Y0349*
X03542Y0349*
X03544Y03493*
X03544Y03493*
X03545Y03494*
X03546Y03496*
X03548Y03498*
X03548Y03499*
X03549Y03501*
X0355Y03502*
X03551Y03504*
X03552Y03504*
X03552Y03505*
X03553Y03506*
X03554Y03508*
X03555Y03509*
X03556Y03511*
X03557Y03512*
X03557Y03512*
X03558Y03514*
X03559Y03515*
X03559Y03516*
X03558Y03517*
X03532Y03517*
X03532Y03518*
X03532Y03519*
X03532Y03523*
X03532Y03524*
X03535Y03524*
X03536Y03524*
X03537Y03524*
X03566Y03524*
X03567Y03524*
X03569Y03523*
G37*
G36*
X03824Y03524D02*
X03824Y03523D01*
X03825Y03522*
X03824Y03469*
X03824Y03468*
X03818Y03468*
X03817Y03469*
X03817Y03491*
X03816Y03492*
X03789Y03492*
X03788Y03491*
X03788Y03469*
X03787Y03468*
X03786Y03468*
X03781Y03468*
X0378Y03469*
X03781Y03523*
X03781Y03524*
X03783Y03524*
X03784Y03524*
X03786Y03524*
X03787Y03524*
X03788Y03523*
X03788Y03521*
X03788Y035*
X03789Y03499*
X0379Y03499*
X03816*
X03817Y035*
X03817Y03501*
X03818Y03523*
X03818Y03524*
X03819Y03524*
X0382Y03524*
X03822Y03524*
X03824Y03524*
G37*
G36*
X03705Y03541D02*
Y03537D01*
Y03537*
X03704Y03526*
X03703Y03511*
X03703Y03508*
X03703Y03501*
X03702Y035*
X03698Y035*
X03697Y035*
X03696Y035*
X03695Y03502*
X03695Y03503*
X03694Y03505*
X03694Y03506*
X03694Y03512*
X03695Y03513*
X03695Y03516*
X03696Y03518*
X03697Y03521*
X03697Y03522*
X03698Y03525*
X03698Y03527*
X03699Y03529*
X037Y0353*
X03701Y03536*
X03701Y03541*
X03702Y03542*
X03704Y03542*
X03705Y03541*
G37*
G36*
X03702Y03499D02*
X03703Y03497D01*
X03704Y03497*
X03705Y03494*
X03704Y03492*
X03703Y0349*
X037Y03489*
X03699Y03489*
X03696Y0349*
X03696Y0349*
X03696Y03491*
X03696Y03491*
X03695Y03493*
X03695Y03496*
X03697Y03497*
X03698Y03499*
X037Y03499*
X03702Y03499*
G37*
G36*
X03671Y03523D02*
X03671Y03522D01*
X03671Y03469*
X03671Y03468*
X03664Y03468*
X03664Y03469*
X03663Y03471*
X03661Y03473*
X03661Y03473*
X03659Y03476*
X03659Y03476*
X03657Y03479*
X03657Y03479*
X03656Y03481*
X03655Y03482*
X03655Y03483*
X03654Y03484*
X03652Y03487*
X03652Y03487*
X0365Y0349*
X03648Y03492*
X03647Y03494*
X03646Y03496*
X03645Y03497*
X03645Y03497*
X03644Y03499*
X03642Y03501*
X03641Y03503*
X0364Y03505*
X03639Y03506*
X03638Y03508*
X03637Y03509*
X03636Y03509*
X03636Y03507*
X03636Y0347*
X03636Y03468*
X03634Y03468*
X0363Y03468*
X03629Y03469*
X0363Y03523*
X0363Y03524*
X03631Y03524*
X03632Y03524*
X03635Y03524*
X03637Y03523*
X03637Y03522*
X03639Y0352*
X0364Y03518*
X03643Y03513*
X03647Y03507*
X03649Y03504*
X03654Y03497*
X03655Y03494*
X0366Y03488*
X03661Y03486*
X03663Y03483*
X03664Y03483*
X03664Y03483*
X03665Y03523*
X03665Y03524*
X0367Y03524*
X03671Y03523*
G37*
G36*
X03688Y03811D02*
X03688Y0381D01*
X03689Y03809*
X0369Y03808*
X03691Y03807*
X03691Y03807*
X03692Y03806*
X03692Y03805*
X03693Y03804*
X03693Y03804*
X03694Y03803*
X03694Y03802*
X03695Y03802*
X03696Y03801*
X03696Y038*
X03697Y038*
X03698Y03799*
X03698Y03798*
X03698Y03797*
X03699Y03797*
X037Y03795*
X037Y03795*
X03701Y03794*
X03701Y03793*
X03703Y03792*
X03704Y0379*
X03705Y03789*
X03705Y03789*
X03707Y03786*
X03709Y03784*
X03713Y03778*
X03714Y03777*
X03715Y03776*
X03715Y03776*
X03717Y03773*
X03718Y03772*
X03719Y03771*
X0372Y03769*
X03726Y03762*
X03727Y03761*
X03728Y03759*
X03729Y03758*
X03729Y03757*
X0373Y03757*
X03731Y03755*
X03732Y03754*
X03733Y03753*
X03733Y03753*
X03734Y03752*
X03734Y03751*
X03736Y03749*
X03737Y03748*
X03737Y03747*
X03738Y03747*
X03738Y03746*
X03739Y03745*
X03739Y03745*
X0374Y03744*
X03741Y03743*
X03741Y03742*
X03742Y03742*
X03742Y03741*
X03743Y0374*
X03743Y03739*
X03745Y03737*
X03747Y03735*
X03748Y03734*
X03748Y03733*
X03749Y03732*
X0375Y03731*
X0375Y0373*
X03751Y0373*
X03751Y03729*
X03752Y03728*
X03752Y03728*
X03753Y03727*
X03753Y03727*
X03754Y03726*
X03755Y03725*
X03755Y03724*
X03756Y03724*
X03757Y03723*
X03757Y03722*
X03758Y03721*
X03758Y03721*
X03759Y0372*
X03759Y03719*
X0376Y03718*
X0376Y03717*
X03761Y03717*
X03761Y03716*
X03762Y03715*
X03762Y03715*
X03763Y03714*
X03763Y03713*
X03765Y03712*
X03765Y03712*
X03766Y03711*
X03766Y0371*
X03767Y0371*
X03767Y03709*
X03768Y03708*
X03768Y03707*
X03769Y03706*
X0377Y03706*
X0377Y03705*
X03771Y03704*
X03772Y03703*
X03772Y03703*
X03773Y03701*
X03774Y037*
X03775Y03699*
X03775Y03698*
X03776Y03698*
X03776Y03697*
X03777Y03697*
X03777Y03696*
X03778Y03695*
X03779Y03694*
X03779Y03693*
X0378Y03693*
X0378Y03692*
X03781Y03691*
X03781Y03691*
X03782Y0369*
X03783Y03689*
X03783Y03688*
X03784Y03687*
X03784Y03687*
X03785Y03686*
X03786Y03685*
X03787Y03683*
X03788Y03683*
X03788Y03682*
X03788Y03682*
X03789Y03681*
X03789Y0368*
X0379Y0368*
X0379Y03679*
X03791Y03678*
X03792Y03677*
X03792Y03676*
X03793Y03675*
X03794Y03675*
X03796Y03672*
X03797Y03671*
X03797Y0367*
X03798Y0367*
X03798Y03669*
X03799Y03668*
X03799Y03668*
X038Y03667*
X038Y03666*
X03801Y03665*
X03802Y03665*
X03802Y03664*
X03803Y03663*
X03803Y03663*
X03803Y03662*
X03804Y03661*
X03804Y03661*
X03805Y0366*
X03805Y03659*
X03807Y03658*
X03807Y03657*
X03808Y03657*
X03808Y03656*
X03809Y03655*
X03809Y03655*
X0381Y03654*
X0381Y03653*
X03811Y03652*
X03812Y03652*
X03812Y03651*
X03813Y0365*
X03814Y03649*
X03814Y03649*
X03815Y03647*
X03816Y03646*
X03816Y03646*
X03817Y03645*
X03817Y03644*
X03818Y03643*
X03818Y03643*
X0382Y03641*
X0382Y0364*
X03821Y0364*
X03822Y03639*
X03823Y03637*
X03824Y03636*
X03824Y03636*
X03825Y03634*
X03827Y03634*
X03828Y03635*
X03828Y03636*
X03829Y03637*
X0383Y03638*
X0383Y03638*
X03831Y03639*
X03831Y0364*
X03832Y0364*
X03832Y03641*
X03832Y03642*
X03834Y03644*
X03834Y03644*
X03835Y03645*
X03835Y03645*
X03836Y03646*
X03838Y03649*
X0384Y03651*
X0384Y03652*
X03843Y03655*
X03843Y03655*
X03844Y03656*
X03845Y03658*
X03846Y03659*
X03847Y03661*
X03849Y0366*
X0385Y03659*
X0385Y03659*
X03851Y03657*
X03852Y03657*
X03853Y03655*
X03853Y03655*
X03855Y03653*
X03855Y03653*
X03856Y03652*
X03856Y03651*
X03858Y0365*
X03858Y03649*
X03859Y03648*
X0386Y03647*
X03861Y03646*
X03861Y03646*
X03863Y03644*
X03863Y03643*
X03864Y03642*
X03864Y03642*
X03866Y0364*
X03866Y03639*
X03867Y03638*
X03868Y03638*
X03869Y03637*
X03869Y03636*
X0387Y03635*
X03871Y03634*
X03872Y03633*
X03872Y03632*
X03873Y03631*
X03874Y0363*
X03875Y03629*
X03875Y03628*
X03877Y03627*
X03877Y03626*
X03878Y03625*
X03878Y03624*
X0388Y03623*
X0388Y03623*
X03881Y03621*
X03882Y03621*
X03882Y0362*
X03883Y03619*
X03884Y03618*
X03885Y03617*
X03886Y03616*
X03886Y03615*
X03887Y03614*
X03888Y03613*
X03889Y03612*
X0389Y03611*
X03891Y0361*
X03891Y03609*
X03892Y03608*
X03892Y03608*
X03894Y03606*
X03894Y03606*
X03895Y03604*
X03896Y03604*
X03897Y03603*
X03897Y03602*
X03898Y03601*
X03899Y036*
X039Y03599*
X039Y03598*
X03901Y03597*
X03902Y03596*
X03904Y03594*
X03904Y03594*
X03905Y03593*
X03905Y03593*
X03906Y03592*
X03906Y03591*
X03908Y03589*
X03908Y03589*
X03909Y03587*
X0391Y03587*
X03911Y03586*
X03911Y03585*
X03913Y03583*
X03913Y03583*
X03914Y03582*
X03914Y03581*
X03916Y0358*
X03916Y03579*
X03918Y03578*
X03918Y03577*
X03919Y03576*
X03919Y03575*
X0392Y03574*
X03921Y03574*
X03922Y03572*
X03922Y03571*
X03923Y0357*
X03924Y0357*
X03925Y03569*
X03925Y03568*
X03927Y03566*
X03927Y03565*
X03928Y03565*
X03928Y03564*
X03929Y03563*
X0393Y03563*
X03932Y03561*
X03932Y0356*
X03933Y03559*
X03933Y03559*
X03934Y03557*
X03935Y03557*
X03936Y03555*
X03936Y03555*
X03937Y03553*
X03938Y03553*
X03939Y03552*
X03939Y03551*
X03941Y03549*
X03941Y03548*
X03942Y03548*
X03943Y03547*
X03943Y03546*
X03944Y03546*
X03946Y03544*
X03946Y03543*
X03947Y03542*
X03947Y03541*
X03949Y0354*
X03949Y03539*
X0395Y03538*
X03951Y03537*
X03952Y03536*
X03952Y03536*
X03953Y03534*
X03953Y03534*
X03955Y03533*
X03955Y03532*
X03956Y03531*
X03956Y0353*
X03958Y03529*
X03958Y03528*
X0396Y03527*
X0396Y03526*
X03961Y03525*
X03961Y03524*
X03962Y03523*
X03963Y03523*
X03964Y03521*
X03965Y0352*
X03966Y03519*
X03966Y03519*
X03967Y03518*
X03967Y03517*
X03969Y03515*
X03969Y03515*
X0397Y03514*
X0397Y03513*
X03972Y03512*
X03972Y03511*
X03974Y0351*
X03974Y03509*
X03975Y03508*
X03975Y03507*
X03977Y03506*
X03977Y03505*
X03978Y03504*
X03979Y03503*
X0398Y03502*
X0398Y03502*
X03981Y03501*
X03981Y035*
X03983Y03498*
X03983Y03498*
X03984Y03497*
X03985Y03496*
X03986Y03495*
X03986Y03494*
X03988Y03493*
X03988Y03492*
X03989Y03491*
X03989Y0349*
X03991Y03489*
X03991Y03488*
X03992Y03487*
X03993Y03487*
X03994Y03485*
X03994Y03485*
X03996Y03483*
X03996Y03483*
X03997Y03481*
X03997Y03481*
X03998Y0348*
X03999Y03479*
X04Y03478*
X04Y03477*
X04002Y03476*
X04002Y03475*
X04003Y03474*
X04003Y03473*
X04005Y03472*
X04006Y03471*
X04006Y0347*
X04006Y03469*
X04005Y0347*
X04003Y03471*
X04002Y03472*
X04002Y03472*
X04Y03474*
X04Y03474*
X03997Y03477*
X03996Y03477*
X03995Y03478*
X03995Y03478*
X03992Y03481*
X03991Y03481*
X0399Y03482*
X0399Y03482*
X03987Y03485*
X03986Y03486*
X03986Y03486*
X03985Y03487*
X03983Y03489*
X03982Y03489*
X03981Y03491*
X0398Y03491*
X03977Y03494*
X03977Y03494*
X03975Y03495*
X03975Y03496*
X03973Y03497*
X03973Y03497*
X03971Y03499*
X0397Y035*
X03969Y03501*
X03968Y03501*
X03966Y03504*
X03965Y03504*
X03964Y03505*
X03963Y03505*
X0396Y03508*
X0396Y03509*
X03959Y0351*
X03958Y0351*
X03956Y03512*
X03955Y03513*
X03954Y03514*
X03953Y03514*
X03951Y03517*
X0395Y03517*
X03949Y03518*
X03948Y03518*
X03946Y03521*
X03945Y03521*
X03944Y03523*
X03943Y03523*
X03941Y03525*
X0394Y03526*
X03939Y03527*
X03938Y03527*
X03937Y03528*
X03936Y03529*
X03934Y03531*
X03933Y03532*
X03932Y03533*
X03931Y03533*
X03929Y03536*
X03928Y03536*
X03927Y03537*
X03927Y03537*
X03924Y0354*
X03924Y0354*
X03922Y03541*
X03921Y03542*
X03919Y03544*
X03918Y03544*
X03917Y03546*
X03916Y03546*
X03914Y03549*
X03913Y03549*
X03912Y0355*
X03912Y0355*
X03909Y03553*
X03909Y03553*
X03907Y03554*
X03907Y03555*
X03904Y03557*
X03903Y03557*
X03902Y03558*
X03902Y03559*
X039Y03561*
X03899Y03561*
X03897Y03563*
X03897Y03563*
X03895Y03565*
X03894Y03565*
X03892Y03567*
X03892Y03568*
X0389Y03569*
X0389Y03569*
X03887Y03572*
X03886Y03572*
X03885Y03573*
X03885Y03574*
X03882Y03576*
X03881Y03577*
X0388Y03578*
X0388Y03578*
X03877Y0358*
X03877Y03581*
X03875Y03582*
X03875Y03582*
X03872Y03585*
X03872Y03585*
X0387Y03586*
X0387Y03586*
X03868Y03589*
X03867Y03589*
X03866Y0359*
X03865Y03591*
X03863Y03593*
X03862Y03593*
X0386Y03595*
X03859Y03596*
X03858Y03597*
X03857Y03597*
X03855Y036*
X03855Y036*
X03854Y03601*
X03853Y03601*
X03851Y03603*
X0385Y03603*
X03847Y03601*
X03844Y036*
X03841Y03598*
X0384Y03597*
X03838Y03596*
X03835Y03594*
X03833Y03593*
X0383Y03591*
X03827Y03589*
X03822Y03586*
X03819Y03585*
X03816Y03583*
X03812Y03581*
X0381Y03579*
X03807Y03577*
X03805Y03576*
X03798Y03572*
X03795Y0357*
X03793Y03569*
X03788Y03566*
X03788Y03566*
X03787Y03565*
X03784Y03564*
X03781Y03562*
X03779Y0356*
X03775Y03558*
X03773Y03557*
X0377Y03555*
X03767Y03553*
X03764Y03551*
X03759Y03548*
X03755Y03546*
X03754Y03546*
X03754Y03547*
X03757Y03551*
X03758Y03552*
X0376Y03555*
X03763Y03559*
X03763Y0356*
X03764Y0356*
X03764Y03561*
X03765Y03562*
X03765Y03562*
X03766Y03563*
X03766Y03563*
X03767Y03564*
X03767Y03565*
X03768Y03565*
X03769Y03567*
X03775Y03574*
X03776Y03576*
X03776Y03577*
X03777Y03578*
X03778Y03579*
X03778Y03579*
X0378Y03581*
X03782Y03585*
X03783Y03585*
X03783Y03586*
X03784Y03587*
X03785Y03588*
X03787Y03591*
X0379Y03595*
X03791Y03596*
X03791Y03597*
X03792Y03598*
X03793Y03598*
X03793Y03599*
X03794Y036*
X03794Y036*
X03795Y03601*
X03795Y03602*
X03796Y03602*
X03796Y03603*
X03797Y03604*
X03798Y03605*
X03798Y03605*
X03799Y03606*
X03799Y03607*
X03801Y03609*
X03802Y0361*
X03802Y03611*
X03803Y03612*
X03802Y03614*
X038Y03616*
X038Y03617*
X03798Y03618*
X03798Y03619*
X03796Y03621*
X03795Y03622*
X03794Y03623*
X03793Y03624*
X03792Y03625*
X03791Y03626*
X03789Y03628*
X03789Y03629*
X03788Y0363*
X03787Y03631*
X03785Y03634*
X03784Y03634*
X03783Y03636*
X03783Y03636*
X03781Y03638*
X0378Y03639*
X03779Y0364*
X03779Y03641*
X03778Y03641*
X03778Y03641*
X03776Y03643*
X03776Y03644*
X03774Y03646*
X03773Y03647*
X03772Y03649*
X03771Y03649*
X0377Y03651*
X03769Y03652*
X03767Y03653*
X03767Y03654*
X03765Y03656*
X03765Y03656*
X03763Y03658*
X03763Y03659*
X03761Y03661*
X03761Y03661*
X03759Y03663*
X03759Y03664*
X03757Y03666*
X03756Y03667*
X03754Y03668*
X03754Y03669*
X03752Y03671*
X03752Y03671*
X0375Y03674*
X03749Y03674*
X03748Y03676*
X03748Y03676*
X03745Y03679*
X03745Y0368*
X03743Y03681*
X03743Y03682*
X03741Y03684*
X03741Y03684*
X03739Y03686*
X03739Y03686*
X03739Y03686*
X03738Y03687*
X03738Y03688*
X03737Y03688*
X03737Y03689*
X03735Y03689*
X03735Y03689*
X03735Y03685*
X03736Y03684*
X03736Y0368*
X03737Y03677*
X03737Y03675*
X03738Y0367*
X03738Y03665*
X03739Y03661*
X03739Y03658*
X0374Y03656*
X0374Y03654*
X03741Y0365*
X03741Y03649*
X03741Y03645*
X03741Y03645*
X03739Y03645*
X03735Y0365*
X03734Y0365*
X03733Y03652*
X03732Y03652*
X03729Y03655*
X03728Y03655*
X03726Y03658*
X03725Y03658*
X03723Y0366*
X03723Y0366*
X0372Y03663*
X03719Y03664*
X03717Y03666*
X03716Y03666*
X03714Y03669*
X03713Y03669*
X0371Y03672*
X03709Y03673*
X03707Y03674*
X03707Y03675*
X03704Y03677*
X03703Y03678*
X037Y03681*
X03699Y03682*
X03698Y03683*
X03697Y03683*
X03694Y03686*
X03694Y03686*
X03691Y0369*
X0369Y0369*
X03689Y0369*
X03688Y0369*
X03686Y03686*
X03683Y03678*
X03681Y03675*
X03678Y03668*
X03676Y03665*
X03674Y03661*
X03673Y0366*
X03673Y03662*
X03672Y03674*
X03672Y03676*
X03671Y03685*
X03671Y03686*
X03671Y03692*
X0367Y03704*
X0367Y0371*
X03669Y03715*
X03669Y03718*
X03668Y03718*
X03667Y03718*
X03666Y03715*
X03664Y03713*
X03663Y03711*
X03661Y03708*
X03661Y03708*
X03656Y03701*
X03655Y03699*
X03653Y03696*
X03652Y03694*
X03652Y03694*
X0365Y03692*
X03647Y03687*
X03645Y03684*
X03645Y03683*
X03643Y03681*
X03643Y03681*
X03642Y0368*
X03641Y03678*
X03638Y03673*
X03636Y03669*
X03635Y03668*
X03635Y03668*
X03634Y03667*
X0363Y0366*
X03629Y03659*
X03627Y03657*
X03627Y03656*
X03625Y03654*
X03625Y03653*
X03624Y03651*
X03623Y0365*
X03622Y03648*
X03621Y03647*
X03621Y03646*
X0362Y03646*
X03619Y03643*
X03617Y03641*
X03615Y03638*
X03615Y03637*
X03613Y03635*
X03613Y03635*
X03612Y03634*
X03611Y03632*
X0361Y03631*
X03609Y03629*
X03606Y03625*
X03605Y03622*
X03602Y03618*
X036Y03615*
X03599Y03613*
X03597Y0361*
X03595Y03608*
X03593Y03604*
X03593Y03603*
X03592Y03603*
X0359Y036*
X03589Y03598*
X03589Y03597*
X03587Y03595*
X03584Y0359*
X03581Y03587*
X0358Y03585*
X0358Y03587*
X0358Y03588*
X03581Y03592*
X03582Y03595*
X03583Y03597*
X03584Y036*
X03585Y03602*
X03585Y03605*
X03586Y03606*
X03586Y03608*
X03586Y03609*
X03587Y03611*
X03587Y03612*
X03588Y03615*
X03589Y03616*
X03589Y03617*
X0359Y03622*
X03591Y03624*
X03592Y03626*
X03592Y03629*
X03594Y03632*
X03594Y03634*
X03595Y03637*
X03595Y03638*
X03596Y0364*
X03596Y03643*
X03597Y03644*
X03598Y03646*
X03598Y03648*
X03598Y0365*
X03599Y03653*
X036Y03655*
X03601Y03659*
X03601Y0366*
X03602Y03662*
X03603Y03665*
X03602Y03666*
X03601Y03666*
X036Y03666*
X03599Y03665*
X03591Y03664*
X0359Y03664*
X03583Y03663*
X03579Y03663*
X03576Y03662*
X03574Y03662*
X03573Y03661*
X03573Y03661*
X03572Y03659*
X03571Y03658*
X0357Y03656*
X0357Y03655*
X03569Y03655*
X03569Y03654*
X03566Y03651*
X03566Y0365*
X03564Y03647*
X03564Y03646*
X03562Y03644*
X03562Y03643*
X03561Y03641*
X0356Y03641*
X0356Y0364*
X03559Y03639*
X03555Y03633*
X03552Y03628*
X0355Y03626*
X03548Y03622*
X03546Y03619*
X03546Y03618*
X03544Y03616*
X03544Y03616*
X03536Y03604*
X03534Y036*
X03534Y03599*
X03532Y03597*
X03532Y03596*
X0353Y03594*
X0353Y03594*
X03528Y03591*
X03527Y03589*
X03525Y03585*
X03522Y03582*
X03519Y03576*
X03518Y03576*
X03517Y03574*
X03515Y03571*
X03515Y0357*
X03513Y03568*
X03513Y03567*
X0351Y03563*
X0351Y03563*
X03509Y03562*
X03509Y03562*
X03504Y03553*
X03502Y03551*
X03501Y03549*
X03501Y03548*
X035Y03548*
X035Y03547*
X03495Y0354*
X03492Y03535*
X03491Y03533*
X03489Y03531*
X03488Y03528*
X03485Y03525*
X03485Y03524*
X03484Y03522*
X03483Y03521*
X03482Y03519*
X03482Y03519*
X03481Y03518*
X03481Y03518*
X03479Y03516*
X03479Y03515*
X03478Y03513*
X03476Y03513*
X03476Y0352*
X03475Y03521*
X03475Y03524*
X03474Y0353*
X03474Y03532*
X03474Y03533*
X03473Y03538*
X03473Y03539*
X03473Y03542*
X03472Y03543*
X03472Y03544*
X03472Y03546*
X03471Y03549*
X03471Y03551*
X0347Y03554*
X0347Y03559*
X03469Y03563*
X03469Y03564*
X03469Y03568*
X03468Y03569*
X03468Y03572*
X03467Y03575*
X03467Y03577*
X03466Y03583*
X03466Y03585*
X03465Y03586*
X03464Y03586*
X03462Y03585*
X03458Y03581*
X03458Y03581*
X03457Y0358*
X03457Y03579*
X03455Y03577*
X03454Y03577*
X03449Y03572*
X03449Y03572*
X03444Y03567*
X03443Y03567*
X03439Y03563*
X03438Y03562*
X03437Y03561*
X03437Y0356*
X03436Y0356*
X03436Y03559*
X03431Y03555*
X0343Y03555*
X03426Y0355*
X03425Y0355*
X03421Y03545*
X0342Y03545*
X03415Y0354*
X03415Y0354*
X0341Y03535*
X03409Y03535*
X03409Y03534*
X03408Y03533*
X03407Y03533*
X03402Y03528*
X03402Y03527*
X03397Y03523*
X03396Y03523*
X03391Y03517*
X03391Y03517*
X03386Y03512*
X03385Y03512*
X0338Y03507*
X0338Y03507*
X03375Y03502*
X03375Y03502*
X03374Y03502*
X03373Y035*
X03373Y035*
X03368Y03496*
X03367Y03495*
X03363Y0349*
X03362Y0349*
X03357Y03485*
X03357Y03485*
X03352Y03481*
X03351Y0348*
X03347Y03476*
X03346Y03475*
X03346Y03475*
X03345Y03474*
X03345Y03473*
X03344Y03473*
X03342Y03471*
X03342Y03471*
X0334Y0347*
X0334Y03469*
X03339Y03469*
X03339Y0347*
X03342Y03474*
X03343Y03475*
X03344Y03476*
X03344Y03477*
X03345Y03477*
X03345Y03478*
X03346Y03479*
X03346Y03479*
X03347Y0348*
X03348Y03481*
X03348Y03482*
X03349Y03483*
X03349Y03483*
X0335Y03484*
X0335Y03485*
X03351Y03485*
X03351Y03486*
X03353Y03487*
X03353Y03488*
X03357Y03494*
X03359Y03496*
X0336Y03497*
X03361Y03499*
X03362Y035*
X03363Y03501*
X03363Y03501*
X03364Y03502*
X03365Y03504*
X03366Y03505*
X03367Y03506*
X03367Y03506*
X03368Y03507*
X03368Y03508*
X03369Y03508*
X03369Y03509*
X0337Y0351*
X0337Y0351*
X03371Y03511*
X03371Y03512*
X03373Y03514*
X03374Y03515*
X03374Y03516*
X03376Y03518*
X03377Y03518*
X03377Y03519*
X03379Y03522*
X03381Y03524*
X03382Y03525*
X03385Y03529*
X03385Y0353*
X03386Y03531*
X03386Y03531*
X03387Y03532*
X03389Y03535*
X03391Y03537*
X03391Y03538*
X03394Y03541*
X03394Y03541*
X03395Y03542*
X03399Y03548*
X03402Y03552*
X03403Y03553*
X03404Y03554*
X03404Y03554*
X03405Y03555*
X03405Y03556*
X03407Y03558*
X03408Y03559*
X03409Y0356*
X03409Y03561*
X03411Y03563*
X03414Y03568*
X03415Y03568*
X03415Y03569*
X03417Y0357*
X03417Y03572*
X03418Y03572*
X03418Y03573*
X03419Y03574*
X03419Y03574*
X03421Y03576*
X03421Y03577*
X03422Y03577*
X03423Y03578*
X03423Y03579*
X03425Y03582*
X03427Y03584*
X03428Y03585*
X03432Y03591*
X03435Y03595*
X03436Y03596*
X03437Y03596*
X03437Y03597*
X03438Y03598*
X03438Y03598*
X03439Y03599*
X03439Y036*
X0344Y03601*
X0344Y03601*
X03441Y03602*
X03441Y03603*
X03442Y03603*
X03442Y03604*
X03443Y03605*
X03443Y03605*
X03444Y03606*
X03444Y03607*
X03445Y03608*
X03445Y03608*
X03446Y03609*
X03447Y0361*
X03447Y0361*
X03448Y03611*
X03449Y03613*
X0345Y03613*
X0345Y03614*
X03451Y03615*
X03451Y03616*
X03454Y03619*
X03454Y03619*
X03455Y0362*
X03455Y03621*
X03456Y03621*
X03456Y03622*
X03457Y03623*
X03458Y03623*
X03458Y03624*
X03459Y03625*
X03459Y03626*
X0346Y03627*
X0346Y03627*
X03461Y03628*
X03461Y03629*
X03463Y0363*
X03467Y03636*
X03468Y03637*
X03468Y03638*
X03471Y0364*
X03472Y03643*
X03474Y03642*
X03475Y03641*
X03475Y03641*
X03476Y03641*
X03494Y03622*
X03495Y03622*
X03497Y0362*
X03497Y03619*
X03498Y03619*
X03499Y0362*
X035Y03621*
X035Y03621*
X03501Y03622*
X03502Y03623*
X03502Y03623*
X03503Y03624*
X03503Y03625*
X03504Y03625*
X03504Y03626*
X03505Y03627*
X03505Y03628*
X03506Y03629*
X03506Y03629*
X0351Y03633*
X0351Y03634*
X0351Y03635*
X03511Y03635*
X03511Y03636*
X03512Y03637*
X03512Y03637*
X03513Y03638*
X03513Y03638*
X03513Y03638*
X03514Y03639*
X03514Y0364*
X03516Y03641*
X03516Y03642*
X03519Y03646*
X0352Y03647*
X0352Y03647*
X03523Y03651*
X03524Y03652*
X03525Y03653*
X03525Y03654*
X03526Y03654*
X03526Y03655*
X03527Y03657*
X03528Y03658*
X03529Y03659*
X03529Y03659*
X0353Y0366*
X0353Y03661*
X03533Y03664*
X03534Y03665*
X03535Y03667*
X03536Y03668*
X03536Y03668*
X03537Y03669*
X03537Y0367*
X03538Y03671*
X03539Y03672*
X03542Y03676*
X03542Y03676*
X03543Y03677*
X03543Y03678*
X03544Y03678*
X03545Y03679*
X03545Y0368*
X03546Y03682*
X03547Y03683*
X03548Y03683*
X03548Y03684*
X03551Y03688*
X03552Y03689*
X03553Y0369*
X03553Y03691*
X03554Y03692*
X03554Y03692*
X03556Y03693*
X03558Y03694*
X03559Y03694*
X03561Y03694*
X03562Y03695*
X03564Y03695*
X03566Y03695*
X03569Y03696*
X03571Y03696*
X03576Y03697*
X03578Y03698*
X03579Y03698*
X03581Y03698*
X03582Y03699*
X03585Y03699*
X03587Y037*
X03594Y03701*
X03598Y03702*
X03599Y03702*
X03601Y03703*
X03602Y03704*
X03603Y03704*
X03603Y03705*
X03604Y03706*
X03604Y03706*
X03605Y03707*
X03605Y03708*
X03606Y03708*
X03606Y03709*
X03608Y0371*
X03608Y03711*
X03609Y03712*
X03609Y03712*
X03609Y03713*
X0361Y03713*
X0361Y03714*
X03611Y03715*
X03612Y03716*
X03612Y03717*
X03617Y03723*
X03618Y03724*
X0362Y03726*
X03621Y03727*
X03621Y03728*
X03622Y03729*
X03623Y0373*
X03624Y03732*
X03625Y03733*
X03626Y03734*
X03627Y03736*
X0363Y0374*
X03631Y03741*
X03631Y03741*
X03632Y03742*
X03632Y03742*
X03633Y03743*
X03633Y03744*
X03634Y03745*
X03635Y03745*
X03636Y03746*
X03636Y03747*
X03637Y03748*
X03637Y03748*
X03638Y0375*
X03639Y03751*
X0364Y03752*
X0364Y03753*
X03645Y03759*
X03648Y03763*
X03649Y03763*
X03649Y03764*
X0365Y03765*
X0365Y03766*
X03651Y03766*
X03651Y03767*
X03653Y03769*
X03653Y0377*
X03654Y03771*
X03654Y03771*
X03655Y03772*
X03655Y03772*
X03656Y03773*
X03656Y03774*
X03657Y03775*
X03658Y03775*
X03659Y03776*
X03659Y03777*
X0366Y03778*
X0366Y03778*
X03661Y03779*
X03661Y0378*
X03662Y03781*
X03662Y03781*
X03663Y03782*
X03664Y03783*
X03664Y03784*
X03665Y03784*
X03665Y03785*
X03666Y03786*
X03667Y03787*
X03668Y03788*
X03668Y03789*
X03669Y03789*
X03669Y0379*
X0367Y03791*
X0367Y03791*
X03671Y03792*
X03671Y03793*
X03672Y03794*
X03672Y03794*
X03673Y03795*
X03673Y03796*
X03674Y03797*
X03675Y03797*
X03676Y03799*
X03677Y038*
X03677Y038*
X03678Y03801*
X03678Y03802*
X03681Y03805*
X03681Y03805*
X03682Y03806*
X03683Y03807*
X03683Y03808*
X03684Y03809*
X03686Y03811*
X03687Y03812*
X03688Y03811*
G37*
G36*
X03705Y03488D02*
X03705Y03488D01*
X03706Y03485*
X03707Y03482*
X03707Y03482*
Y03481*
X03707Y03479*
X03707Y03476*
X03706Y03475*
X03706Y03473*
X03706Y03471*
X03705Y03467*
X03704Y03466*
X03704Y03464*
X03703Y03463*
X03702Y03459*
X03701Y03457*
X03701Y03453*
X037Y03452*
X037Y03448*
X037Y03447*
X03699Y03446*
X03697Y03446*
X03696Y03447*
X03696Y03449*
X03696Y03452*
X03697Y03459*
X03697Y03467*
X03697Y03472*
X03698Y03475*
X03698Y03481*
X03698Y03485*
X03699Y03487*
X037Y03487*
X03702Y03488*
X03703Y03488*
X03705Y03488*
G37*
G36*
X02227Y0151D02*
X02229D01*
Y0151*
X02249*
Y01509*
X02257*
Y01508*
X02258*
Y01507*
X02256*
Y01506*
X02241*
Y01505*
X0223*
Y01502*
X02231*
Y015*
X02232*
Y01498*
X02233*
Y01491*
X02232*
Y0149*
X02231*
Y01488*
X0223*
Y01486*
X02221*
Y01487*
X0222*
Y0149*
X0222*
Y01491*
X02192*
Y0149*
X02191*
Y01489*
X0219*
Y01487*
X02191*
Y01486*
X02192*
Y01484*
X02192*
Y01483*
X02193*
Y01482*
X02194*
Y01481*
X02195*
Y01479*
X02196*
Y01476*
X02197*
Y01474*
X02198*
Y0145*
X02197*
Y01449*
X02194*
Y0145*
X02193*
Y01451*
X02192*
Y01472*
X02192*
Y01475*
X02191*
Y01476*
X0219*
Y01478*
X02189*
Y0148*
X02188*
Y01481*
X02187*
Y01482*
X02186*
Y01482*
X02179*
Y01482*
X02178*
Y01481*
X02177*
Y0148*
X02176*
Y01478*
X02175*
Y01477*
X02174*
Y01476*
X02173*
Y01475*
X0217*
Y01474*
X02169*
Y01473*
X02161*
Y01474*
X02159*
Y01475*
X02157*
Y01476*
X02155*
Y01477*
X02155*
Y01478*
X02154*
Y01479*
X02153*
Y0148*
X02152*
Y01481*
X02151*
Y01482*
X0215*
Y01482*
X02143*
Y01482*
X02142*
Y01481*
X02141*
Y01479*
X0214*
Y01478*
X02139*
Y01476*
X02138*
Y01474*
X02137*
Y0147*
X02136*
Y0145*
X02135*
Y01449*
X02132*
Y0145*
X02131*
Y01474*
X02132*
Y01476*
X02133*
Y01479*
X02134*
Y0148*
X02135*
Y01482*
X02136*
Y01483*
X02136*
Y01484*
X02137*
Y01485*
X02138*
Y01487*
X02139*
Y01489*
X02138*
Y0149*
X02137*
Y01491*
X02108*
Y01489*
X02107*
Y01486*
X02098*
Y01487*
X02097*
Y0149*
X02096*
Y01491*
X02095*
Y01498*
X02096*
Y01501*
X02097*
Y01503*
X02098*
Y01505*
X02088*
Y01506*
X02072*
Y01507*
X02071*
Y01508*
X02072*
Y01509*
X0208*
Y0151*
X021*
Y0151*
X02101*
Y01511*
X02103*
Y0151*
X02104*
Y0151*
X02126*
Y01509*
X02132*
Y01508*
X02134*
Y01507*
X02132*
Y01506*
X02118*
Y01505*
X02107*
Y01501*
X02108*
Y015*
X02108*
Y01499*
X02153*
Y015*
X02155*
Y01501*
X02155*
Y01501*
X02157*
Y01502*
X02158*
Y01503*
X02161*
Y01504*
X02168*
Y01503*
X02171*
Y01502*
X02173*
Y01501*
X02174*
Y01501*
X02175*
Y015*
X02177*
Y01499*
X02219*
Y015*
X0222*
Y01501*
X0222*
Y01502*
X02221*
Y01504*
X02222*
Y01505*
X02211*
Y01506*
X02197*
Y01507*
X02195*
Y01508*
X02197*
Y01509*
X02203*
Y0151*
X02224*
Y0151*
X02225*
Y01511*
X02227*
Y0151*
G37*
G36*
X02126Y0143D02*
X02127Y0143D01*
X02128Y0143*
X02129Y0143*
X02131Y01429*
X02132Y01429*
X02134Y01429*
X02135Y01428*
X02137Y01428*
X02139Y01427*
X02141Y01426*
X02142Y01425*
X02144Y01424*
X02144Y01424*
X02144Y01424*
X02145Y01424*
X02145Y01424*
X02145*
X02146Y01424*
X02146Y01424*
X02146Y01425*
X02147Y01425*
X02147Y01425*
X02147Y01425*
X02147Y01425*
X02147*
X02148Y01425*
X02148Y01425*
X02148Y01424*
X02148Y01424*
Y01423*
Y01419*
X02149Y01412*
Y01412*
Y01412*
X02149Y01412*
X02149Y01411*
Y01411*
Y01411*
Y0141*
X02149Y0141*
X02148Y01409*
X02148Y01409*
X02148Y01409*
X02148*
X02148Y01409*
X02147Y01409*
X02147Y0141*
X02147Y0141*
X02147Y01411*
X02146Y01411*
Y01411*
X02146Y01412*
X02146Y01412*
X02146Y01412*
X02146Y01413*
X02146Y01414*
X02145Y01415*
X02144Y01417*
X02143Y01418*
X02141Y0142*
X0214Y01421*
X02139Y01422*
X02139Y01422*
X02139Y01422*
X02139Y01422*
X02138Y01423*
X02138Y01423*
X02137Y01424*
X02136Y01424*
X02135Y01425*
X02134Y01425*
X02133Y01426*
X0213Y01427*
X02129Y01427*
X02127Y01427*
X02126Y01427*
X02124Y01427*
X02124*
X02123Y01427*
X02123Y01427*
X02122Y01427*
X02121Y01427*
X0212Y01427*
X02118Y01426*
X02117Y01426*
X02116Y01425*
X02114Y01425*
X02113Y01424*
X02111Y01423*
X0211Y01422*
X02109Y01421*
X02107Y01419*
X02107Y01419*
X02107Y01419*
X02107Y01418*
X02106Y01418*
X02106Y01417*
X02105Y01416*
X02105Y01415*
X02104Y01414*
X02103Y01412*
X02103Y01411*
X02102Y01409*
X02102Y01407*
X02101Y01405*
X02101Y01403*
X02101Y01401*
X02101Y01398*
Y01398*
Y01398*
X02101Y01397*
Y01396*
X02101Y01395*
X02101Y01394*
X02101Y01393*
X02102Y01391*
X02102Y01389*
X02102Y01388*
X02103Y01386*
X02103Y01384*
X02104Y01382*
X02105Y01381*
X02106Y01379*
X02107Y01377*
X02107Y01377*
X02107Y01377*
X02108Y01377*
X02108Y01376*
X02109Y01376*
X0211Y01375*
X0211Y01374*
X02111Y01373*
X02113Y01373*
X02114Y01372*
X02115Y01371*
X02117Y01371*
X02118Y0137*
X0212Y0137*
X02121Y01369*
X02123Y01369*
X02124*
X02124Y01369*
X02125*
X02126Y01369*
X02127Y0137*
X02127Y0137*
X02129Y0137*
X02132Y01371*
X02134Y01372*
X02135Y01372*
X02136Y01373*
X02136Y01373*
X02136Y01373*
X02137Y01374*
X02137Y01374*
X02138Y01375*
X02139Y01376*
X02141Y01377*
X02142Y01379*
X02143Y01381*
X02144Y01382*
X02144Y01383*
Y01383*
X02144Y01383*
X02144Y01383*
X02144Y01384*
X02145Y01384*
X02145Y01385*
X02146Y01385*
X02146Y01385*
X02146*
X02146Y01385*
X02146Y01385*
X02147Y01385*
X02147Y01385*
X02147Y01384*
Y01383*
Y01383*
Y01383*
X02147Y01383*
X02147Y01382*
X02147Y01381*
X02146Y0138*
X02145Y01377*
X02145Y01375*
Y01375*
Y01375*
X02145Y01375*
X02145Y01374*
X02144Y01374*
X02144Y01374*
X02144Y01373*
X02144Y01373*
X02143Y01373*
X02143Y01373*
X02143Y01372*
X02142Y01372*
X02142Y01372*
X02141Y01372*
X02141Y01371*
X0214Y01371*
X02139Y01371*
X02138Y0137*
X02137Y0137*
X02136Y01369*
X02134Y01369*
X02133Y01368*
X02131Y01368*
X0213Y01367*
X02128Y01367*
X02126Y01367*
X02124Y01367*
X02122Y01367*
X02122*
X02121Y01367*
X0212Y01367*
X02119Y01367*
X02118Y01367*
X02116Y01367*
X02115Y01367*
X02113Y01368*
X02111Y01368*
X0211Y01369*
X02108Y0137*
X02106Y01371*
X02104Y01372*
X02103Y01373*
X02101Y01374*
X02101Y01374*
X02101Y01375*
X02101Y01375*
X021Y01376*
X021Y01377*
X02099Y01378*
X02098Y01379*
X02098Y0138*
X02097Y01382*
X02096Y01383*
X02096Y01385*
X02095Y01387*
X02095Y01389*
X02094Y01391*
X02094Y01393*
X02094Y01396*
Y01396*
Y01396*
Y01397*
X02094Y01397*
X02094Y01398*
X02094Y014*
X02094Y01401*
X02095Y01403*
X02095Y01405*
X02095Y01407*
X02096Y01408*
X02097Y01411*
X02097Y01413*
X02098Y01415*
X021Y01417*
X02101Y01419*
X02102Y0142*
X02102Y01421*
X02103Y01421*
X02103Y01421*
X02104Y01422*
X02105Y01423*
X02106Y01423*
X02107Y01424*
X02108Y01425*
X0211Y01426*
X02112Y01427*
X02113Y01428*
X02115Y01429*
X02117Y01429*
X0212Y0143*
X02122Y0143*
X02124Y0143*
X02126*
X02126Y0143*
G37*
G36*
X02205Y01429D02*
X02205Y01429D01*
X02206Y01429*
X02206Y01428*
X02206Y01428*
X02221Y01381*
X02222Y01377*
Y01377*
X02222Y01377*
X02222Y01376*
X02223Y01375*
X02223Y01374*
X02223Y01373*
X02224Y01373*
X02224Y01372*
X02224Y01371*
X02224Y01371*
X02225Y01371*
X02225Y01371*
X02225Y01371*
X02226Y0137*
X02226Y0137*
X02227Y0137*
X02228Y01369*
X02228*
X02228Y01369*
X02228Y01369*
X02229Y01369*
X02229Y01368*
X02229Y01368*
Y01368*
X02229Y01368*
X02229Y01368*
X02229Y01367*
X02228Y01367*
X02228Y01367*
X02227Y01367*
X02227*
X02226Y01367*
X02226Y01367*
X02226*
X02225Y01367*
X02225*
X02224Y01367*
X02223Y01367*
X02222*
X02221Y01368*
X02218*
X02217Y01367*
X02216*
X02215Y01367*
X02214Y01367*
X02214*
X02213Y01367*
X02213Y01367*
X02212*
X02212Y01367*
X02212*
X02211Y01367*
X02211Y01367*
X02211Y01368*
X02211Y01368*
Y01368*
X02211Y01368*
X02211Y01368*
X02211Y01369*
X02212Y01369*
X02212Y01369*
X02213Y01369*
X02213Y01369*
X02214Y01369*
X02214Y0137*
X02215Y0137*
X02215Y0137*
X02216Y01371*
X02216Y01372*
X02216Y01373*
Y01373*
Y01373*
Y01373*
X02216Y01374*
X02216Y01374*
X02216Y01375*
X02216Y01377*
X02213Y01387*
X02212Y01388*
Y01388*
X02212Y01388*
X02212Y01389*
X02211Y01389*
X02211Y01389*
X02211Y01389*
X02211Y0139*
X02211*
X02211Y0139*
X0221Y0139*
X0221*
X02209Y0139*
X02189*
X02188Y0139*
X02188Y0139*
X02187Y0139*
X02187Y01389*
X02187Y01389*
X02187Y01389*
X02186Y01388*
X0218Y01377*
X0218Y01377*
X0218Y01376*
X0218Y01376*
X0218Y01375*
X02179Y01374*
X02179Y01373*
X02179Y01372*
Y01372*
X02179Y01372*
X02179Y01372*
X0218Y01371*
X0218Y01371*
X0218Y0137*
X02181Y0137*
X02182Y01369*
X02182*
X02183Y01369*
X02183Y01369*
X02184Y01369*
X02184Y01369*
X02185Y01368*
X02185Y01368*
X02185Y01368*
Y01368*
X02185Y01367*
X02185Y01367*
X02185Y01367*
X02184Y01367*
X02184*
X02183Y01367*
X02183Y01367*
X02183*
X02182Y01367*
X02182*
X02181Y01367*
X0218Y01367*
X02179*
X02178Y01368*
X02175*
X02174Y01367*
X02173Y01367*
X02171Y01367*
X02171*
X02171Y01367*
X0217Y01367*
X02169*
X02169Y01367*
X02168Y01367*
X02168Y01368*
X02168Y01368*
Y01368*
X02168Y01368*
X02169Y01369*
X02169Y01369*
X02169Y01369*
X0217Y01369*
X02171Y0137*
X02171*
X02172Y0137*
X02172Y0137*
X02173Y01371*
X02173Y01371*
X02174Y01372*
X02175Y01373*
X02175Y01374*
X02177Y01377*
X02203Y01428*
Y01428*
X02203Y01428*
X02203Y01429*
X02204Y01429*
X02204Y01429*
X02205Y01429*
X02205*
X02205Y01429*
G37*
G36*
X02239Y01377D02*
X02239Y01377D01*
X0224Y01376*
X02241Y01375*
X02241Y01375*
X02241Y01374*
X02242Y01374*
X02242Y01373*
X02242Y01373*
X02243Y01373*
X02243Y01373*
X02243Y01372*
Y01372*
X02243Y01372*
X02243Y01372*
X02242Y01371*
X02242Y01371*
X02242Y01371*
X02241Y0137*
X02241Y0137*
X0224Y01369*
X02239Y01368*
X02239Y01368*
X02238Y01367*
X02238Y01367*
X02238Y01367*
X02237Y01367*
X02237*
X02237Y01367*
X02237Y01367*
X02236Y01367*
X02236Y01368*
X02236Y01368*
X02236Y01368*
X02236Y01368*
X02235Y01369*
X02235Y0137*
X02234Y01371*
X02234Y01371*
X02233Y01371*
X02233Y01372*
X02233Y01372*
Y01372*
X02233Y01372*
X02233Y01373*
X02234Y01373*
X02234Y01373*
X02234*
X02234Y01374*
X02235Y01374*
X02235Y01374*
X02236Y01375*
X02237Y01376*
X02237Y01376*
X02237Y01377*
X02238Y01377*
X02238Y01377*
X02238*
X02239Y01377*
G37*
G36*
X02159D02*
X02159Y01377D01*
X0216Y01376*
X02161Y01375*
X02161Y01375*
X02161Y01374*
X02162Y01374*
X02163Y01373*
X02163Y01373*
X02163Y01373*
X02163Y01373*
X02163Y01372*
Y01372*
X02163Y01372*
X02163Y01372*
X02162Y01371*
X02162Y01371*
X02162Y01371*
X02161Y0137*
X02161Y0137*
X0216Y01369*
X02159Y01368*
X02159Y01368*
X02159Y01367*
X02158Y01367*
X02158Y01367*
X02157Y01367*
X02157*
X02157Y01367*
X02157Y01367*
X02157Y01367*
X02156Y01368*
X02156Y01368*
X02156Y01368*
X02156Y01368*
X02156Y01369*
X02155Y0137*
X02154Y01371*
X02154Y01371*
X02153Y01371*
X02153Y01372*
X02153Y01372*
Y01372*
X02153Y01372*
X02153Y01373*
X02154Y01373*
X02154Y01373*
X02154*
X02154Y01374*
X02155Y01374*
X02155Y01374*
X02156Y01375*
X02157Y01376*
X02157Y01376*
X02158Y01377*
X02158Y01377*
X02158Y01377*
X02159*
X02159Y01377*
G37*
%LNpcbfoc-2*%
%LPC*%
G36*
X03699Y03496D02*
X03698Y03496D01*
X03697Y03495*
X03697Y03495*
X03697Y03492*
X03698Y03492*
X03698Y03492*
X03698Y03492*
X03699Y03491*
X03701Y03491*
X03701Y03492*
X03701Y03492*
X03702Y03493*
X03702Y03495*
X03701Y03496*
X03699Y03496*
G37*
G36*
X02202Y01419D02*
X02202D01*
X02202Y01418*
X02202Y01418*
X02201Y01418*
X02201Y01418*
X02201Y01418*
X02201Y01417*
X02201Y01417*
X02201Y01416*
X0219Y01396*
X02189Y01395*
Y01395*
X02189Y01395*
X02189Y01394*
Y01394*
X02189Y01394*
X0219Y01394*
X0219Y01394*
X02207*
X02208Y01394*
X02208Y01394*
X02209Y01394*
X02209Y01394*
X0221Y01394*
X0221Y01395*
Y01395*
Y01395*
X0221Y01395*
X0221Y01396*
Y01396*
X02209Y01396*
X02209Y01397*
X02209Y01397*
X02203Y01416*
Y01416*
X02203Y01416*
X02203Y01417*
X02203Y01417*
X02203Y01418*
Y01418*
X02203Y01418*
X02202Y01418*
X02202Y01418*
X02202Y01419*
G37*
%LNpcbfoc-3*%
%LPD*%
G54D10*
X02123Y03314D02*
D01*
D01*
G75*
G03X02113I-00004J0D01*
G74*G01*
D01*
G75*
G03X02123I00004J0D01*
G74*G01*
X02883Y03149D02*
D01*
D01*
G75*
G03X02874I-00004J0D01*
G74*G01*
D01*
G75*
G03X02883I00004J0D01*
G74*G01*
X02588Y02482D02*
D01*
D01*
G75*
G03X02579I-00004J0D01*
G74*G01*
D01*
G75*
G03X02588I00004J0D01*
G74*G01*
X0398Y02759D02*
D01*
D01*
G75*
G03X0397I-00004J0D01*
G74*G01*
D01*
G75*
G03X0398I00004J0D01*
G74*G01*
X02765Y0228D02*
D01*
D01*
G75*
G03X02756I-00004J0D01*
G74*G01*
D01*
G75*
G03X02765I00004J0D01*
G74*G01*
X03631Y03316D02*
D01*
D01*
G75*
G03X03622I-00004J0D01*
G74*G01*
D01*
G75*
G03X03631I00004J0D01*
G74*G01*
X03979Y02166D02*
D01*
D01*
G75*
G03X0397I-00004J0D01*
G74*G01*
D01*
G75*
G03X03979I00004J0D01*
G74*G01*
X03025Y03079D02*
D01*
D01*
G75*
G03X03015I-00004J0D01*
G74*G01*
D01*
G75*
G03X03025I00004J0D01*
G74*G01*
X02551Y03752D02*
D01*
D01*
G75*
G03X02541I-00004J0D01*
G74*G01*
D01*
G75*
G03X02551I00004J0D01*
G74*G01*
X03243Y03D02*
D01*
D01*
G75*
G03X03233I-00004J0D01*
G74*G01*
D01*
G75*
G03X03243I00004J0D01*
G74*G01*
X0343Y03399D02*
D01*
D01*
G75*
G03X0342I-00004J0D01*
G74*G01*
D01*
G75*
G03X0343I00004J0D01*
G74*G01*
X03634Y02127D02*
D01*
D01*
G75*
G03X03625I-00004J0D01*
G74*G01*
D01*
G75*
G03X03634I00004J0D01*
G74*G01*
X03631Y02725D02*
D01*
D01*
G75*
G03X03621I-00004J0D01*
G74*G01*
D01*
G75*
G03X03631I00004J0D01*
G74*G01*
X03981Y01569D02*
D01*
D01*
G75*
G03X03971I-00004J0D01*
G74*G01*
D01*
G75*
G03X03981I00004J0D01*
G74*G01*
G54D11*
X02797Y03219D02*
D01*
D01*
G75*
G03X02777I-00009J0D01*
G74*G01*
D01*
G75*
G03X02797I00009J0D01*
G74*G01*
G54D12*
X02004Y03403D02*
X02052D01*
X01893Y03227D02*
Y03352D01*
X02004Y03176D02*
X02052D01*
Y03238*
Y03341D02*
Y03403D01*
X03457Y02211D02*
X03514D01*
X03457Y02322D02*
X03514D01*
X0282Y03186D02*
Y03403D01*
X02604D02*
X0282D01*
X02604Y03186D02*
Y03403D01*
Y03186D02*
X0282D01*
X02631Y02443D02*
X02638D01*
X02529D02*
X02536D01*
X02529Y02265D02*
Y02443D01*
X02631Y02265D02*
X02638D01*
X02529D02*
X02536D01*
X02638D02*
Y02443D01*
X03528Y01757D02*
Y01861D01*
X034Y01757D02*
Y01861D01*
X03411Y02428D02*
Y02532D01*
X03539Y02428D02*
Y02532D01*
X03878Y03021D02*
X03898D01*
Y02757D02*
Y03021D01*
X03878Y02757D02*
X03898D01*
X03466Y02877D02*
X03523D01*
X03466Y02766D02*
X03523D01*
X03522Y02983D02*
Y03088D01*
X03394Y02983D02*
Y03088D01*
X02955Y02715D02*
Y02766D01*
X02902Y02715D02*
Y02766D01*
X02713Y02594D02*
X02752D01*
X02713Y02645D02*
X02752D01*
X0273Y02306D02*
X02742D01*
X02997D02*
X03009D01*
Y02573D02*
Y02585D01*
Y02306D02*
Y02318D01*
X0273Y02585D02*
X02742D01*
X02997D02*
X03009D01*
X0273Y02573D02*
Y02585D01*
Y02306D02*
Y02318D01*
X03703Y03318D02*
X03723D01*
X03703Y03054D02*
Y03318D01*
Y03054D02*
X03723D01*
X03878Y02428D02*
X03898D01*
Y02164D02*
Y02428D01*
X03878Y02164D02*
X03898D01*
X0298Y02035D02*
Y02092D01*
X02869Y02035D02*
Y02092D01*
X02677Y02017D02*
Y021D01*
X02606Y02017D02*
Y021D01*
X02837Y01944D02*
Y01962D01*
X02782Y01944D02*
Y01962D01*
X02879Y03085D02*
X02914Y0312D01*
X02841Y03122D02*
X02876Y03158D01*
X02864Y0296D02*
Y03039D01*
X02931Y0296D02*
Y03039D01*
X03Y03163D02*
Y03181D01*
X03072Y03107D02*
X03129D01*
X03201Y03163D02*
Y03181D01*
X03072Y03237D02*
X03129D01*
X02479Y03728D02*
X02542D01*
X02479Y0364D02*
X02542D01*
X02591Y03554D02*
X02646D01*
X02591Y03495D02*
X02646D01*
X02437Y03424D02*
X02487D01*
X02437Y03477D02*
X02487D01*
X0318Y03028D02*
Y03031D01*
Y0295D02*
Y02971D01*
Y0289D02*
Y02893D01*
X02991Y0289D02*
X0318D01*
X02991Y03028D02*
Y03031D01*
Y0295D02*
Y02971D01*
Y0289D02*
Y02893D01*
Y03031D02*
X0318D01*
X03367Y03427D02*
Y0343D01*
Y03349D02*
Y0337D01*
Y03289D02*
Y03291D01*
X03178Y03289D02*
X03367D01*
X03178Y03427D02*
Y0343D01*
Y03349D02*
Y0337D01*
Y03289D02*
Y03291D01*
Y0343D02*
X03367D01*
X02561Y02233D02*
X02618D01*
X02561Y02123D02*
X02618D01*
X02212Y02482D02*
X02278Y02548D01*
X02385Y0231D02*
X0245Y02375D01*
X02754Y02021D02*
Y021D01*
X02687Y02021D02*
Y021D01*
X03265Y0159D02*
X03322D01*
X03265Y017D02*
X03322D01*
X02361Y02241D02*
X02388D01*
X02361Y02142D02*
X02388D01*
X02436Y03432D02*
X02486D01*
X02436Y03379D02*
X02486D01*
X03706Y02128D02*
X03726D01*
X03706Y01865D02*
Y02128D01*
Y01865D02*
X03726D01*
X03703Y02726D02*
X03723D01*
X03703Y02463D02*
Y02726D01*
Y02463D02*
X03723D01*
X03879Y01567D02*
X03899D01*
Y01831*
X03879D02*
X03899D01*
X03061Y0333D02*
Y0338D01*
X03114Y0333D02*
Y0338D01*
X03159Y03528D02*
X03238D01*
X03159Y03461D02*
X03238D01*
X03255Y03387D02*
X03249Y03393D01*
X03236*
X03229Y03387*
Y0338*
X03236Y03374*
X03249*
X03255Y03367*
Y0336*
X03249Y03354*
X03236*
X03229Y0336*
X03268Y03393D02*
Y03354D01*
X03282Y03367*
X03295Y03354*
Y03393*
X03334Y03354D02*
X03308D01*
X03334Y0338*
Y03387*
X03327Y03393*
X03314*
X03308Y03387*
X02854Y02973D02*
X02815D01*
Y02992*
X02821Y02999*
X02835*
X02841Y02992*
Y02973*
Y02986D02*
X02854Y02999D01*
X02815Y03038D02*
Y03012D01*
X02835*
X02828Y03025*
Y03032*
X02835Y03038*
X02848*
X02854Y03032*
Y03019*
X02848Y03012*
X03172Y03073D02*
X03165Y03079D01*
X03152*
X03145Y03073*
Y03046*
X03152Y0304*
X03165*
X03172Y03046*
X03185Y0304D02*
X03198D01*
X03191*
Y03079*
X03185Y03073*
X03071Y03423D02*
X03065Y03416D01*
Y03403*
X03071Y03397*
X03098*
X03104Y03403*
Y03416*
X03098Y03423*
X03071Y03436D02*
X03065Y03443D01*
Y03456*
X03071Y03462*
X03078*
X03085Y03456*
Y03449*
Y03456*
X03091Y03462*
X03098*
X03104Y03456*
Y03443*
X03098Y03436*
G54D13*
X02114Y0299D02*
X02104Y03D01*
X02085*
X02075Y0299*
Y0298*
X02085Y0297*
X02104*
X02114Y0296*
Y02951*
X02104Y02941*
X02085*
X02075Y02951*
X02134Y03D02*
Y02941D01*
X02154Y0296*
X02174Y02941*
Y03*
X02234Y0299D02*
X02224Y03D01*
X02204*
X02194Y0299*
Y02951*
X02204Y02941*
X02224*
X02234Y02951*
X02254Y03D02*
Y02941D01*
X02294*
X02314Y03D02*
Y02941D01*
Y0296*
X02354Y03*
X02324Y0297*
X02354Y02941*
X02063Y03093D02*
X02053Y03103D01*
X02034*
X02024Y03093*
Y03083*
X02034Y03073*
X02053*
X02063Y03063*
Y03054*
X02053Y03044*
X02034*
X02024Y03054*
X02083Y03103D02*
Y03044D01*
X02103Y03063*
X02123Y03044*
Y03103*
X02143D02*
Y03044D01*
X02173*
X02183Y03054*
Y03093*
X02173Y03103*
X02143*
X02203D02*
X02223D01*
X02213*
Y03044*
X02203*
X02223*
X02283Y03103D02*
X02263D01*
X02253Y03093*
Y03054*
X02263Y03044*
X02283*
X02293Y03054*
Y03093*
X02283Y03103*
X04068Y01943D02*
Y01982D01*
X04087Y02002*
X04107Y01982*
Y01943*
Y01972*
X04068*
X04046Y0258D02*
Y02521D01*
X04075*
X04085Y02531*
Y0254*
X04075Y0255*
X04046*
X04075*
X04085Y0256*
Y0257*
X04075Y0258*
X04046*
X04093Y03159D02*
X04083Y03169D01*
X04064*
X04054Y03159*
Y0312*
X04064Y0311*
X04083*
X04093Y0312*
X031Y0162D02*
X03139D01*
X03119Y0164D02*
Y01601D01*
X02802Y0162D02*
X02841D01*
X01925Y03504D02*
X01905D01*
X01915*
Y03455*
X01905Y03445*
X01896*
X01886Y03455*
X01945Y03445D02*
X01965D01*
X01955*
Y03504*
X01945Y03494*
X03383Y03038D02*
X03324D01*
Y03068*
X03334Y03078*
X03354*
X03364Y03068*
Y03038*
Y03058D02*
X03383Y03078D01*
X03324Y03098D02*
Y03137D01*
X03334*
X03373Y03098*
X03383*
X03187Y01761D02*
X03177Y01771D01*
X03157*
X03147Y01761*
Y01722*
X03157Y01712*
X03177*
X03187Y01722*
X03246Y01771D02*
X03226Y01761D01*
X03207Y01742*
Y01722*
X03216Y01712*
X03236*
X03246Y01722*
Y01732*
X03236Y01742*
X03207*
X0341Y02186D02*
X034Y02196D01*
X0338*
X0337Y02186*
Y02147*
X0338Y02137*
X034*
X0341Y02147*
X0343Y02196D02*
X03469D01*
Y02186*
X0343Y02147*
Y02137*
X03446Y01385D02*
X03436Y01375D01*
Y01355*
X03446Y01345*
X03485*
X03495Y01355*
Y01375*
X03485Y01385*
Y01405D02*
X03495Y01414D01*
Y01434*
X03485Y01444*
X03446*
X03436Y01434*
Y01414*
X03446Y01405*
X03456*
X03466Y01414*
Y01444*
X02452Y02264D02*
X02512D01*
Y02294*
X02502Y02304*
X02462*
X02452Y02294*
Y02264*
X02512Y02364D02*
Y02324D01*
X02472Y02364*
X02462*
X02452Y02354*
Y02334*
X02462Y02324*
X03015Y03309D02*
Y03299D01*
X03035Y0328*
X03055Y03299*
Y03309*
X03035Y0328D02*
Y0325D01*
X03074D02*
X03094D01*
X03084*
Y03309*
X03074Y03299*
X03011Y02283D02*
Y02234D01*
X03021Y02224*
X03041*
X03051Y02234*
Y02283*
X0307Y02224D02*
X0309D01*
X0308*
Y02283*
X0307Y02273*
X0248Y03149D02*
Y031D01*
X0249Y0309*
X0251*
X0252Y031*
Y03149*
X02579Y0309D02*
X0254D01*
X02579Y0313*
Y03139*
X02569Y03149*
X02549*
X0254Y03139*
X0308Y02864D02*
X0307Y02874D01*
X0305*
X0304Y02864*
Y02855*
X0305Y02845*
X0307*
X0308Y02835*
Y02825*
X0307Y02815*
X0305*
X0304Y02825*
X031Y02874D02*
Y02815D01*
X0312Y02835*
X03139Y02815*
Y02874*
X03159Y02815D02*
X03179D01*
X03169*
Y02874*
X03159Y02864*
X03152Y0354D02*
Y03599D01*
X03182*
X03192Y03589*
Y0357*
X03182Y0356*
X03152*
X03172D02*
X03192Y0354D01*
X03212Y03589D02*
X03221Y03599D01*
X03241*
X03251Y03589*
Y0358*
X03241Y0357*
X03231*
X03241*
X03251Y0356*
Y0355*
X03241Y0354*
X03221*
X03212Y0355*
X02747Y02126D02*
X02688D01*
Y02156*
X02698Y02166*
X02718*
X02728Y02156*
Y02126*
Y02146D02*
X02747Y02166D01*
Y02186D02*
Y02206D01*
Y02196*
X02688*
X02698Y02186*
X02747Y02275D02*
Y02235D01*
X02708Y02275*
X02698*
X02688Y02265*
Y02245*
X02698Y02235*
X02468Y02026D02*
Y02086D01*
X02498*
X02508Y02076*
Y02056*
X02498Y02046*
X02468*
X02488D02*
X02508Y02026D01*
X02528D02*
X02548D01*
X02538*
Y02086*
X02528Y02076*
X02578Y02026D02*
X02598D01*
X02588*
Y02086*
X02578Y02076*
X03378Y01795D02*
X03319D01*
Y01825*
X03329Y01835*
X03349*
X03359Y01825*
Y01795*
Y01815D02*
X03378Y01835D01*
Y01855D02*
Y01875D01*
Y01865*
X03319*
X03329Y01855*
Y01904D02*
X03319Y01914D01*
Y01934*
X03329Y01944*
X03368*
X03378Y01934*
Y01914*
X03368Y01904*
X03329*
X03394Y02569D02*
X03335D01*
Y02599*
X03345Y02609*
X03365*
X03375Y02599*
Y02569*
Y02589D02*
X03394Y02609D01*
X03384Y02629D02*
X03394Y02638D01*
Y02658*
X03384Y02668*
X03345*
X03335Y02658*
Y02638*
X03345Y02629*
X03355*
X03365Y02638*
Y02668*
X02775Y02835D02*
Y02894D01*
X02805*
X02815Y02884*
Y02865*
X02805Y02855*
X02775*
X02795D02*
X02815Y02835D01*
X02835Y02884D02*
X02844Y02894D01*
X02864*
X02874Y02884*
Y02875*
X02864Y02865*
X02874Y02855*
Y02845*
X02864Y02835*
X02844*
X02835Y02845*
Y02855*
X02844Y02865*
X02835Y02875*
Y02884*
X02844Y02865D02*
X02864D01*
X0278Y02765D02*
Y02824D01*
X0281*
X0282Y02814*
Y02795*
X0281Y02785*
X0278*
X028D02*
X0282Y02765D01*
X02879Y02824D02*
X02859Y02814D01*
X0284Y02795*
Y02775*
X02849Y02765*
X02869*
X02879Y02775*
Y02785*
X02869Y02795*
X0284*
X02148Y02543D02*
X0219Y02501D01*
X02219Y02529*
X02233Y02543D02*
X02247Y02558D01*
X0224Y02551*
X02198Y02593*
Y02579*
X02375Y0358D02*
X02434D01*
Y0361*
X02424Y0362*
X02385*
X02375Y0361*
Y0358*
X02434Y03639D02*
Y03659D01*
Y03649*
X02375*
X02385Y03639*
X03322Y03232D02*
X03312Y03242D01*
X03292*
X03282Y03232*
Y03193*
X03292Y03183*
X03312*
X03322Y03193*
X03381Y03183D02*
X03342D01*
X03381Y03223*
Y03232*
X03371Y03242*
X03351*
X03342Y03232*
X02283Y03413D02*
X02273Y03423D01*
X02253*
X02243Y03413*
Y03373*
X02253Y03363*
X02273*
X02283Y03373*
X02303Y03363D02*
X02323D01*
X02313*
Y03423*
X02303Y03413*
X02353D02*
X02363Y03423D01*
X02383*
X02393Y03413*
Y03403*
X02383Y03393*
X02373*
X02383*
X02393Y03383*
Y03373*
X02383Y03363*
X02363*
X02353Y03373*
X02283Y03488D02*
X02273Y03498D01*
X02253*
X02243Y03488*
Y03448*
X02253Y03438*
X02273*
X02283Y03448*
X02303Y03438D02*
X02323D01*
X02313*
Y03498*
X02303Y03488*
X02393Y03438D02*
X02353D01*
X02393Y03478*
Y03488*
X02383Y03498*
X02363*
X02353Y03488*
X02497Y03555D02*
X02487Y03565D01*
X02467*
X02457Y03555*
Y03515*
X02467Y03505*
X02487*
X02497Y03515*
X02517Y03555D02*
X02527Y03565D01*
X02547*
X02557Y03555*
Y03545*
X02547Y03535*
X02557Y03525*
Y03515*
X02547Y03505*
X02527*
X02517Y03515*
Y03525*
X02527Y03535*
X02517Y03545*
Y03555*
X02527Y03535D02*
X02547D01*
X02365Y02005D02*
X02355Y01995D01*
Y01975*
X02365Y01965*
X02404*
X02414Y01975*
Y01995*
X02404Y02005*
X02414Y02025D02*
Y02045D01*
Y02035*
X02355*
X02365Y02025*
Y02074D02*
X02355Y02084D01*
Y02104*
X02365Y02114*
X02375*
X02385Y02104*
X02395Y02114*
X02404*
X02414Y02104*
Y02084*
X02404Y02074*
X02395*
X02385Y02084*
X02375Y02074*
X02365*
X02385Y02084D02*
Y02104D01*
X02806Y02674D02*
X02791D01*
X02777Y0266*
Y02646*
X02806Y02617*
X0282*
X02834Y02631*
Y02646*
X02855Y02653D02*
X02869Y02667D01*
X02862Y0266*
X0282Y02702*
Y02688*
X02848Y0273D02*
X02876Y02759D01*
X02883Y02752*
Y02695*
X0289Y02688*
X02327Y02677D02*
X02317Y02687D01*
X02297*
X02287Y02677*
Y02637*
X02297Y02627*
X02317*
X02327Y02637*
X02347Y02627D02*
X02367D01*
X02357*
Y02687*
X02347Y02677*
X02437Y02687D02*
X02417Y02677D01*
X02397Y02657*
Y02637*
X02407Y02627*
X02427*
X02437Y02637*
Y02647*
X02427Y02657*
X02397*
X02794Y01779D02*
X02784Y01769D01*
Y01749*
X02794Y01739*
X02833*
X02843Y01749*
Y01769*
X02833Y01779*
X02843Y01799D02*
Y01819D01*
Y01809*
X02784*
X02794Y01799*
X02843Y01878D02*
X02784D01*
X02814Y01848*
Y01888*
X02907Y01877D02*
X02897Y01867D01*
Y01847*
X02907Y01837*
X02946*
X02956Y01847*
Y01867*
X02946Y01877*
X02956Y01897D02*
Y01917D01*
Y01907*
X02897*
X02907Y01897*
X02956Y01946D02*
Y01966D01*
Y01956*
X02897*
X02907Y01946*
X03283Y028D02*
X03273Y0281D01*
X03253*
X03243Y028*
Y02761*
X03253Y02751*
X03273*
X03283Y02761*
X03303Y02751D02*
X03323D01*
X03313*
Y0281*
X03303Y028*
X03352D02*
X03362Y0281D01*
X03382*
X03392Y028*
Y02761*
X03382Y02751*
X03362*
X03352Y02761*
Y028*
X02569Y02168D02*
X02559Y02158D01*
Y02138*
X02569Y02128*
X02609*
X02619Y02138*
Y02158*
X02609Y02168*
X02559Y02228D02*
Y02188D01*
X02589*
X02579Y02208*
Y02218*
X02589Y02228*
X02609*
X02619Y02218*
Y02198*
X02609Y02188*
X0264Y02636D02*
X0263Y02646D01*
X0261*
X026Y02636*
Y02597*
X0261Y02587*
X0263*
X0264Y02597*
X02689Y02587D02*
Y02646D01*
X0266Y02617*
X02699*
M02*