%FSTAX23Y23*%
%MOIN*%
%SFA1B1*%

%IPPOS*%
%ADD10C,0.006000*%
%ADD11C,0.009840*%
%ADD12C,0.019680*%
%ADD13C,0.007870*%
%ADD14C,0.010000*%
%LNpcbfoc-1*%
%LPD*%
G36*
X03628Y03612D02*
X03631Y03612D01*
X03645Y03612*
X03646Y03611*
X03648Y03611*
X03649Y0361*
X03649Y0361*
X03648Y0361*
X03645Y03609*
X03635Y03609*
X03629Y03609*
X03629Y03608*
X0363Y03606*
X0363Y03605*
X03631Y03604*
X03664Y03605*
X03665Y03606*
X03665Y03606*
X03669Y03608*
X03673Y03608*
X03674Y03608*
X03675Y03607*
X03678Y03606*
X03679Y03605*
X0368Y03604*
X03711Y03605*
X03711Y03605*
X03713Y03608*
X03713Y03609*
X03709Y03609*
X03696Y03609*
X03695Y0361*
X03694Y0361*
X03694Y0361*
X03696Y03611*
X03701Y03612*
X03707Y03612*
X03715Y03612*
X03716Y03613*
X03717Y03613*
X03719Y03612*
X03734Y03612*
X03735Y03611*
X03738Y03611*
X0374Y0361*
X03738Y0361*
X03737Y03609*
X03731Y03609*
X0372Y03609*
X03719Y03608*
X03719Y03608*
X03719Y03607*
X0372Y03604*
X03721Y03604*
X03721Y03602*
X03721Y03601*
X03721Y036*
X03721Y03599*
X03719Y03596*
X03719Y03595*
X03718Y03595*
X03713Y03595*
X03712Y03595*
X03711Y03598*
X03711Y03598*
X03691Y03598*
X0369Y03597*
X0369Y03595*
X03694Y03591*
X03694Y03589*
X03695Y03587*
X03696Y03585*
X03696Y0358*
X03696Y03569*
X03695Y03569*
X03694Y03568*
X03692Y03569*
X03692Y0357*
X03691Y03585*
X03691Y03586*
X03689Y0359*
X03688Y03591*
X03688Y03592*
X03687Y03592*
X03685Y03593*
X03684Y03592*
X03682Y03592*
X03681Y03591*
X0368Y0359*
X0368Y0359*
X03678Y03588*
X03678Y03588*
X03676Y03587*
X03675Y03587*
X03673Y03586*
X03669Y03586*
X03664Y03588*
X03663Y0359*
X03662Y03591*
X03661Y03592*
X03659Y03593*
X03659Y03592*
X03658Y03593*
X03657Y03592*
X03656Y03592*
X03654Y03591*
X03654Y0359*
X03653Y03589*
X03652Y03586*
X03652Y03585*
X03651Y03581*
X03651Y03569*
X03649Y03569*
X03648Y03569*
X03647Y03569*
Y03584*
Y03585*
X03648Y03587*
X03648Y03587*
X03649Y0359*
X0365Y03591*
X03651Y03593*
X03652Y03594*
X03652Y03594*
X03653Y03595*
X03653Y03597*
X03652Y03598*
X03651Y03598*
X0363Y03598*
X0363Y03596*
X03629Y03595*
X03624Y03595*
X03622Y03596*
X03622Y03598*
X03621Y036*
X03621Y03604*
X03622Y03605*
X03623Y03607*
X03623Y03608*
X03621Y03609*
X03606Y03609*
X03605Y0361*
X03604Y0361*
X03604Y03611*
X03606Y03611*
X03611Y03612*
X03619Y03612*
X03625Y03612*
X03626Y03613*
X03626Y03613*
X03626Y03614*
X03628Y03612*
G37*
G36*
X03758Y03526D02*
X03759Y03525D01*
X03759Y03523*
X03759Y03519*
X03758Y03519*
X03743Y03518*
X03742Y03517*
Y03507*
Y03506*
X03742Y0347*
X03736Y0347*
X03735Y03471*
X03735Y03472*
X03735Y03518*
X03734Y03519*
X03719Y03519*
X03718Y0352*
X03719Y03525*
X03719Y03526*
X03721Y03526*
X03722Y03526*
X03723Y03526*
X03756Y03526*
X03757Y03526*
X03758Y03526*
G37*
G36*
X03604Y03525D02*
X03604Y03523D01*
X03604Y0352*
X03603Y03519*
X03601Y03519*
X036Y03519*
X0358Y03519*
X03579Y03518*
X03579Y03517*
X03578Y03516*
X03579Y03515*
X03579Y03503*
X03579Y03502*
X03581Y03501*
X03602Y03501*
X03603Y035*
X03602Y03495*
X03602Y03495*
X036Y03494*
X03579Y03494*
X03579Y03492*
X03579Y03491*
X03579Y03481*
Y03481*
X03579Y03477*
X03581Y03477*
X03603Y03476*
X03604Y03476*
X03604Y03474*
X03604Y03471*
X03602Y0347*
X03572Y0347*
X03572Y03472*
X03572Y03525*
X03572Y03526*
X03574Y03526*
X03575Y03526*
X03576Y03526*
X03601Y03526*
X03602Y03526*
X03604Y03525*
G37*
G36*
X03558D02*
X03559Y03524D01*
X03558Y03518*
X03557Y03516*
X03556Y03516*
X03555Y03513*
X03554Y03513*
X03554Y03512*
X03552Y0351*
X03552Y03509*
X03551Y03507*
X03548Y03504*
X03548Y03503*
X03547Y03503*
X03546Y03501*
X03546Y035*
X03545Y03498*
X03543Y03496*
X03543Y03495*
X03541Y03493*
X03541Y03492*
X03539Y0349*
X03539Y03489*
X03538Y03489*
X03538Y03488*
X03535Y03484*
X03532Y0348*
X03532Y0348*
X03531Y03478*
X03532Y03477*
X03532Y03477*
X03558Y03476*
X03558Y03476*
X03559Y03474*
Y03474*
Y03474*
X03558Y03471*
X03557Y0347*
X03522Y0347*
X03521Y03472*
X03521Y03477*
X03523Y03479*
X03523Y0348*
X03524Y03481*
X03526Y03484*
X03526Y03484*
X03529Y03488*
X03529Y03488*
X0353Y03489*
X0353Y03489*
X03532Y03492*
X03532Y03492*
X03533Y03495*
X03534Y03495*
X03534Y03496*
X03535Y03498*
X03537Y035*
X03537Y03501*
X03539Y03503*
X03539Y03503*
X03541Y03506*
X03541Y03506*
X03542Y03507*
X03542Y03508*
X03544Y0351*
X03544Y03511*
X03546Y03513*
X03546Y03514*
X03547Y03514*
X03548Y03516*
X03548Y03517*
X03549Y03518*
X03548Y03519*
X03522Y03519*
X03521Y0352*
X03521Y03521*
X03521Y03525*
X03522Y03526*
X03524Y03526*
X03525Y03526*
X03526Y03526*
X03556Y03526*
X03557Y03526*
X03558Y03525*
G37*
G36*
X03813Y03526D02*
X03814Y03525D01*
X03814Y03524*
X03814Y03471*
X03813Y0347*
X03807Y0347*
X03807Y03471*
X03806Y03493*
X03806Y03494*
X03778Y03494*
X03777Y03493*
X03777Y03471*
X03777Y0347*
X03775Y0347*
X03771Y0347*
X0377Y03471*
X0377Y03525*
X03771Y03526*
X03773Y03526*
X03774Y03526*
X03775Y03526*
X03777Y03526*
X03777Y03525*
X03777Y03523*
X03778Y03502*
X03778Y03501*
X03779Y03501*
X03806*
X03806Y03502*
X03807Y03503*
X03807Y03525*
X03808Y03526*
X03809Y03526*
X0381Y03526*
X03811Y03526*
X03813Y03526*
G37*
G36*
X03694Y03543D02*
Y03539D01*
Y03539*
X03694Y03528*
X03693Y03513*
X03693Y0351*
X03692Y03503*
X03691Y03502*
X03688Y03502*
X03687Y03502*
X03685Y03502*
X03685Y03504*
X03684Y03505*
X03684Y03507*
X03683Y03508*
X03684Y03514*
X03684Y03515*
X03685Y03518*
X03685Y0352*
X03686Y03523*
X03686Y03524*
X03687Y03527*
X03688Y03529*
X03689Y03531*
X03689Y03532*
X0369Y03538*
X03691Y03542*
X03692Y03544*
X03693Y03544*
X03694Y03543*
G37*
G36*
X03691Y03501D02*
X03693Y03499D01*
X03693Y03499*
X03694Y03496*
X03694Y03494*
X03692Y03492*
X0369Y03491*
X03688Y03491*
X03686Y03492*
X03686Y03492*
X03686Y03493*
X03685Y03493*
X03684Y03495*
X03685Y03498*
X03686Y03499*
X03688Y03501*
X0369Y03501*
X03691Y03501*
G37*
G36*
X03661Y03525D02*
X03661Y03524D01*
X03661Y03471*
X0366Y0347*
X03654Y0347*
X03653Y03471*
X03652Y03473*
X03651Y03475*
X03651Y03475*
X03649Y03478*
X03649Y03478*
X03647Y03481*
X03647Y03481*
X03645Y03483*
X03645Y03484*
X03644Y03485*
X03643Y03486*
X03642Y03489*
X03641Y03489*
X03639Y03492*
X03638Y03494*
X03637Y03496*
X03635Y03498*
X03635Y03499*
X03635Y03499*
X03634Y03501*
X03632Y03503*
X03631Y03505*
X03629Y03507*
X03629Y03508*
X03627Y0351*
X03627Y03511*
X03626Y03511*
X03626Y03509*
X03626Y03472*
X03625Y0347*
X03624Y0347*
X03619Y0347*
X03619Y03471*
X03619Y03525*
X0362Y03526*
X03621Y03526*
X03622Y03526*
X03624Y03526*
X03626Y03525*
X03627Y03524*
X03628Y03522*
X03629Y0352*
X03633Y03515*
X03637Y03509*
X03639Y03506*
X03643Y03499*
X03645Y03496*
X03649Y0349*
X03651Y03488*
X03652Y03485*
X03653Y03485*
X03654Y03485*
X03654Y03525*
X03655Y03526*
X03659Y03526*
X03661Y03525*
G37*
G36*
X03678Y03813D02*
X03678Y03812D01*
X03679Y03811*
X03679Y0381*
X0368Y03809*
X03681Y03809*
X03681Y03808*
X03681Y03807*
X03682Y03806*
X03683Y03806*
X03683Y03805*
X03684Y03804*
X03685Y03803*
X03685Y03803*
X03686Y03802*
X03686Y03802*
X03687Y03801*
X03687Y038*
X03688Y03799*
X03688Y03799*
X0369Y03797*
X0369Y03797*
X03691Y03796*
X03691Y03795*
X03692Y03794*
X03693Y03792*
X03694Y03791*
X03695Y03791*
X03697Y03788*
X03698Y03786*
X03703Y0378*
X03704Y03779*
X03704Y03778*
X03705Y03778*
X03707Y03775*
X03708Y03774*
X03708Y03773*
X0371Y03771*
X03715Y03764*
X03716Y03763*
X03718Y03761*
X03718Y0376*
X03719Y03759*
X03719Y03759*
X03721Y03757*
X03722Y03756*
X03722Y03755*
X03723Y03755*
X03724Y03754*
X03724Y03753*
X03725Y03751*
X03726Y0375*
X03727Y03749*
X03727Y03749*
X03728Y03748*
X03728Y03747*
X03729Y03747*
X03729Y03746*
X0373Y03745*
X0373Y03744*
X03731Y03743*
X03732Y03743*
X03733Y03742*
X03733Y03741*
X03734Y03739*
X03736Y03737*
X03737Y03735*
X03738Y03735*
X03738Y03734*
X0374Y03733*
X0374Y03732*
X03741Y03732*
X03741Y03731*
X03741Y0373*
X03742Y0373*
X03742Y03729*
X03743Y03728*
X03744Y03727*
X03744Y03727*
X03745Y03726*
X03745Y03726*
X03746Y03725*
X03746Y03724*
X03747Y03723*
X03747Y03723*
X03748Y03722*
X03749Y03721*
X0375Y0372*
X0375Y03719*
X03751Y03719*
X03751Y03718*
X03752Y03717*
X03752Y03717*
X03753Y03716*
X03753Y03715*
X03754Y03714*
X03755Y03713*
X03755Y03713*
X03756Y03712*
X03756Y03712*
X03756Y03711*
X03757Y0371*
X03758Y03709*
X03759Y03708*
X03759Y03708*
X0376Y03707*
X0376Y03706*
X03761Y03705*
X03761Y03705*
X03763Y03703*
X03764Y03702*
X03764Y03701*
X03765Y037*
X03765Y037*
X03766Y03699*
X03766Y03698*
X03767Y03698*
X03768Y03697*
X03768Y03696*
X03769Y03695*
X03769Y03695*
X0377Y03694*
X0377Y03693*
X03771Y03693*
X03771Y03692*
X03772Y03691*
X03773Y0369*
X03773Y03689*
X03774Y03689*
X03775Y03688*
X03775Y03687*
X03777Y03685*
X03777Y03685*
X03777Y03684*
X03778Y03683*
X03778Y03683*
X03779Y03682*
X03779Y03682*
X0378Y03681*
X0378Y0368*
X03782Y03679*
X03782Y03678*
X03783Y03677*
X03783Y03677*
X03786Y03674*
X03786Y03673*
X03786Y03672*
X03787Y03672*
X03787Y03671*
X03788Y0367*
X03788Y0367*
X03789Y03669*
X0379Y03668*
X03791Y03667*
X03791Y03667*
X03792Y03666*
X03792Y03665*
X03793Y03665*
X03793Y03664*
X03794Y03663*
X03794Y03663*
X03795Y03662*
X03795Y03661*
X03796Y0366*
X03797Y03659*
X03797Y03659*
X03798Y03658*
X03798Y03657*
X03799Y03657*
X038Y03656*
X038Y03655*
X03801Y03654*
X03801Y03653*
X03802Y03653*
X03802Y03652*
X03803Y03651*
X03803Y03651*
X03805Y03649*
X03805Y03648*
X03806Y03648*
X03806Y03647*
X03807Y03646*
X03808Y03645*
X03808Y03645*
X03809Y03643*
X0381Y03642*
X0381Y03642*
X03811Y03641*
X03812Y03639*
X03813Y03638*
X03814Y03638*
X03815Y03636*
X03816Y03636*
X03817Y03637*
X03817Y03638*
X03819Y03639*
X03819Y0364*
X0382Y0364*
X0382Y03641*
X03821Y03642*
X03821Y03642*
X03822Y03643*
X03822Y03644*
X03823Y03645*
X03824Y03646*
X03824Y03647*
X03825Y03647*
X03825Y03648*
X03828Y03651*
X03829Y03653*
X0383Y03654*
X03832Y03657*
X03833Y03657*
X03833Y03658*
X03835Y0366*
X03835Y03661*
X03837Y03663*
X03838Y03662*
X03839Y03661*
X0384Y03661*
X03841Y03659*
X03841Y03659*
X03843Y03657*
X03843Y03657*
X03844Y03655*
X03845Y03655*
X03845Y03654*
X03846Y03653*
X03847Y03652*
X03848Y03651*
X03849Y0365*
X03849Y03649*
X0385Y03648*
X0385Y03648*
X03852Y03646*
X03853Y03645*
X03853Y03644*
X03854Y03644*
X03855Y03642*
X03856Y03641*
X03857Y0364*
X03857Y03639*
X03858Y03638*
X03859Y03638*
X0386Y03637*
X0386Y03636*
X03861Y03635*
X03862Y03634*
X03863Y03633*
X03863Y03632*
X03864Y03631*
X03865Y0363*
X03866Y03629*
X03866Y03628*
X03868Y03627*
X03868Y03626*
X03869Y03625*
X0387Y03624*
X03871Y03623*
X03871Y03623*
X03872Y03622*
X03872Y03621*
X03874Y0362*
X03874Y03619*
X03875Y03618*
X03876Y03617*
X03877Y03616*
X03877Y03615*
X03879Y03614*
X03879Y03613*
X0388Y03612*
X0388Y03611*
X03882Y0361*
X03882Y03609*
X03883Y03608*
X03884Y03608*
X03885Y03606*
X03885Y03606*
X03886Y03605*
X03887Y03604*
X03888Y03603*
X03888Y03602*
X0389Y03601*
X0389Y036*
X03891Y03599*
X03891Y03598*
X03893Y03596*
X03893Y03596*
X03894Y03595*
X03894Y03594*
X03895Y03593*
X03896Y03593*
X03897Y03591*
X03898Y03591*
X03899Y03589*
X03899Y03589*
X039Y03588*
X03901Y03587*
X03902Y03585*
X03903Y03585*
X03904Y03584*
X03904Y03583*
X03905Y03582*
X03905Y03581*
X03907Y03579*
X03907Y03579*
X03908Y03578*
X03909Y03577*
X0391Y03576*
X0391Y03576*
X03912Y03574*
X03912Y03573*
X03913Y03572*
X03913Y03572*
X03914Y03571*
X03915Y0357*
X03917Y03568*
X03917Y03567*
X03918Y03567*
X03918Y03566*
X03919Y03565*
X03919Y03564*
X03921Y03563*
X03921Y03562*
X03922Y03561*
X03922Y03561*
X03924Y03559*
X03924Y03559*
X03925Y03557*
X03926Y03557*
X03927Y03555*
X03927Y03555*
X03928Y03554*
X03929Y03553*
X03931Y03551*
X03931Y0355*
X03932Y03549*
X03932Y03549*
X03933Y03548*
X03933Y03548*
X03935Y03546*
X03935Y03545*
X03936Y03544*
X03937Y03543*
X03938Y03542*
X03938Y03541*
X0394Y0354*
X0394Y03539*
X03941Y03538*
X03941Y03538*
X03943Y03536*
X03943Y03536*
X03944Y03534*
X03945Y03534*
X03946Y03533*
X03946Y03532*
X03947Y03531*
X03948Y0353*
X03949Y03529*
X0395Y03528*
X0395Y03527*
X03951Y03526*
X03952Y03525*
X03952Y03525*
X03954Y03523*
X03954Y03522*
X03955Y03521*
X03955Y03521*
X03957Y03519*
X03957Y03519*
X03959Y03517*
X03959Y03517*
X0396Y03516*
X0396Y03515*
X03962Y03514*
X03962Y03513*
X03963Y03512*
X03964Y03511*
X03964Y0351*
X03965Y03509*
X03966Y03508*
X03966Y03507*
X03968Y03506*
X03968Y03505*
X03969Y03504*
X0397Y03503*
X0397Y03503*
X03971Y03502*
X03973Y035*
X03973Y035*
X03974Y03499*
X03974Y03498*
X03976Y03497*
X03976Y03496*
X03977Y03495*
X03978Y03494*
X03979Y03493*
X03979Y03492*
X0398Y03491*
X03981Y0349*
X03982Y03489*
X03982Y03489*
X03983Y03487*
X03984Y03487*
X03985Y03485*
X03985Y03485*
X03987Y03483*
X03987Y03483*
X03988Y03482*
X03988Y03481*
X0399Y0348*
X0399Y03479*
X03991Y03478*
X03992Y03477*
X03993Y03476*
X03993Y03475*
X03995Y03474*
X03995Y03473*
X03996Y03472*
X03996Y03471*
X03994Y03472*
X03993Y03473*
X03992Y03474*
X03991Y03474*
X0399Y03476*
X03989Y03476*
X03987Y03479*
X03986Y03479*
X03985Y0348*
X03984Y0348*
X03982Y03483*
X03981Y03483*
X0398Y03484*
X03979Y03484*
X03976Y03487*
X03976Y03488*
X03975Y03488*
X03974Y03489*
X03972Y03491*
X03972Y03491*
X0397Y03493*
X0397Y03493*
X03967Y03496*
X03966Y03496*
X03965Y03497*
X03964Y03497*
X03963Y03499*
X03962Y03499*
X0396Y03501*
X03959Y03502*
X03958Y03503*
X03957Y03503*
X03955Y03506*
X03955Y03506*
X03954Y03507*
X03953Y03507*
X0395Y0351*
X03949Y03511*
X03948Y03511*
X03948Y03512*
X03945Y03514*
X03944Y03515*
X03943Y03516*
X03943Y03516*
X0394Y03519*
X0394Y03519*
X03939Y0352*
X03938Y0352*
X03936Y03523*
X03935Y03523*
X03933Y03525*
X03933Y03525*
X0393Y03527*
X0393Y03527*
X03928Y03529*
X03928Y03529*
X03927Y0353*
X03926Y03531*
X03923Y03533*
X03923Y03534*
X03922Y03535*
X03921Y03535*
X03918Y03538*
X03918Y03538*
X03917Y03539*
X03916Y03539*
X03914Y03541*
X03913Y03542*
X03912Y03543*
X03911Y03544*
X03909Y03546*
X03908Y03546*
X03907Y03548*
X03906Y03548*
X03903Y03551*
X03903Y03551*
X03902Y03552*
X03901Y03552*
X03899Y03555*
X03898Y03555*
X03897Y03556*
X03896Y03556*
X03894Y03559*
X03893Y03559*
X03892Y0356*
X03891Y03561*
X03889Y03563*
X03889Y03563*
X03887Y03565*
X03886Y03565*
X03884Y03567*
X03884Y03567*
X03882Y03569*
X03881Y0357*
X0388Y03571*
X03879Y03571*
X03877Y03574*
X03876Y03574*
X03875Y03575*
X03874Y03576*
X03871Y03578*
X03871Y03579*
X0387Y0358*
X03869Y0358*
X03867Y03582*
X03866Y03583*
X03865Y03584*
X03864Y03584*
X03862Y03586*
X03861Y03587*
X0386Y03588*
X03859Y03588*
X03857Y03591*
X03856Y03591*
X03855Y03592*
X03854Y03593*
X03853Y03595*
X03852Y03595*
X0385Y03597*
X03849Y03598*
X03848Y03599*
X03847Y03599*
X03845Y03601*
X03844Y03602*
X03843Y03603*
X03842Y03603*
X03841Y03605*
X03839Y03605*
X03837Y03603*
X03834Y03602*
X0383Y036*
X0383Y03599*
X03827Y03598*
X03824Y03596*
X03822Y03595*
X0382Y03593*
X03816Y03591*
X03811Y03588*
X03808Y03586*
X03806Y03585*
X03802Y03583*
X03799Y03581*
X03796Y03579*
X03794Y03578*
X03788Y03574*
X03785Y03572*
X03783Y03571*
X03778Y03568*
X03777Y03568*
X03777Y03567*
X03774Y03566*
X0377Y03564*
X03768Y03562*
X03764Y0356*
X03762Y03559*
X0376Y03557*
X03756Y03555*
X03753Y03553*
X03748Y0355*
X03745Y03548*
X03743Y03548*
X03743Y03549*
X03746Y03553*
X03747Y03554*
X03749Y03557*
X03752Y03561*
X03753Y03562*
X03753Y03562*
X03754Y03563*
X03754Y03563*
X03755Y03564*
X03755Y03565*
X03756Y03565*
X03756Y03566*
X03757Y03567*
X03757Y03567*
X03759Y03569*
X03764Y03576*
X03765Y03578*
X03766Y03579*
X03766Y03579*
X03768Y03581*
X03768Y03581*
X03769Y03583*
X03772Y03587*
X03772Y03587*
X03773Y03588*
X03774Y03589*
X03774Y0359*
X03776Y03593*
X03779Y03597*
X03781Y03598*
X03781Y03599*
X03782Y036*
X03782Y036*
X03783Y03601*
X03783Y03602*
X03784Y03602*
X03784Y03603*
X03785Y03604*
X03785Y03604*
X03786Y03605*
X03786Y03606*
X03787Y03607*
X03787Y03607*
X03788Y03608*
X03788Y03608*
X03791Y03611*
X03791Y03612*
X03792Y03613*
X03792Y03614*
X03792Y03616*
X03789Y03618*
X03789Y03619*
X03788Y0362*
X03787Y03621*
X03785Y03623*
X03785Y03623*
X03783Y03625*
X03783Y03626*
X03781Y03627*
X03781Y03628*
X03779Y0363*
X03778Y03631*
X03777Y03632*
X03777Y03633*
X03774Y03636*
X03774Y03636*
X03772Y03638*
X03772Y03638*
X0377Y0364*
X0377Y03641*
X03769Y03642*
X03768Y03643*
X03768Y03643*
X03768Y03643*
X03766Y03645*
X03765Y03646*
X03763Y03648*
X03763Y03649*
X03761Y03651*
X03761Y03651*
X03759Y03653*
X03759Y03653*
X03757Y03655*
X03756Y03656*
X03755Y03658*
X03755Y03658*
X03753Y0366*
X03753Y03661*
X03751Y03663*
X0375Y03663*
X03749Y03665*
X03748Y03666*
X03746Y03668*
X03746Y03668*
X03744Y0367*
X03743Y03671*
X03742Y03673*
X03741Y03673*
X03739Y03676*
X03739Y03676*
X03738Y03678*
X03737Y03678*
X03735Y03681*
X03734Y03682*
X03733Y03683*
X03733Y03683*
X0373Y03686*
X0373Y03686*
X03729Y03688*
X03729Y03688*
X03728Y03688*
X03728Y03689*
X03727Y0369*
X03727Y0369*
X03726Y03691*
X03725Y03691*
X03725Y03691*
X03725Y03687*
X03725Y03686*
X03726Y03682*
X03726Y03679*
X03727Y03677*
X03727Y03672*
X03728Y03667*
X03728Y03663*
X03729Y0366*
X03729Y03658*
X0373Y03656*
X0373Y03652*
X0373Y03651*
X03731Y03647*
X03731Y03647*
X03729Y03647*
X03724Y03652*
X03724Y03652*
X03722Y03654*
X03721Y03654*
X03718Y03657*
X03718Y03657*
X03715Y0366*
X03715Y0366*
X03713Y03662*
X03712Y03662*
X03709Y03665*
X03708Y03666*
X03706Y03668*
X03705Y03668*
X03703Y03671*
X03703Y03671*
X03699Y03674*
X03699Y03675*
X03697Y03676*
X03696Y03676*
X03693Y03679*
X03693Y0368*
X03689Y03683*
X03689Y03684*
X03687Y03685*
X03687Y03685*
X03684Y03688*
X03683Y03688*
X0368Y03691*
X03679Y03692*
X03678Y03692*
X03677Y03692*
X03676Y03688*
X03672Y0368*
X03671Y03677*
X03667Y0367*
X03666Y03667*
X03664Y03663*
X03663Y03662*
X03662Y03664*
X03662Y03676*
X03661Y03678*
X03661Y03687*
X03661Y03688*
X0366Y03694*
X03659Y03706*
X03659Y03712*
X03659Y03717*
X03659Y0372*
X03658Y0372*
X03657Y0372*
X03655Y03717*
X03654Y03715*
X03652Y03712*
X03651Y0371*
X0365Y0371*
X03646Y03703*
X03644Y03701*
X03643Y03698*
X03642Y03696*
X03641Y03696*
X0364Y03694*
X03636Y03689*
X03635Y03686*
X03635Y03685*
X03633Y03683*
X03633Y03682*
X03632Y03682*
X03631Y0368*
X03627Y03675*
X03625Y03671*
X03625Y0367*
X03624Y0367*
X03624Y03669*
X03619Y03662*
X03618Y03661*
X03617Y03659*
X03617Y03658*
X03615Y03656*
X03615Y03655*
X03613Y03653*
X03613Y03652*
X03611Y0365*
X03611Y03649*
X0361Y03648*
X0361Y03648*
X03608Y03645*
X03607Y03643*
X03605Y0364*
X03604Y03639*
X03603Y03637*
X03603Y03637*
X03602Y03636*
X03601Y03634*
X036Y03633*
X03599Y03631*
X03596Y03627*
X03594Y03624*
X03592Y0362*
X0359Y03617*
X03588Y03615*
X03586Y03612*
X03585Y0361*
X03583Y03606*
X03582Y03605*
X03581Y03605*
X0358Y03602*
X03578Y036*
X03578Y03599*
X03577Y03597*
X03573Y03592*
X03571Y03589*
X0357Y03587*
X0357Y03589*
X0357Y0359*
X03571Y03594*
X03572Y03597*
X03572Y03599*
X03574Y03602*
X03574Y03604*
X03575Y03607*
X03575Y03608*
X03576Y0361*
X03576Y03611*
X03577Y03613*
X03577Y03614*
X03578Y03616*
X03578Y03618*
X03578Y03619*
X0358Y03623*
X0358Y03626*
X03581Y03628*
X03582Y03631*
X03583Y03634*
X03584Y03636*
X03584Y03639*
X03585Y0364*
X03585Y03642*
X03586Y03645*
X03586Y03646*
X03587Y03648*
X03588Y0365*
X03588Y03652*
X03589Y03655*
X0359Y03657*
X03591Y03661*
X03591Y03662*
X03592Y03664*
X03592Y03667*
X03592Y03668*
X03591Y03668*
X0359Y03668*
X03588Y03667*
X03581Y03666*
X03579Y03666*
X03572Y03665*
X03568Y03665*
X03565Y03664*
X03564Y03664*
X03563Y03663*
X03562Y03663*
X03561Y03661*
X03561Y0366*
X0356Y03658*
X03559Y03657*
X03559Y03657*
X03558Y03656*
X03556Y03653*
X03556Y03652*
X03553Y03649*
X03553Y03648*
X03552Y03646*
X03551Y03645*
X0355Y03643*
X0355Y03643*
X03549Y03642*
X03549Y03641*
X03544Y03635*
X03541Y0363*
X0354Y03628*
X03538Y03624*
X03536Y03621*
X03535Y0362*
X03534Y03618*
X03533Y03618*
X03526Y03606*
X03523Y03602*
X03523Y03601*
X03521Y03599*
X03521Y03598*
X0352Y03596*
X03519Y03596*
X03517Y03593*
X03516Y03591*
X03514Y03587*
X03511Y03584*
X03508Y03578*
X03508Y03578*
X03507Y03576*
X03504Y03573*
X03504Y03572*
X03502Y0357*
X03502Y03569*
X035Y03565*
X035Y03565*
X03499Y03564*
X03499Y03563*
X03493Y03555*
X03492Y03553*
X0349Y03551*
X0349Y0355*
X03489Y03549*
X03489Y03549*
X03485Y03542*
X03481Y03537*
X0348Y03535*
X03479Y03533*
X03477Y0353*
X03475Y03527*
X03474Y03526*
X03473Y03524*
X03473Y03523*
X03472Y03521*
X03471Y03521*
X03471Y0352*
X0347Y03519*
X03469Y03518*
X03469Y03517*
X03467Y03515*
X03466Y03515*
X03465Y03522*
X03465Y03523*
X03465Y03526*
X03464Y03532*
X03464Y03534*
X03463Y03535*
X03463Y0354*
X03462Y03541*
X03462Y03544*
X03462Y03545*
X03461Y03546*
X03461Y03548*
X03461Y03551*
X0346Y03553*
X0346Y03556*
X03459Y03561*
X03459Y03565*
X03458Y03566*
X03458Y0357*
X03458Y03571*
X03457Y03574*
X03457Y03577*
X03456Y03579*
X03456Y03585*
X03455Y03586*
X03455Y03588*
X03454Y03588*
X03452Y03587*
X03448Y03583*
X03447Y03583*
X03447Y03582*
X03446Y03581*
X03444Y03579*
X03444Y03579*
X03439Y03574*
X03438Y03574*
X03434Y03569*
X03433Y03569*
X03429Y03565*
X03428Y03564*
X03427Y03563*
X03426Y03562*
X03426Y03562*
X03425Y03561*
X0342Y03557*
X0342Y03556*
X03415Y03552*
X03415Y03552*
X0341Y03547*
X03409Y03547*
X03405Y03542*
X03404Y03542*
X03399Y03537*
X03399Y03537*
X03398Y03536*
X03398Y03535*
X03397Y03535*
X03392Y0353*
X03391Y03529*
X03387Y03525*
X03386Y03525*
X03381Y03519*
X0338Y03519*
X03375Y03514*
X03375Y03514*
X0337Y03509*
X03369Y03509*
X03365Y03504*
X03364Y03504*
X03364Y03503*
X03363Y03502*
X03362Y03502*
X03358Y03497*
X03357Y03497*
X03352Y03492*
X03351Y03492*
X03347Y03487*
X03346Y03487*
X03342Y03482*
X03341Y03482*
X03336Y03478*
X03336Y03477*
X03335Y03477*
X03335Y03476*
X03334Y03475*
X03333Y03475*
X03332Y03473*
X03331Y03473*
X0333Y03472*
X03329Y03471*
X03329Y03471*
X03329Y03472*
X03332Y03476*
X03333Y03477*
X03333Y03478*
X03334Y03479*
X03334Y03479*
X03335Y0348*
X03335Y03481*
X03336Y03481*
X03336Y03482*
X03338Y03483*
X03338Y03484*
X03338Y03485*
X03339Y03485*
X03339Y03486*
X0334Y03487*
X0334Y03487*
X03341Y03488*
X03342Y03489*
X03342Y0349*
X03347Y03496*
X03348Y03497*
X0335Y03499*
X03351Y03501*
X03352Y03502*
X03352Y03503*
X03353Y03503*
X03353Y03504*
X03355Y03506*
X03355Y03507*
X03356Y03508*
X03357Y03508*
X03357Y03509*
X03358Y0351*
X03358Y0351*
X03359Y03511*
X03359Y03512*
X0336Y03512*
X03361Y03513*
X03361Y03514*
X03362Y03516*
X03364Y03517*
X03364Y03518*
X03365Y0352*
X03366Y0352*
X03367Y03521*
X03369Y03524*
X0337Y03526*
X03371Y03527*
X03374Y03531*
X03375Y03532*
X03375Y03533*
X03376Y03533*
X03376Y03534*
X03379Y03537*
X0338Y03539*
X03381Y0354*
X03383Y03543*
X03384Y03543*
X03384Y03544*
X03389Y0355*
X03392Y03554*
X03393Y03555*
X03393Y03556*
X03394Y03556*
X03395Y03557*
X03395Y03558*
X03396Y0356*
X03397Y03561*
X03398Y03562*
X03398Y03563*
X03401Y03565*
X03404Y0357*
X03404Y0357*
X03405Y03571*
X03406Y03572*
X03407Y03574*
X03408Y03574*
X03408Y03575*
X03409Y03576*
X03409Y03576*
X0341Y03578*
X03411Y03578*
X03411Y03579*
X03412Y0358*
X03413Y03581*
X03415Y03584*
X03416Y03585*
X03417Y03587*
X03422Y03593*
X03425Y03597*
X03426Y03598*
X03426Y03598*
X03427Y03599*
X03427Y036*
X03428Y036*
X03428Y03601*
X03428Y03602*
X03429Y03603*
X0343Y03603*
X0343Y03604*
X03431Y03605*
X03431Y03605*
X03432Y03606*
X03432Y03607*
X03433Y03607*
X03433Y03608*
X03434Y03608*
X03435Y03609*
X03435Y0361*
X03436Y03611*
X03436Y03612*
X03437Y03612*
X03437Y03613*
X03439Y03615*
X03439Y03615*
X0344Y03616*
X03441Y03617*
X03441Y03618*
X03443Y03621*
X03444Y03621*
X03444Y03622*
X03445Y03623*
X03445Y03623*
X03446Y03624*
X03446Y03624*
X03447Y03625*
X03447Y03626*
X03448Y03627*
X03449Y03628*
X0345Y03629*
X0345Y03629*
X03451Y0363*
X03451Y03631*
X03452Y03632*
X03457Y03638*
X03457Y03639*
X03458Y03639*
X0346Y03642*
X03462Y03645*
X03464Y03644*
X03464Y03643*
X03465Y03643*
X03465Y03643*
X03484Y03624*
X03484Y03624*
X03486Y03622*
X03486Y03621*
X03488Y03621*
X03489Y03622*
X03489Y03623*
X0349Y03623*
X0349Y03624*
X03491Y03625*
X03491Y03625*
X03492Y03626*
X03492Y03627*
X03493Y03627*
X03493Y03628*
X03494Y03629*
X03495Y0363*
X03496Y03631*
X03496Y03631*
X03499Y03635*
X035Y03636*
X035Y03637*
X03501Y03637*
X03501Y03638*
X03502Y03638*
X03502Y03639*
X03502Y0364*
X03502Y0364*
X03503Y0364*
X03503Y03641*
X03504Y03642*
X03505Y03643*
X03505Y03644*
X03509Y03648*
X03509Y03649*
X0351Y03649*
X03513Y03653*
X03514Y03654*
X03514Y03655*
X03515Y03656*
X03515Y03656*
X03516Y03657*
X03517Y03659*
X03518Y0366*
X03518Y03661*
X03519Y03661*
X03519Y03662*
X0352Y03663*
X03522Y03666*
X03524Y03667*
X03525Y03669*
X03525Y0367*
X03526Y0367*
X03527Y03671*
X03527Y03672*
X03528Y03673*
X03528Y03674*
X03531Y03678*
X03532Y03678*
X03532Y03679*
X03533Y0368*
X03533Y0368*
X03534Y03681*
X03534Y03682*
X03536Y03684*
X03537Y03685*
X03537Y03685*
X03538Y03686*
X03541Y0369*
X03542Y03691*
X03542Y03692*
X03543Y03693*
X03544Y03694*
X03544Y03694*
X03545Y03695*
X03547Y03696*
X03549Y03696*
X0355Y03696*
X03552Y03697*
X03553Y03697*
X03555Y03697*
X03559Y03698*
X03561Y03698*
X03566Y03699*
X03567Y037*
X03569Y037*
X0357Y037*
X03572Y03701*
X03575Y03701*
X03577Y03702*
X03583Y03703*
X03587Y03704*
X03589Y03704*
X0359Y03705*
X03592Y03706*
X03592Y03706*
X03593Y03707*
X03593Y03708*
X03594Y03708*
X03594Y03709*
X03595Y0371*
X03595Y0371*
X03596Y03711*
X03597Y03712*
X03597Y03713*
X03598Y03713*
X03598Y03714*
X03599Y03715*
X03599Y03715*
X036Y03716*
X036Y03717*
X03602Y03718*
X03602Y03719*
X03607Y03725*
X03608Y03726*
X03609Y03728*
X0361Y03729*
X03611Y0373*
X03612Y03731*
X03612Y03732*
X03614Y03734*
X03614Y03735*
X03616Y03736*
X03617Y03738*
X0362Y03742*
X03621Y03742*
X03621Y03743*
X03621Y03744*
X03622Y03744*
X03622Y03745*
X03623Y03746*
X03624Y03747*
X03624Y03747*
X03625Y03748*
X03625Y03749*
X03626Y0375*
X03626Y0375*
X03628Y03752*
X03629Y03753*
X0363Y03754*
X0363Y03755*
X03635Y03761*
X03638Y03765*
X03638Y03765*
X03638Y03766*
X03639Y03767*
X0364Y03768*
X0364Y03768*
X03641Y03769*
X03642Y03771*
X03643Y03772*
X03644Y03772*
X03644Y03773*
X03645Y03774*
X03645Y03774*
X03646Y03775*
X03646Y03776*
X03647Y03777*
X03647Y03777*
X03648Y03778*
X03649Y03779*
X03649Y0378*
X0365Y0378*
X0365Y03781*
X03651Y03782*
X03651Y03783*
X03652Y03783*
X03653Y03784*
X03653Y03785*
X03654Y03786*
X03654Y03786*
X03655Y03787*
X03655Y03787*
X03657Y03789*
X03657Y0379*
X03658Y03791*
X03658Y03791*
X03659Y03792*
X03659Y03793*
X0366Y03793*
X0366Y03794*
X03661Y03795*
X03662Y03796*
X03662Y03796*
X03663Y03797*
X03663Y03798*
X03664Y03799*
X03664Y03799*
X03666Y03801*
X03666Y03802*
X03666Y03802*
X03667Y03803*
X03668Y03804*
X0367Y03807*
X03671Y03807*
X03671Y03808*
X03672Y03809*
X03672Y0381*
X03674Y03811*
X03675Y03813*
X03676Y03814*
X03678Y03813*
G37*
G36*
X03694Y0349D02*
X03695Y03489D01*
X03696Y03487*
X03696Y03484*
X03696Y03484*
Y03483*
X03697Y03481*
X03696Y03478*
X03696Y03477*
X03696Y03475*
X03695Y03473*
X03694Y03469*
X03694Y03468*
X03693Y03466*
X03693Y03465*
X03691Y03461*
X03691Y03459*
X0369Y03455*
X0369Y03454*
X03689Y0345*
X03689Y03449*
X03688Y03448*
X03687Y03448*
X03686Y03449*
X03686Y03451*
X03686Y03454*
X03686Y03461*
X03687Y03469*
X03687Y03474*
X03687Y03477*
X03688Y03483*
X03688Y03487*
X03689Y03489*
X03689Y03489*
X03692Y0349*
X03692Y0349*
X03694Y0349*
G37*
G36*
X02227Y0151D02*
X02229D01*
Y0151*
X02249*
Y01509*
X02257*
Y01508*
X02258*
Y01507*
X02256*
Y01506*
X02241*
Y01505*
X0223*
Y01502*
X02231*
Y015*
X02232*
Y01498*
X02233*
Y01491*
X02232*
Y0149*
X02231*
Y01488*
X0223*
Y01486*
X02221*
Y01487*
X0222*
Y0149*
X0222*
Y01491*
X02192*
Y0149*
X02191*
Y01489*
X0219*
Y01487*
X02191*
Y01486*
X02192*
Y01484*
X02192*
Y01483*
X02193*
Y01482*
X02194*
Y01481*
X02195*
Y01479*
X02196*
Y01476*
X02197*
Y01474*
X02198*
Y0145*
X02197*
Y01449*
X02194*
Y0145*
X02193*
Y01451*
X02192*
Y01472*
X02192*
Y01475*
X02191*
Y01476*
X0219*
Y01478*
X02189*
Y0148*
X02188*
Y01481*
X02187*
Y01482*
X02186*
Y01482*
X02179*
Y01482*
X02178*
Y01481*
X02177*
Y0148*
X02176*
Y01478*
X02175*
Y01477*
X02174*
Y01476*
X02173*
Y01475*
X0217*
Y01474*
X02169*
Y01473*
X02161*
Y01474*
X02159*
Y01475*
X02157*
Y01476*
X02155*
Y01477*
X02155*
Y01478*
X02154*
Y01479*
X02153*
Y0148*
X02152*
Y01481*
X02151*
Y01482*
X0215*
Y01482*
X02143*
Y01482*
X02142*
Y01481*
X02141*
Y01479*
X0214*
Y01478*
X02139*
Y01476*
X02138*
Y01474*
X02137*
Y0147*
X02136*
Y0145*
X02135*
Y01449*
X02132*
Y0145*
X02131*
Y01474*
X02132*
Y01476*
X02133*
Y01479*
X02134*
Y0148*
X02135*
Y01482*
X02136*
Y01483*
X02136*
Y01484*
X02137*
Y01485*
X02138*
Y01487*
X02139*
Y01489*
X02138*
Y0149*
X02137*
Y01491*
X02108*
Y01489*
X02107*
Y01486*
X02098*
Y01487*
X02097*
Y0149*
X02096*
Y01491*
X02095*
Y01498*
X02096*
Y01501*
X02097*
Y01503*
X02098*
Y01505*
X02088*
Y01506*
X02072*
Y01507*
X02071*
Y01508*
X02072*
Y01509*
X0208*
Y0151*
X021*
Y0151*
X02101*
Y01511*
X02103*
Y0151*
X02104*
Y0151*
X02126*
Y01509*
X02132*
Y01508*
X02134*
Y01507*
X02132*
Y01506*
X02118*
Y01505*
X02107*
Y01501*
X02108*
Y015*
X02108*
Y01499*
X02153*
Y015*
X02155*
Y01501*
X02155*
Y01501*
X02157*
Y01502*
X02158*
Y01503*
X02161*
Y01504*
X02168*
Y01503*
X02171*
Y01502*
X02173*
Y01501*
X02174*
Y01501*
X02175*
Y015*
X02177*
Y01499*
X02219*
Y015*
X0222*
Y01501*
X0222*
Y01502*
X02221*
Y01504*
X02222*
Y01505*
X02211*
Y01506*
X02197*
Y01507*
X02195*
Y01508*
X02197*
Y01509*
X02203*
Y0151*
X02224*
Y0151*
X02225*
Y01511*
X02227*
Y0151*
G37*
G36*
X02126Y0143D02*
X02127Y0143D01*
X02128Y0143*
X02129Y0143*
X02131Y01429*
X02132Y01429*
X02134Y01429*
X02135Y01428*
X02137Y01428*
X02139Y01427*
X02141Y01426*
X02142Y01425*
X02144Y01424*
X02144Y01424*
X02144Y01424*
X02145Y01424*
X02145Y01424*
X02145*
X02146Y01424*
X02146Y01424*
X02146Y01425*
X02147Y01425*
X02147Y01425*
X02147Y01425*
X02147Y01425*
X02147*
X02148Y01425*
X02148Y01425*
X02148Y01424*
X02148Y01424*
Y01423*
Y01419*
X02149Y01412*
Y01412*
Y01412*
X02149Y01412*
X02149Y01411*
Y01411*
Y01411*
Y0141*
X02149Y0141*
X02148Y01409*
X02148Y01409*
X02148Y01409*
X02148*
X02148Y01409*
X02147Y01409*
X02147Y0141*
X02147Y0141*
X02147Y01411*
X02146Y01411*
Y01411*
X02146Y01412*
X02146Y01412*
X02146Y01412*
X02146Y01413*
X02146Y01414*
X02145Y01415*
X02144Y01417*
X02143Y01418*
X02141Y0142*
X0214Y01421*
X02139Y01422*
X02139Y01422*
X02139Y01422*
X02139Y01422*
X02138Y01423*
X02138Y01423*
X02137Y01424*
X02136Y01424*
X02135Y01425*
X02134Y01425*
X02133Y01426*
X0213Y01427*
X02129Y01427*
X02127Y01427*
X02126Y01427*
X02124Y01427*
X02124*
X02123Y01427*
X02123Y01427*
X02122Y01427*
X02121Y01427*
X0212Y01427*
X02118Y01426*
X02117Y01426*
X02116Y01425*
X02114Y01425*
X02113Y01424*
X02111Y01423*
X0211Y01422*
X02109Y01421*
X02107Y01419*
X02107Y01419*
X02107Y01419*
X02107Y01418*
X02106Y01418*
X02106Y01417*
X02105Y01416*
X02105Y01415*
X02104Y01414*
X02103Y01412*
X02103Y01411*
X02102Y01409*
X02102Y01407*
X02101Y01405*
X02101Y01403*
X02101Y01401*
X02101Y01398*
Y01398*
Y01398*
X02101Y01397*
Y01396*
X02101Y01395*
X02101Y01394*
X02101Y01393*
X02102Y01391*
X02102Y01389*
X02102Y01388*
X02103Y01386*
X02103Y01384*
X02104Y01382*
X02105Y01381*
X02106Y01379*
X02107Y01377*
X02107Y01377*
X02107Y01377*
X02108Y01377*
X02108Y01376*
X02109Y01376*
X0211Y01375*
X0211Y01374*
X02111Y01373*
X02113Y01373*
X02114Y01372*
X02115Y01371*
X02117Y01371*
X02118Y0137*
X0212Y0137*
X02121Y01369*
X02123Y01369*
X02124*
X02124Y01369*
X02125*
X02126Y01369*
X02127Y0137*
X02127Y0137*
X02129Y0137*
X02132Y01371*
X02134Y01372*
X02135Y01372*
X02136Y01373*
X02136Y01373*
X02136Y01373*
X02137Y01374*
X02137Y01374*
X02138Y01375*
X02139Y01376*
X02141Y01377*
X02142Y01379*
X02143Y01381*
X02144Y01382*
X02144Y01383*
Y01383*
X02144Y01383*
X02144Y01383*
X02144Y01384*
X02145Y01384*
X02145Y01385*
X02146Y01385*
X02146Y01385*
X02146*
X02146Y01385*
X02146Y01385*
X02147Y01385*
X02147Y01385*
X02147Y01384*
Y01383*
Y01383*
Y01383*
X02147Y01383*
X02147Y01382*
X02147Y01381*
X02146Y0138*
X02145Y01377*
X02145Y01375*
Y01375*
Y01375*
X02145Y01375*
X02145Y01374*
X02144Y01374*
X02144Y01374*
X02144Y01373*
X02144Y01373*
X02143Y01373*
X02143Y01373*
X02143Y01372*
X02142Y01372*
X02142Y01372*
X02141Y01372*
X02141Y01371*
X0214Y01371*
X02139Y01371*
X02138Y0137*
X02137Y0137*
X02136Y01369*
X02134Y01369*
X02133Y01368*
X02131Y01368*
X0213Y01367*
X02128Y01367*
X02126Y01367*
X02124Y01367*
X02122Y01367*
X02122*
X02121Y01367*
X0212Y01367*
X02119Y01367*
X02118Y01367*
X02116Y01367*
X02115Y01367*
X02113Y01368*
X02111Y01368*
X0211Y01369*
X02108Y0137*
X02106Y01371*
X02104Y01372*
X02103Y01373*
X02101Y01374*
X02101Y01374*
X02101Y01375*
X02101Y01375*
X021Y01376*
X021Y01377*
X02099Y01378*
X02098Y01379*
X02098Y0138*
X02097Y01382*
X02096Y01383*
X02096Y01385*
X02095Y01387*
X02095Y01389*
X02094Y01391*
X02094Y01393*
X02094Y01396*
Y01396*
Y01396*
Y01397*
X02094Y01397*
X02094Y01398*
X02094Y014*
X02094Y01401*
X02095Y01403*
X02095Y01405*
X02095Y01407*
X02096Y01408*
X02097Y01411*
X02097Y01413*
X02098Y01415*
X021Y01417*
X02101Y01419*
X02102Y0142*
X02102Y01421*
X02103Y01421*
X02103Y01421*
X02104Y01422*
X02105Y01423*
X02106Y01423*
X02107Y01424*
X02108Y01425*
X0211Y01426*
X02112Y01427*
X02113Y01428*
X02115Y01429*
X02117Y01429*
X0212Y0143*
X02122Y0143*
X02124Y0143*
X02126*
X02126Y0143*
G37*
G36*
X02205Y01429D02*
X02205Y01429D01*
X02206Y01429*
X02206Y01428*
X02206Y01428*
X02221Y01381*
X02222Y01377*
Y01377*
X02222Y01377*
X02222Y01376*
X02223Y01375*
X02223Y01374*
X02223Y01373*
X02224Y01373*
X02224Y01372*
X02224Y01371*
X02224Y01371*
X02225Y01371*
X02225Y01371*
X02225Y01371*
X02226Y0137*
X02226Y0137*
X02227Y0137*
X02228Y01369*
X02228*
X02228Y01369*
X02228Y01369*
X02229Y01369*
X02229Y01368*
X02229Y01368*
Y01368*
X02229Y01368*
X02229Y01368*
X02229Y01367*
X02228Y01367*
X02228Y01367*
X02227Y01367*
X02227*
X02226Y01367*
X02226Y01367*
X02226*
X02225Y01367*
X02225*
X02224Y01367*
X02223Y01367*
X02222*
X02221Y01368*
X02218*
X02217Y01367*
X02216*
X02215Y01367*
X02214Y01367*
X02214*
X02213Y01367*
X02213Y01367*
X02212*
X02212Y01367*
X02212*
X02211Y01367*
X02211Y01367*
X02211Y01368*
X02211Y01368*
Y01368*
X02211Y01368*
X02211Y01368*
X02211Y01369*
X02212Y01369*
X02212Y01369*
X02213Y01369*
X02213Y01369*
X02214Y01369*
X02214Y0137*
X02215Y0137*
X02215Y0137*
X02216Y01371*
X02216Y01372*
X02216Y01373*
Y01373*
Y01373*
Y01373*
X02216Y01374*
X02216Y01374*
X02216Y01375*
X02216Y01377*
X02213Y01387*
X02212Y01388*
Y01388*
X02212Y01388*
X02212Y01389*
X02211Y01389*
X02211Y01389*
X02211Y01389*
X02211Y0139*
X02211*
X02211Y0139*
X0221Y0139*
X0221*
X02209Y0139*
X02189*
X02188Y0139*
X02188Y0139*
X02187Y0139*
X02187Y01389*
X02187Y01389*
X02187Y01389*
X02186Y01388*
X0218Y01377*
X0218Y01377*
X0218Y01376*
X0218Y01376*
X0218Y01375*
X02179Y01374*
X02179Y01373*
X02179Y01372*
Y01372*
X02179Y01372*
X02179Y01372*
X0218Y01371*
X0218Y01371*
X0218Y0137*
X02181Y0137*
X02182Y01369*
X02182*
X02183Y01369*
X02183Y01369*
X02184Y01369*
X02184Y01369*
X02185Y01368*
X02185Y01368*
X02185Y01368*
Y01368*
X02185Y01367*
X02185Y01367*
X02185Y01367*
X02184Y01367*
X02184*
X02183Y01367*
X02183Y01367*
X02183*
X02182Y01367*
X02182*
X02181Y01367*
X0218Y01367*
X02179*
X02178Y01368*
X02175*
X02174Y01367*
X02173Y01367*
X02171Y01367*
X02171*
X02171Y01367*
X0217Y01367*
X02169*
X02169Y01367*
X02168Y01367*
X02168Y01368*
X02168Y01368*
Y01368*
X02168Y01368*
X02169Y01369*
X02169Y01369*
X02169Y01369*
X0217Y01369*
X02171Y0137*
X02171*
X02172Y0137*
X02172Y0137*
X02173Y01371*
X02173Y01371*
X02174Y01372*
X02175Y01373*
X02175Y01374*
X02177Y01377*
X02203Y01428*
Y01428*
X02203Y01428*
X02203Y01429*
X02204Y01429*
X02204Y01429*
X02205Y01429*
X02205*
X02205Y01429*
G37*
G36*
X02239Y01377D02*
X02239Y01377D01*
X0224Y01376*
X02241Y01375*
X02241Y01375*
X02241Y01374*
X02242Y01374*
X02242Y01373*
X02242Y01373*
X02243Y01373*
X02243Y01373*
X02243Y01372*
Y01372*
X02243Y01372*
X02243Y01372*
X02242Y01371*
X02242Y01371*
X02242Y01371*
X02241Y0137*
X02241Y0137*
X0224Y01369*
X02239Y01368*
X02239Y01368*
X02238Y01367*
X02238Y01367*
X02238Y01367*
X02237Y01367*
X02237*
X02237Y01367*
X02237Y01367*
X02236Y01367*
X02236Y01368*
X02236Y01368*
X02236Y01368*
X02236Y01368*
X02235Y01369*
X02235Y0137*
X02234Y01371*
X02234Y01371*
X02233Y01371*
X02233Y01372*
X02233Y01372*
Y01372*
X02233Y01372*
X02233Y01373*
X02234Y01373*
X02234Y01373*
X02234*
X02234Y01374*
X02235Y01374*
X02235Y01374*
X02236Y01375*
X02237Y01376*
X02237Y01376*
X02237Y01377*
X02238Y01377*
X02238Y01377*
X02238*
X02239Y01377*
G37*
G36*
X02159D02*
X02159Y01377D01*
X0216Y01376*
X02161Y01375*
X02161Y01375*
X02161Y01374*
X02162Y01374*
X02163Y01373*
X02163Y01373*
X02163Y01373*
X02163Y01373*
X02163Y01372*
Y01372*
X02163Y01372*
X02163Y01372*
X02162Y01371*
X02162Y01371*
X02162Y01371*
X02161Y0137*
X02161Y0137*
X0216Y01369*
X02159Y01368*
X02159Y01368*
X02159Y01367*
X02158Y01367*
X02158Y01367*
X02157Y01367*
X02157*
X02157Y01367*
X02157Y01367*
X02157Y01367*
X02156Y01368*
X02156Y01368*
X02156Y01368*
X02156Y01368*
X02156Y01369*
X02155Y0137*
X02154Y01371*
X02154Y01371*
X02153Y01371*
X02153Y01372*
X02153Y01372*
Y01372*
X02153Y01372*
X02153Y01373*
X02154Y01373*
X02154Y01373*
X02154*
X02154Y01374*
X02155Y01374*
X02155Y01374*
X02156Y01375*
X02157Y01376*
X02157Y01376*
X02158Y01377*
X02158Y01377*
X02158Y01377*
X02159*
X02159Y01377*
G37*
%LNpcbfoc-2*%
%LPC*%
G36*
X03689Y03498D02*
X03688Y03497D01*
X03687Y03497*
X03686Y03497*
X03687Y03494*
X03687Y03494*
X03688Y03494*
X03688Y03494*
X03689Y03493*
X0369Y03493*
X03691Y03494*
X03691Y03494*
X03692Y03495*
X03692Y03497*
X0369Y03498*
X03689Y03498*
G37*
G36*
X02202Y01419D02*
X02202D01*
X02202Y01418*
X02202Y01418*
X02201Y01418*
X02201Y01418*
X02201Y01418*
X02201Y01417*
X02201Y01417*
X02201Y01416*
X0219Y01396*
X02189Y01395*
Y01395*
X02189Y01395*
X02189Y01394*
Y01394*
X02189Y01394*
X0219Y01394*
X0219Y01394*
X02207*
X02208Y01394*
X02208Y01394*
X02209Y01394*
X02209Y01394*
X0221Y01394*
X0221Y01395*
Y01395*
Y01395*
X0221Y01395*
X0221Y01396*
Y01396*
X02209Y01396*
X02209Y01397*
X02209Y01397*
X02203Y01416*
Y01416*
X02203Y01416*
X02203Y01417*
X02203Y01417*
X02203Y01418*
Y01418*
X02203Y01418*
X02202Y01418*
X02202Y01418*
X02202Y01419*
G37*
%LNpcbfoc-3*%
%LPD*%
G54D10*
X02913Y02001D02*
D01*
D01*
G75*
G03X02907I-00003J0D01*
G74*G01*
D01*
G75*
G03X02913I00003J0D01*
G74*G01*
X02939Y02079D02*
Y02094D01*
X0288Y02079D02*
Y02094D01*
G54D11*
X02138Y03312D02*
D01*
D01*
G75*
G03X02128I-00004J0D01*
G74*G01*
D01*
G75*
G03X02138I00004J0D01*
G74*G01*
X0343Y03399D02*
D01*
D01*
G75*
G03X0342I-00004J0D01*
G74*G01*
D01*
G75*
G03X0343I00004J0D01*
G74*G01*
X02883Y03149D02*
D01*
D01*
G75*
G03X02874I-00004J0D01*
G74*G01*
D01*
G75*
G03X02883I00004J0D01*
G74*G01*
X02588Y02482D02*
D01*
D01*
G75*
G03X02579I-00004J0D01*
G74*G01*
D01*
G75*
G03X02588I00004J0D01*
G74*G01*
X0398Y02759D02*
D01*
D01*
G75*
G03X0397I-00004J0D01*
G74*G01*
D01*
G75*
G03X0398I00004J0D01*
G74*G01*
X02765Y0228D02*
D01*
D01*
G75*
G03X02756I-00004J0D01*
G74*G01*
D01*
G75*
G03X02765I00004J0D01*
G74*G01*
X03631Y03316D02*
D01*
D01*
G75*
G03X03622I-00004J0D01*
G74*G01*
D01*
G75*
G03X03631I00004J0D01*
G74*G01*
X03979Y02166D02*
D01*
D01*
G75*
G03X0397I-00004J0D01*
G74*G01*
D01*
G75*
G03X03979I00004J0D01*
G74*G01*
X03025Y03079D02*
D01*
D01*
G75*
G03X03015I-00004J0D01*
G74*G01*
D01*
G75*
G03X03025I00004J0D01*
G74*G01*
X02551Y03752D02*
D01*
D01*
G75*
G03X02541I-00004J0D01*
G74*G01*
D01*
G75*
G03X02551I00004J0D01*
G74*G01*
X03243Y03D02*
D01*
D01*
G75*
G03X03233I-00004J0D01*
G74*G01*
D01*
G75*
G03X03243I00004J0D01*
G74*G01*
X03634Y02127D02*
D01*
D01*
G75*
G03X03625I-00004J0D01*
G74*G01*
D01*
G75*
G03X03634I00004J0D01*
G74*G01*
X03631Y02725D02*
D01*
D01*
G75*
G03X03621I-00004J0D01*
G74*G01*
D01*
G75*
G03X03631I00004J0D01*
G74*G01*
X03981Y01569D02*
D01*
D01*
G75*
G03X03971I-00004J0D01*
G74*G01*
D01*
G75*
G03X03981I00004J0D01*
G74*G01*
G54D12*
X02797Y03219D02*
D01*
D01*
G75*
G03X02777I-00009J0D01*
G74*G01*
D01*
G75*
G03X02797I00009J0D01*
G74*G01*
G54D13*
X02477Y02815D02*
X02548Y02886D01*
X02184Y03109D02*
X02477Y02815D01*
X02184Y03109D02*
X02254Y0318D01*
X02548Y02886*
X02067Y03338D02*
Y034D01*
Y03174D02*
Y03236D01*
X02018Y03174D02*
X02067D01*
X01907Y03224D02*
Y0335D01*
X02018Y034D02*
X02067D01*
X03178Y0343D02*
X03367D01*
X03178Y03289D02*
Y03291D01*
Y03349D02*
Y0337D01*
Y03427D02*
Y0343D01*
Y03289D02*
X03367D01*
Y03291*
Y03349D02*
Y0337D01*
Y03427D02*
Y0343D01*
X02385Y0231D02*
X0245Y02375D01*
X02212Y02482D02*
X02278Y02548D01*
X03457Y02211D02*
X03514D01*
X03457Y02322D02*
X03514D01*
X0282Y03186D02*
Y03403D01*
X02604D02*
X0282D01*
X02604Y03186D02*
Y03403D01*
Y03186D02*
X0282D01*
X02631Y02443D02*
X02638D01*
X02529D02*
X02536D01*
X02529Y02265D02*
Y02443D01*
X02631Y02265D02*
X02638D01*
X02529D02*
X02536D01*
X02638D02*
Y02443D01*
X03528Y01757D02*
Y01861D01*
X034Y01757D02*
Y01861D01*
X03411Y02428D02*
Y02532D01*
X03539Y02428D02*
Y02532D01*
X03878Y03021D02*
X03898D01*
Y02757D02*
Y03021D01*
X03878Y02757D02*
X03898D01*
X03466Y02877D02*
X03523D01*
X03466Y02766D02*
X03523D01*
X03522Y02983D02*
Y03088D01*
X03394Y02983D02*
Y03088D01*
X02955Y02715D02*
Y02766D01*
X02902Y02715D02*
Y02766D01*
X02713Y02594D02*
X02752D01*
X02713Y02645D02*
X02752D01*
X0273Y02306D02*
X02742D01*
X02997D02*
X03009D01*
Y02573D02*
Y02585D01*
Y02306D02*
Y02318D01*
X0273Y02585D02*
X02742D01*
X02997D02*
X03009D01*
X0273Y02573D02*
Y02585D01*
Y02306D02*
Y02318D01*
X03703Y03318D02*
X03723D01*
X03703Y03054D02*
Y03318D01*
Y03054D02*
X03723D01*
X03878Y02428D02*
X03898D01*
Y02164D02*
Y02428D01*
X03878Y02164D02*
X03898D01*
X02677Y02017D02*
Y021D01*
X02606Y02017D02*
Y021D01*
X02837Y01944D02*
Y01962D01*
X02782Y01944D02*
Y01962D01*
X02884Y03083D02*
X0292Y03119D01*
X02847Y03121D02*
X02882Y03156D01*
X02878Y02946D02*
Y03025D01*
X02945Y02946D02*
Y03025D01*
X03Y03163D02*
Y03181D01*
X03072Y03107D02*
X03129D01*
X03201Y03163D02*
Y03181D01*
X03072Y03237D02*
X03129D01*
X02479Y03728D02*
X02542D01*
X02479Y0364D02*
X02542D01*
X02591Y03554D02*
X02646D01*
X02591Y03495D02*
X02646D01*
X02437Y03424D02*
X02487D01*
X02437Y03477D02*
X02487D01*
X0318Y03028D02*
Y03031D01*
Y0295D02*
Y02971D01*
Y0289D02*
Y02893D01*
X02991Y0289D02*
X0318D01*
X02991Y03028D02*
Y03031D01*
Y0295D02*
Y02971D01*
Y0289D02*
Y02893D01*
Y03031D02*
X0318D01*
X02561Y02233D02*
X02618D01*
X02561Y02123D02*
X02618D01*
X02754Y02021D02*
Y021D01*
X02687Y02021D02*
Y021D01*
X03265Y0159D02*
X03322D01*
X03265Y017D02*
X03322D01*
X02361Y02241D02*
X02388D01*
X02361Y02142D02*
X02388D01*
X02436Y03432D02*
X02486D01*
X02436Y03379D02*
X02486D01*
X03706Y02128D02*
X03726D01*
X03706Y01865D02*
Y02128D01*
Y01865D02*
X03726D01*
X03703Y02726D02*
X03723D01*
X03703Y02463D02*
Y02726D01*
Y02463D02*
X03723D01*
X03879Y01567D02*
X03899D01*
Y01831*
X03879D02*
X03899D01*
X03061Y0333D02*
Y0338D01*
X03114Y0333D02*
Y0338D01*
X03159Y03528D02*
X03238D01*
X03159Y03461D02*
X03238D01*
X02051Y03082D02*
X02045Y03088D01*
X02032*
X02025Y03082*
Y03055*
X02032Y03049*
X02045*
X02051Y03055*
Y03068*
X02038*
X02064Y03049D02*
Y03088D01*
X02091Y03049*
Y03088*
X02104D02*
Y03049D01*
X02123*
X0213Y03055*
Y03082*
X02123Y03088*
X02104*
X02281Y02862D02*
Y02835D01*
X02294Y02822*
X02307Y02835*
Y02862*
X02347Y02855D02*
X0234Y02862D01*
X02327*
X0232Y02855*
Y02829*
X02327Y02822*
X0234*
X02347Y02829*
X02386Y02855D02*
X02379Y02862D01*
X02366*
X0236Y02855*
Y02829*
X02366Y02822*
X02379*
X02386Y02829*
X0216Y02944D02*
X02153Y0295D01*
X0214*
X02133Y02944*
Y02937*
X0214Y02931*
X02153*
X0216Y02924*
Y02917*
X02153Y02911*
X0214*
X02133Y02917*
X02173Y0295D02*
Y02911D01*
X02186Y02924*
X02199Y02911*
Y0295*
X02238Y02944D02*
X02232Y0295D01*
X02219*
X02212Y02944*
Y02917*
X02219Y02911*
X02232*
X02238Y02917*
X02251Y0295D02*
Y02911D01*
X02278*
X02291Y0295D02*
Y02911D01*
Y02924*
X02317Y0295*
X02297Y02931*
X02317Y02911*
X02101Y03013D02*
X02094Y03019D01*
X02081*
X02074Y03013*
Y03006*
X02081Y02999*
X02094*
X02101Y02993*
Y02986*
X02094Y0298*
X02081*
X02074Y02986*
X02114Y03019D02*
Y0298D01*
X02127Y02993*
X0214Y0298*
Y03019*
X02153D02*
Y0298D01*
X02173*
X02179Y02986*
Y03013*
X02173Y03019*
X02153*
X02192D02*
X02205D01*
X02199*
Y0298*
X02192*
X02205*
X02245Y03019D02*
X02232D01*
X02225Y03013*
Y02986*
X02232Y0298*
X02245*
X02251Y02986*
Y03013*
X02245Y03019*
X03476Y03389D02*
X03482Y03395D01*
Y03408*
X03476Y03415*
X03469*
X03463Y03408*
Y03395*
X03456Y03389*
X03449*
X03443Y03395*
Y03408*
X03449Y03415*
X03482Y03376D02*
X03443D01*
X03456Y03363*
X03443Y03349*
X03482*
X03443Y0331D02*
Y03336D01*
X03469Y0331*
X03476*
X03482Y03317*
Y0333*
X03476Y03336*
X02869Y02959D02*
X02829D01*
Y02978*
X02836Y02985*
X02849*
X02855Y02978*
Y02959*
Y02972D02*
X02869Y02985D01*
X02829Y03024D02*
Y02998D01*
X02849*
X02842Y03011*
Y03018*
X02849Y03024*
X02862*
X02869Y03018*
Y03005*
X02862Y02998*
X03172Y03073D02*
X03165Y03079D01*
X03152*
X03145Y03073*
Y03046*
X03152Y0304*
X03165*
X03172Y03046*
X03185Y0304D02*
X03198D01*
X03191*
Y03079*
X03185Y03073*
X03071Y03423D02*
X03065Y03416D01*
Y03403*
X03071Y03397*
X03098*
X03104Y03403*
Y03416*
X03098Y03423*
X03071Y03436D02*
X03065Y03443D01*
Y03456*
X03071Y03462*
X03078*
X03085Y03456*
Y03449*
Y03456*
X03091Y03462*
X03098*
X03104Y03456*
Y03443*
X03098Y03436*
X02572Y03599D02*
X02565Y03605D01*
X02552*
X02546Y03599*
Y03572*
X02552Y03566*
X02565*
X02572Y03572*
X02585Y03599D02*
X02592Y03605D01*
X02605*
X02611Y03599*
Y03592*
X02605Y03586*
X02611Y03579*
Y03572*
X02605Y03566*
X02592*
X02585Y03572*
Y03579*
X02592Y03586*
X02585Y03592*
Y03599*
X02592Y03586D02*
X02605D01*
G54D14*
X04068Y01943D02*
Y01982D01*
X04087Y02002*
X04107Y01982*
Y01943*
Y01972*
X04068*
X04046Y0258D02*
Y02521D01*
X04075*
X04085Y02531*
Y0254*
X04075Y0255*
X04046*
X04075*
X04085Y0256*
Y0257*
X04075Y0258*
X04046*
X04093Y03159D02*
X04083Y03169D01*
X04064*
X04054Y03159*
Y0312*
X04064Y0311*
X04083*
X04093Y0312*
X031Y0162D02*
X03139D01*
X03119Y0164D02*
Y01601D01*
X02802Y0162D02*
X02841D01*
X03005Y021D02*
X02995Y0211D01*
X02975*
X02965Y021*
Y02061*
X02975Y02051*
X02995*
X03005Y02061*
X03025Y02051D02*
X03045D01*
X03035*
Y0211*
X03025Y021*
X03074Y02051D02*
X03094D01*
X03084*
Y0211*
X03074Y021*
X01989Y03489D02*
X01969D01*
X01979*
Y0344*
X01969Y0343*
X01959*
X01949Y0344*
X02008Y0343D02*
X02028D01*
X02018*
Y03489*
X02008Y03479*
X03383Y03038D02*
X03324D01*
Y03068*
X03334Y03078*
X03354*
X03364Y03068*
Y03038*
Y03058D02*
X03383Y03078D01*
X03324Y03098D02*
Y03137D01*
X03334*
X03373Y03098*
X03383*
X03187Y01761D02*
X03177Y01771D01*
X03157*
X03147Y01761*
Y01722*
X03157Y01712*
X03177*
X03187Y01722*
X03246Y01771D02*
X03226Y01761D01*
X03207Y01742*
Y01722*
X03216Y01712*
X03236*
X03246Y01722*
Y01732*
X03236Y01742*
X03207*
X0341Y02186D02*
X034Y02196D01*
X0338*
X0337Y02186*
Y02147*
X0338Y02137*
X034*
X0341Y02147*
X0343Y02196D02*
X03469D01*
Y02186*
X0343Y02147*
Y02137*
X03551Y01542D02*
X03541Y01552D01*
X03521*
X03511Y01542*
Y01503*
X03521Y01493*
X03541*
X03551Y01503*
X03571D02*
X0358Y01493D01*
X036*
X0361Y01503*
Y01542*
X036Y01552*
X0358*
X03571Y01542*
Y01533*
X0358Y01523*
X0361*
X02452Y02264D02*
X02512D01*
Y02294*
X02502Y02304*
X02462*
X02452Y02294*
Y02264*
X02512Y02364D02*
Y02324D01*
X02472Y02364*
X02462*
X02452Y02354*
Y02334*
X02462Y02324*
X03055Y03315D02*
Y03305D01*
X03075Y03286*
X03095Y03305*
Y03315*
X03075Y03286D02*
Y03256D01*
X03114D02*
X03134D01*
X03124*
Y03315*
X03114Y03305*
X03011Y02283D02*
Y02234D01*
X03021Y02224*
X03041*
X03051Y02234*
Y02283*
X0307Y02224D02*
X0309D01*
X0308*
Y02283*
X0307Y02273*
X0248Y03149D02*
Y031D01*
X0249Y0309*
X0251*
X0252Y031*
Y03149*
X02579Y0309D02*
X0254D01*
X02579Y0313*
Y03139*
X02569Y03149*
X02549*
X0254Y03139*
X0308Y02864D02*
X0307Y02874D01*
X0305*
X0304Y02864*
Y02855*
X0305Y02845*
X0307*
X0308Y02835*
Y02825*
X0307Y02815*
X0305*
X0304Y02825*
X031Y02874D02*
Y02815D01*
X0312Y02835*
X03139Y02815*
Y02874*
X03159Y02815D02*
X03179D01*
X03169*
Y02874*
X03159Y02864*
X03152Y0354D02*
Y03599D01*
X03182*
X03192Y03589*
Y0357*
X03182Y0356*
X03152*
X03172D02*
X03192Y0354D01*
X03212Y03589D02*
X03221Y03599D01*
X03241*
X03251Y03589*
Y0358*
X03241Y0357*
X03231*
X03241*
X03251Y0356*
Y0355*
X03241Y0354*
X03221*
X03212Y0355*
X02747Y02126D02*
X02688D01*
Y02156*
X02698Y02166*
X02718*
X02728Y02156*
Y02126*
Y02146D02*
X02747Y02166D01*
Y02186D02*
Y02206D01*
Y02196*
X02688*
X02698Y02186*
X02747Y02275D02*
Y02235D01*
X02708Y02275*
X02698*
X02688Y02265*
Y02245*
X02698Y02235*
X02468Y02026D02*
Y02086D01*
X02498*
X02508Y02076*
Y02056*
X02498Y02046*
X02468*
X02488D02*
X02508Y02026D01*
X02528D02*
X02548D01*
X02538*
Y02086*
X02528Y02076*
X02578Y02026D02*
X02598D01*
X02588*
Y02086*
X02578Y02076*
X03378Y01795D02*
X03319D01*
Y01825*
X03329Y01835*
X03349*
X03359Y01825*
Y01795*
Y01815D02*
X03378Y01835D01*
Y01855D02*
Y01875D01*
Y01865*
X03319*
X03329Y01855*
Y01904D02*
X03319Y01914D01*
Y01934*
X03329Y01944*
X03368*
X03378Y01934*
Y01914*
X03368Y01904*
X03329*
X03394Y02569D02*
X03335D01*
Y02599*
X03345Y02609*
X03365*
X03375Y02599*
Y02569*
Y02589D02*
X03394Y02609D01*
X03384Y02629D02*
X03394Y02638D01*
Y02658*
X03384Y02668*
X03345*
X03335Y02658*
Y02638*
X03345Y02629*
X03355*
X03365Y02638*
Y02668*
X02775Y02835D02*
Y02894D01*
X02805*
X02815Y02884*
Y02865*
X02805Y02855*
X02775*
X02795D02*
X02815Y02835D01*
X02835Y02884D02*
X02844Y02894D01*
X02864*
X02874Y02884*
Y02875*
X02864Y02865*
X02874Y02855*
Y02845*
X02864Y02835*
X02844*
X02835Y02845*
Y02855*
X02844Y02865*
X02835Y02875*
Y02884*
X02844Y02865D02*
X02864D01*
X0278Y02765D02*
Y02824D01*
X0281*
X0282Y02814*
Y02795*
X0281Y02785*
X0278*
X028D02*
X0282Y02765D01*
X02879Y02824D02*
X02859Y02814D01*
X0284Y02795*
Y02775*
X02849Y02765*
X02869*
X02879Y02775*
Y02785*
X02869Y02795*
X0284*
X02148Y02543D02*
X0219Y02501D01*
X02219Y02529*
X02233Y02543D02*
X02247Y02558D01*
X0224Y02551*
X02198Y02593*
Y02579*
X02375Y0358D02*
X02434D01*
Y0361*
X02424Y0362*
X02385*
X02375Y0361*
Y0358*
X02434Y03639D02*
Y03659D01*
Y03649*
X02375*
X02385Y03639*
X03322Y03232D02*
X03312Y03242D01*
X03292*
X03282Y03232*
Y03193*
X03292Y03183*
X03312*
X03322Y03193*
X03381Y03183D02*
X03342D01*
X03381Y03223*
Y03232*
X03371Y03242*
X03351*
X03342Y03232*
X02276Y03411D02*
X02266Y03421D01*
X02246*
X02236Y03411*
Y03372*
X02246Y03362*
X02266*
X02276Y03372*
X02296Y03362D02*
X02316D01*
X02306*
Y03421*
X02296Y03411*
X02345D02*
X02355Y03421D01*
X02375*
X02385Y03411*
Y03402*
X02375Y03392*
X02365*
X02375*
X02385Y03382*
Y03372*
X02375Y03362*
X02355*
X02345Y03372*
X02274Y03495D02*
X02264Y03505D01*
X02244*
X02234Y03495*
Y03456*
X02244Y03446*
X02264*
X02274Y03456*
X02294Y03446D02*
X02314D01*
X02304*
Y03505*
X02294Y03495*
X02383Y03446D02*
X02343D01*
X02383Y03486*
Y03495*
X02373Y03505*
X02353*
X02343Y03495*
X02365Y02005D02*
X02355Y01995D01*
Y01975*
X02365Y01965*
X02404*
X02414Y01975*
Y01995*
X02404Y02005*
X02414Y02025D02*
Y02045D01*
Y02035*
X02355*
X02365Y02025*
Y02074D02*
X02355Y02084D01*
Y02104*
X02365Y02114*
X02375*
X02385Y02104*
X02395Y02114*
X02404*
X02414Y02104*
Y02084*
X02404Y02074*
X02395*
X02385Y02084*
X02375Y02074*
X02365*
X02385Y02084D02*
Y02104D01*
X02806Y02674D02*
X02791D01*
X02777Y0266*
Y02646*
X02806Y02617*
X0282*
X02834Y02631*
Y02646*
X02855Y02653D02*
X02869Y02667D01*
X02862Y0266*
X0282Y02702*
Y02688*
X02848Y0273D02*
X02876Y02759D01*
X02883Y02752*
Y02695*
X0289Y02688*
X02327Y02677D02*
X02317Y02687D01*
X02297*
X02287Y02677*
Y02637*
X02297Y02627*
X02317*
X02327Y02637*
X02347Y02627D02*
X02367D01*
X02357*
Y02687*
X02347Y02677*
X02437Y02687D02*
X02417Y02677D01*
X02397Y02657*
Y02637*
X02407Y02627*
X02427*
X02437Y02637*
Y02647*
X02427Y02657*
X02397*
X02794Y01779D02*
X02784Y01769D01*
Y01749*
X02794Y01739*
X02833*
X02843Y01749*
Y01769*
X02833Y01779*
X02843Y01799D02*
Y01819D01*
Y01809*
X02784*
X02794Y01799*
X02843Y01878D02*
X02784D01*
X02814Y01848*
Y01888*
X03283Y028D02*
X03273Y0281D01*
X03253*
X03243Y028*
Y02761*
X03253Y02751*
X03273*
X03283Y02761*
X03303Y02751D02*
X03323D01*
X03313*
Y0281*
X03303Y028*
X03352D02*
X03362Y0281D01*
X03382*
X03392Y028*
Y02761*
X03382Y02751*
X03362*
X03352Y02761*
Y028*
X02569Y02168D02*
X02559Y02158D01*
Y02138*
X02569Y02128*
X02609*
X02619Y02138*
Y02158*
X02609Y02168*
X02559Y02228D02*
Y02188D01*
X02589*
X02579Y02208*
Y02218*
X02589Y02228*
X02609*
X02619Y02218*
Y02198*
X02609Y02188*
X0264Y02636D02*
X0263Y02646D01*
X0261*
X026Y02636*
Y02597*
X0261Y02587*
X0263*
X0264Y02597*
X02689Y02587D02*
Y02646D01*
X0266Y02617*
X02699*
M02*