%FSTAX23Y23*%
%MOIN*%
%SFA1B1*%

%IPPOS*%
%ADD48C,0.050000*%
%ADD49C,0.039370*%
%ADD50C,0.118110*%
%ADD51C,0.019680*%
%LNpcbfoc-1*%
%LPD*%
G36*
X03966Y03831D02*
X03969Y03818D01*
X03974Y03805*
X03981Y03794*
X03991Y03784*
X04002Y03777*
X04015Y03772*
X04028Y03769*
X04035*
Y01348*
X04028*
X04015Y01345*
X04002Y0134*
X03991Y01333*
X03981Y01323*
X03974Y01312*
X03969Y01299*
X03966Y01286*
Y01279*
X02037*
Y01286*
X02034Y01299*
X02029Y01312*
X02022Y01323*
X02012Y01333*
X02001Y0134*
X01988Y01345*
X01975Y01348*
X01967*
Y03769*
X01975*
X01988Y03772*
X02001Y03777*
X02012Y03784*
X02022Y03794*
X02029Y03805*
X02034Y03818*
X02037Y03831*
Y03838*
X03966*
Y03831*
G37*
%LNpcbfoc-2*%
%LPC*%
G36*
X02438Y03728D02*
X02431D01*
X02423Y03726*
X02417Y03723*
X02411Y03717*
X02408Y03711*
X02406Y03703*
Y03696*
X02408Y03688*
X02411Y03682*
X02417Y03676*
X02423Y03673*
X02431Y03671*
X02438*
X02446Y03673*
X02452Y03676*
X02458Y03682*
X02461Y03688*
X02463Y03696*
Y03703*
X02461Y03711*
X02458Y03717*
X02452Y03723*
X02446Y03726*
X02438Y03728*
G37*
G36*
X02704Y03752D02*
X02695D01*
X02686Y03749*
X02679Y03742*
X02676Y03734*
Y03724*
X02679Y03715*
X02685Y0371*
X02686Y03704*
X02685Y03698*
X02679Y03693*
X02676Y03684*
Y03675*
X02679Y03666*
X02686Y0366*
X02686Y03655*
X02686Y03649*
X02679Y03643*
X02676Y03634*
Y03625*
X02679Y03616*
X02686Y03609*
X02695Y03606*
X02704*
X02713Y03609*
X0272Y03616*
X02723Y03625*
Y03634*
X0272Y03643*
X02714Y03649*
X02713Y03655*
X02714Y0366*
X0272Y03666*
X02723Y03675*
Y03684*
X0272Y03693*
X02714Y03698*
X02713Y03704*
X02714Y0371*
X0272Y03715*
X02723Y03724*
Y03734*
X0272Y03742*
X02713Y03749*
X02704Y03752*
G37*
G36*
X02853Y03708D02*
X02846D01*
X02838Y03706*
X02832Y03703*
X02826Y03697*
X02823Y03691*
X02821Y03683*
Y03676*
X02823Y03668*
X02826Y03662*
X02832Y03656*
X02838Y03653*
X0284Y03652*
Y03642*
X02838Y03641*
X02832Y03638*
X02826Y03632*
X02823Y03626*
X02821Y03618*
Y03611*
X02823Y03603*
X02826Y03597*
X02832Y03591*
X02838Y03588*
X02846Y03586*
X02853*
X02861Y03588*
X02867Y03591*
X02873Y03597*
X02876Y03603*
X02878Y03611*
Y03618*
X02876Y03626*
X02873Y03632*
X02867Y03638*
X02861Y03641*
X02859Y03642*
Y03652*
X02861Y03653*
X02867Y03656*
X02873Y03662*
X02876Y03668*
X02878Y03676*
Y03683*
X02876Y03691*
X02873Y03697*
X02867Y03703*
X02861Y03706*
X02853Y03708*
G37*
G36*
X02653Y03578D02*
X02645D01*
X02638Y03576*
X02631Y03572*
X02626Y03567*
X02622Y0356*
X0262Y03553*
Y03545*
X02622Y03538*
X02626Y03531*
X02631Y03526*
X02638Y03522*
X02645Y0352*
X02653*
X0266Y03522*
X02667Y03526*
X02672Y03531*
X02676Y03538*
X02678Y03545*
Y03553*
X02676Y0356*
X02672Y03567*
X02667Y03572*
X0266Y03576*
X02653Y03578*
G37*
G36*
X02853Y03573D02*
X02846D01*
X02838Y03571*
X02832Y03568*
X02826Y03562*
X02823Y03556*
X02821Y03548*
Y03541*
X02823Y03533*
X02826Y03527*
X02832Y03521*
X02838Y03518*
X02846Y03516*
X02853*
X02861Y03518*
X02867Y03521*
X02873Y03527*
X02876Y03533*
X02878Y03541*
Y03548*
X02876Y03556*
X02873Y03562*
X02867Y03568*
X02861Y03571*
X02853Y03573*
G37*
G36*
X03256Y03523D02*
X03249D01*
X03241Y03521*
X03235Y03518*
X03229Y03512*
X03226Y03506*
X03224Y03498*
Y03491*
X03226Y03483*
X03229Y03477*
X03235Y03471*
X03241Y03468*
X03249Y03466*
X03256*
X03264Y03468*
X0327Y03471*
X03276Y03477*
X03279Y03483*
X03281Y03491*
Y03498*
X03279Y03506*
X03276Y03512*
X0327Y03518*
X03264Y03521*
X03256Y03523*
G37*
G36*
X02968Y03518D02*
X02961D01*
X02953Y03516*
X02947Y03513*
X02941Y03507*
X02938Y03501*
X02936Y03493*
Y03486*
X02938Y03478*
X02941Y03472*
X02947Y03466*
X02953Y03463*
X02961Y03461*
X02968*
X02976Y03463*
X02982Y03466*
X02988Y03472*
X02991Y03478*
X02993Y03486*
Y03493*
X02991Y03501*
X02988Y03507*
X02982Y03513*
X02976Y03516*
X02968Y03518*
G37*
G36*
X02544Y03457D02*
X02536D01*
X02529Y03455*
X02522Y03451*
X02517Y03446*
X02513Y03439*
X02511Y03432*
Y03424*
X02513Y03417*
X02517Y0341*
X02522Y03405*
X02529Y03401*
X02536Y03399*
X02544*
X02551Y03401*
X02558Y03405*
X02563Y0341*
X02567Y03417*
X02569Y03424*
Y03432*
X02567Y03439*
X02563Y03446*
X02558Y03451*
X02551Y03455*
X02544Y03457*
G37*
G36*
X02714Y03418D02*
X02705D01*
X02696Y03415*
X02689Y03408*
X02686Y03399*
Y0339*
X02689Y03381*
X02696Y03374*
X02705Y03371*
X02714*
X02723Y03374*
X02729Y0338*
X02739Y03381*
X0274*
X02746Y03374*
X02755Y03371*
X02764*
X02773Y03374*
X0278Y03381*
X02783Y0339*
Y03399*
X0278Y03408*
X02773Y03414*
X02764Y03418*
X02755*
X02746Y03414*
X0274Y03408*
X0273Y03408*
X0273*
X02723Y03415*
X02714Y03418*
G37*
G36*
X02614Y03398D02*
X02605D01*
X02596Y03395*
X02589Y03388*
X02586Y03379*
Y0337*
X02589Y03361*
X02596Y03354*
X02605Y03351*
X02614*
X02623Y03354*
X0263Y03361*
X02633Y0337*
Y03379*
X0263Y03388*
X02623Y03395*
X02614Y03398*
G37*
G36*
X03018Y03447D02*
X0301D01*
X03003Y03445*
X02996Y03441*
X02991Y03435*
X02987Y03429*
X02985Y03422*
Y03414*
X02987Y03407*
X02991Y034*
X02993Y03398*
X0299Y03387*
X02988Y03386*
X02982Y03383*
X02976Y03377*
X02973Y03371*
X02971Y03363*
Y03356*
X02973Y03348*
X02976Y03342*
X02982Y03336*
X02988Y03333*
X02996Y03331*
X03003*
X03011Y03333*
X03017Y03336*
X03023Y03342*
X03026Y03348*
X03028Y03356*
Y03363*
X03026Y03371*
X03023Y03377*
X03021Y03379*
X03023Y0339*
X03025Y03391*
X03032Y03395*
X03037Y034*
X03041Y03407*
X03043Y03414*
Y03422*
X03041Y03429*
X03037Y03435*
X03032Y03441*
X03025Y03445*
X03018Y03447*
G37*
G36*
X02353Y03253D02*
X02346D01*
X02338Y03251*
X02332Y03248*
X02326Y03242*
X02323Y03236*
X02321Y03228*
Y03221*
X02323Y03213*
X02326Y03207*
X02332Y03201*
X02338Y03198*
X02346Y03196*
X02353*
X02357Y03197*
X02364Y03191*
X02366Y03189*
X02366Y03188*
Y03181*
X02368Y03173*
X02371Y03167*
X02377Y03161*
X02383Y03158*
X02391Y03156*
X02398*
X02406Y03158*
X02412Y03161*
X02418Y03167*
X02421Y03173*
X02423Y03181*
Y03188*
X02421Y03196*
X02418Y03202*
X02412Y03208*
X02406Y03211*
X02398Y03213*
X02391*
X02387Y03212*
X0238Y03218*
X02378Y0322*
X02378Y03221*
Y03228*
X02376Y03236*
X02373Y03242*
X02367Y03248*
X02361Y03251*
X02353Y03253*
G37*
G36*
X02933Y03148D02*
X02926D01*
X02918Y03146*
X02912Y03142*
X02906Y03137*
X02903Y0313*
X02901Y03123*
Y03115*
X02903Y03108*
X02906Y03101*
X02912Y03096*
X02918Y03092*
X02926Y0309*
X02933*
X02941Y03092*
X02947Y03096*
X02953Y03101*
X02956Y03108*
X02958Y03115*
Y03123*
X02956Y0313*
X02953Y03137*
X02947Y03142*
X02941Y03146*
X02933Y03148*
G37*
G36*
X03461Y03085D02*
X03454D01*
X03446Y03083*
X0344Y0308*
X03434Y03074*
X03431Y03068*
X03429Y0306*
Y03053*
X03431Y03045*
X03434Y03039*
X0344Y03033*
X03446Y0303*
X03454Y03028*
X03461*
X03469Y0303*
X03475Y03033*
X03481Y03039*
X03484Y03045*
X03486Y03053*
Y0306*
X03484Y03068*
X03481Y03074*
X03475Y0308*
X03469Y03083*
X03461Y03085*
G37*
G36*
X02783Y03038D02*
X02776D01*
X02768Y03036*
X02762Y03033*
X02756Y03027*
X02753Y03021*
X02751Y03013*
Y03006*
X02753Y02998*
X02756Y02992*
X02762Y02986*
X02768Y02983*
X02776Y02981*
X02783*
X02791Y02983*
X02797Y02986*
X02803Y02992*
X02806Y02998*
X02808Y03006*
Y03013*
X02806Y03021*
X02803Y03027*
X02797Y03033*
X02791Y03036*
X02783Y03038*
G37*
G36*
X03253Y03028D02*
X03246D01*
X03238Y03026*
X03232Y03023*
X03226Y03017*
X03223Y03011*
X03221Y03003*
Y02996*
X03223Y02988*
X03226Y02982*
X03232Y02976*
X03238Y02973*
X03246Y02971*
X03253*
X03261Y02973*
X03267Y02976*
X03273Y02982*
X03276Y02988*
X03278Y02996*
Y03003*
X03276Y03011*
X03273Y03017*
X03267Y03023*
X03261Y03026*
X03253Y03028*
G37*
G36*
X02358Y03078D02*
X02351D01*
X02343Y03076*
X02337Y03073*
X02331Y03067*
X02328Y03061*
X02326Y03053*
Y03046*
X02328Y03038*
X02331Y03032*
X02337Y03026*
X02343Y03023*
X02351Y03021*
X02358*
X02366Y03023*
X0237Y03025*
X02376Y03017*
X02373Y03011*
X02371Y03003*
Y02996*
X02373Y02988*
X02376Y02982*
X02382Y02976*
X02388Y02973*
X02396Y02971*
X02403*
X02411Y02973*
X02417Y02976*
X02423Y02982*
X02426Y02988*
X02428Y02996*
Y03003*
X02426Y03011*
X02423Y03017*
X02417Y03023*
X02411Y03026*
X02403Y03028*
X02396*
X02388Y03026*
X02384Y03024*
X02378Y03032*
X02381Y03038*
X02383Y03046*
Y03053*
X02381Y03061*
X02378Y03067*
X02372Y03073*
X02366Y03076*
X02358Y03078*
G37*
G36*
X03813Y03018D02*
X03806D01*
X03798Y03016*
X03792Y03013*
X03786Y03007*
X03783Y03001*
X03781Y02993*
Y02986*
X03783Y02978*
X03786Y02972*
X03792Y02966*
X03798Y02963*
X03806Y02961*
X03813*
X03821Y02963*
X03827Y02966*
X03833Y02972*
X03836Y02978*
X03838Y02986*
Y02993*
X03836Y03001*
X03833Y03007*
X03827Y03013*
X03821Y03016*
X03813Y03018*
G37*
G36*
X03713D02*
X03706D01*
X03698Y03016*
X03692Y03013*
X03686Y03007*
X03683Y03001*
X03681Y02993*
Y02986*
X03683Y02978*
X03686Y02972*
X03692Y02966*
X03698Y02963*
X03706Y02961*
X03713*
X03721Y02963*
X03727Y02966*
X03733Y02972*
X03736Y02978*
X03738Y02986*
Y02993*
X03736Y03001*
X03733Y03007*
X03727Y03013*
X03721Y03016*
X03713Y03018*
G37*
G36*
X02788Y02958D02*
X02781D01*
X02773Y02956*
X02767Y02953*
X02761Y02947*
X02758Y02941*
X02756Y02933*
Y02926*
X02758Y02918*
X02761Y02912*
X02767Y02906*
X02773Y02903*
X02781Y02901*
X02788*
X02796Y02903*
X02802Y02906*
X02808Y02912*
X02811Y02918*
X02813Y02926*
Y02933*
X02811Y02941*
X02808Y02947*
X02802Y02953*
X02796Y02956*
X02788Y02958*
G37*
G36*
X02902Y02939D02*
X02895D01*
X02887Y02937*
X02881Y02934*
X02875Y02928*
X02872Y02922*
X0287Y02914*
Y02907*
X02872Y02899*
X02875Y02893*
X02881Y02887*
X02887Y02884*
X02895Y02882*
X02902*
X0291Y02884*
X02916Y02887*
X02922Y02893*
X02925Y02899*
X02927Y02907*
Y02914*
X02925Y02922*
X02922Y02928*
X02916Y02934*
X0291Y02937*
X02902Y02939*
G37*
G36*
X03813Y02918D02*
X03806D01*
X03798Y02916*
X03792Y02913*
X03786Y02907*
X03783Y02901*
X03781Y02893*
Y02886*
X03783Y02878*
X03786Y02872*
X03792Y02866*
X03798Y02863*
X03806Y02861*
X03813*
X03821Y02863*
X03827Y02866*
X03833Y02872*
X03836Y02878*
X03838Y02886*
Y02893*
X03836Y02901*
X03833Y02907*
X03827Y02913*
X03821Y02916*
X03813Y02918*
G37*
G36*
X03713D02*
X03706D01*
X03698Y02916*
X03692Y02913*
X03686Y02907*
X03683Y02901*
X03681Y02893*
Y02886*
X03683Y02878*
X03686Y02872*
X03692Y02866*
X03698Y02863*
X03706Y02861*
X03713*
X03721Y02863*
X03727Y02866*
X03733Y02872*
X03736Y02878*
X03738Y02886*
Y02893*
X03736Y02901*
X03733Y02907*
X03727Y02913*
X03721Y02916*
X03713Y02918*
G37*
G36*
X02973Y02864D02*
X02966D01*
X02958Y02862*
X02952Y02859*
X02946Y02853*
X02943Y02847*
X02941Y02839*
Y02832*
X02943Y02824*
X02946Y02818*
X02952Y02812*
X02958Y02809*
X02966Y02807*
X02973*
X02981Y02809*
X02987Y02812*
X02993Y02818*
X02996Y02824*
X02998Y02832*
Y02839*
X02996Y02847*
X02993Y02853*
X02987Y02859*
X02981Y02862*
X02973Y02864*
G37*
G36*
X03813Y02818D02*
X03806D01*
X03798Y02816*
X03792Y02813*
X03786Y02807*
X03783Y02801*
X03781Y02793*
Y02786*
X03783Y02778*
X03786Y02772*
X03792Y02766*
X03798Y02763*
X03806Y02761*
X03813*
X03821Y02763*
X03827Y02766*
X03833Y02772*
X03836Y02778*
X03838Y02786*
Y02793*
X03836Y02801*
X03833Y02807*
X03827Y02813*
X03821Y02816*
X03813Y02818*
G37*
G36*
X03713D02*
X03706D01*
X03698Y02816*
X03692Y02813*
X03686Y02807*
X03683Y02801*
X03681Y02793*
Y02786*
X03683Y02778*
X03686Y02772*
X03692Y02766*
X03698Y02763*
X03706Y02761*
X03713*
X03721Y02763*
X03727Y02766*
X03733Y02772*
X03736Y02778*
X03738Y02786*
Y02793*
X03736Y02801*
X03733Y02807*
X03727Y02813*
X03721Y02816*
X03713Y02818*
G37*
G36*
X02737Y02837D02*
X02729D01*
X02722Y02835*
X02715Y02831*
X0271Y02826*
X02706Y02819*
X02704Y02812*
Y02804*
X02706Y02797*
X0271Y0279*
X02715Y02785*
X02717Y02784*
X02717Y02783*
X02716Y02772*
X02713Y02771*
X02708Y02766*
X02704Y02759*
X02702Y02752*
Y02744*
X02704Y02737*
X02708Y0273*
X02713Y02725*
X0272Y02721*
X02727Y02719*
X02735*
X02742Y02721*
X02749Y02725*
X02754Y0273*
X02758Y02737*
X0276Y02744*
Y02752*
X02758Y02759*
X02754Y02766*
X02749Y02771*
X02747Y02772*
X02747Y02772*
X02748Y02783*
X02751Y02785*
X02756Y0279*
X0276Y02797*
X02762Y02804*
Y02812*
X0276Y02819*
X02756Y02826*
X02751Y02831*
X02744Y02835*
X02737Y02837*
G37*
G36*
X03539Y0271D02*
X03532D01*
X03524Y02708*
X03518Y02705*
X03512Y02699*
X03509Y02693*
X03507Y02685*
Y02678*
X03509Y0267*
X03512Y02664*
X03518Y02658*
X03524Y02655*
X03532Y02653*
X03539*
X03547Y02655*
X03553Y02658*
X03559Y02664*
X03562Y0267*
X03564Y02678*
Y02685*
X03562Y02693*
X03559Y02699*
X03553Y02705*
X03547Y02708*
X03539Y0271*
G37*
G36*
X03018Y02808D02*
X03011D01*
X03003Y02806*
X02997Y02803*
X02991Y02797*
X02988Y02791*
X02986Y02783*
Y02776*
X02988Y02768*
X02991Y02762*
X02997Y02756*
X03003Y02753*
X03005Y02752*
Y02742*
X03003Y02741*
X02997Y02738*
X02991Y02732*
X02988Y02726*
X02986Y02718*
Y02711*
X02988Y02703*
X02991Y02697*
X02997Y02691*
X03003Y02688*
X03005Y02687*
Y02677*
X03003Y02676*
X02997Y02673*
X02991Y02667*
X02988Y02661*
X02986Y02653*
Y02646*
X02988Y02638*
X02991Y02632*
X02997Y02626*
X03003Y02623*
X03011Y02621*
X03018*
X03026Y02623*
X03032Y02626*
X03038Y02632*
X03041Y02638*
X03043Y02646*
Y02653*
X03041Y02661*
X03038Y02667*
X03032Y02673*
X03026Y02676*
X03024Y02677*
Y02687*
X03026Y02688*
X03032Y02691*
X03038Y02697*
X03041Y02703*
X03043Y02711*
Y02718*
X03041Y02726*
X03038Y02732*
X03032Y02738*
X03026Y02741*
X03024Y02742*
Y02752*
X03026Y02753*
X03032Y02756*
X03038Y02762*
X03041Y02768*
X03043Y02776*
Y02783*
X03041Y02791*
X03038Y02797*
X03032Y02803*
X03026Y02806*
X03018Y02808*
G37*
G36*
X03157Y02597D02*
X0315D01*
X03142Y02595*
X03136Y02592*
X0313Y02586*
X03127Y0258*
X03125Y02572*
Y02565*
X03127Y02557*
X0313Y02551*
X03136Y02545*
X03142Y02542*
X0315Y0254*
X03157*
X03165Y02542*
X03171Y02545*
X03177Y02551*
X0318Y02557*
X03182Y02565*
Y02572*
X0318Y0258*
X03177Y02586*
X03171Y02592*
X03165Y02595*
X03157Y02597*
G37*
G36*
X03359Y02551D02*
X03352D01*
X03344Y02549*
X03338Y02546*
X03332Y0254*
X03329Y02534*
X03327Y02526*
Y02519*
X03329Y02511*
X03332Y02505*
X03338Y02499*
X03344Y02496*
X03352Y02494*
X03359*
X03367Y02496*
X03373Y02499*
X03379Y02505*
X03382Y02511*
X03384Y02519*
Y02526*
X03382Y02534*
X03379Y0254*
X03373Y02546*
X03367Y02549*
X03359Y02551*
G37*
G36*
X03803Y02428D02*
X03796D01*
X03788Y02426*
X03782Y02423*
X03776Y02417*
X03773Y02411*
X03771Y02403*
Y02396*
X03773Y02388*
X03776Y02382*
X03782Y02376*
X03788Y02373*
X03796Y02371*
X03803*
X03811Y02373*
X03817Y02376*
X03823Y02382*
X03826Y02388*
X03828Y02396*
Y02403*
X03826Y02411*
X03823Y02417*
X03817Y02423*
X03811Y02426*
X03803Y02428*
G37*
G36*
X03703D02*
X03696D01*
X03688Y02426*
X03682Y02423*
X03676Y02417*
X03673Y02411*
X03671Y02403*
Y02396*
X03673Y02388*
X03676Y02382*
X03682Y02376*
X03688Y02373*
X03696Y02371*
X03703*
X03711Y02373*
X03717Y02376*
X03723Y02382*
X03726Y02388*
X03728Y02396*
Y02403*
X03726Y02411*
X03723Y02417*
X03717Y02423*
X03711Y02426*
X03703Y02428*
G37*
G36*
X02103D02*
X02096D01*
X02088Y02426*
X02082Y02423*
X02076Y02417*
X02073Y02411*
X02071Y02403*
Y02396*
X02073Y02388*
X02076Y02382*
X02082Y02376*
X02088Y02373*
X02096Y02371*
X02103*
X02111Y02373*
X02117Y02376*
X02123Y02382*
X02126Y02388*
X02128Y02396*
Y02403*
X02126Y02411*
X02123Y02417*
X02117Y02423*
X02111Y02426*
X02103Y02428*
G37*
G36*
X03139Y02333D02*
X03132D01*
X03124Y02331*
X03118Y02328*
X03112Y02322*
X03109Y02316*
X03107Y02308*
Y02301*
X03109Y02293*
X03112Y02287*
X03118Y02281*
X03124Y02278*
X03132Y02276*
X03139*
X03147Y02278*
X03153Y02281*
X03159Y02287*
X03162Y02293*
X03164Y02301*
Y02308*
X03162Y02316*
X03159Y02322*
X03153Y02328*
X03147Y02331*
X03139Y02333*
G37*
G36*
X03212Y02332D02*
X03205D01*
X03197Y0233*
X03191Y02327*
X03185Y02321*
X03182Y02315*
X0318Y02307*
Y023*
X03182Y02292*
X03185Y02286*
X03191Y0228*
X03197Y02277*
X03205Y02275*
X03212*
X0322Y02277*
X03226Y0228*
X03232Y02286*
X03235Y02292*
X03237Y023*
Y02307*
X03235Y02315*
X03232Y02321*
X03226Y02327*
X0322Y0233*
X03212Y02332*
G37*
G36*
X03803Y02328D02*
X03796D01*
X03788Y02326*
X03782Y02323*
X03776Y02317*
X03773Y02311*
X03771Y02303*
Y02296*
X03773Y02288*
X03776Y02282*
X03782Y02276*
X03788Y02273*
X03796Y02271*
X03803*
X03811Y02273*
X03817Y02276*
X03823Y02282*
X03826Y02288*
X03828Y02296*
Y02303*
X03826Y02311*
X03823Y02317*
X03817Y02323*
X03811Y02326*
X03803Y02328*
G37*
G36*
X03703D02*
X03696D01*
X03688Y02326*
X03682Y02323*
X03676Y02317*
X03673Y02311*
X03671Y02303*
Y02296*
X03673Y02288*
X03676Y02282*
X03682Y02276*
X03688Y02273*
X03696Y02271*
X03703*
X03711Y02273*
X03717Y02276*
X03723Y02282*
X03726Y02288*
X03728Y02296*
Y02303*
X03726Y02311*
X03723Y02317*
X03717Y02323*
X03711Y02326*
X03703Y02328*
G37*
G36*
X02203D02*
X02196D01*
X02188Y02326*
X02182Y02323*
X02176Y02317*
X02173Y02311*
X02171Y02303*
Y02296*
X02173Y02288*
X02176Y02282*
X02182Y02276*
X02188Y02273*
X02196Y02271*
X02203*
X02211Y02273*
X02217Y02276*
X02223Y02282*
X02226Y02288*
X02228Y02296*
Y02303*
X02226Y02311*
X02223Y02317*
X02217Y02323*
X02211Y02326*
X02203Y02328*
G37*
G36*
X02103D02*
X02096D01*
X02088Y02326*
X02082Y02323*
X02076Y02317*
X02073Y02311*
X02071Y02303*
Y02296*
X02073Y02288*
X02076Y02282*
X02082Y02276*
X02088Y02273*
X02096Y02271*
X02103*
X02111Y02273*
X02117Y02276*
X02123Y02282*
X02126Y02288*
X02128Y02296*
Y02303*
X02126Y02311*
X02123Y02317*
X02117Y02323*
X02111Y02326*
X02103Y02328*
G37*
G36*
X03803Y02228D02*
X03796D01*
X03788Y02226*
X03782Y02223*
X03776Y02217*
X03773Y02211*
X03771Y02203*
Y02196*
X03773Y02188*
X03776Y02182*
X03782Y02176*
X03788Y02173*
X03796Y02171*
X03803*
X03811Y02173*
X03817Y02176*
X03823Y02182*
X03826Y02188*
X03828Y02196*
Y02203*
X03826Y02211*
X03823Y02217*
X03817Y02223*
X03811Y02226*
X03803Y02228*
G37*
G36*
X03703D02*
X03696D01*
X03688Y02226*
X03682Y02223*
X03676Y02217*
X03673Y02211*
X03671Y02203*
Y02196*
X03673Y02188*
X03676Y02182*
X03682Y02176*
X03688Y02173*
X03696Y02171*
X03703*
X03711Y02173*
X03717Y02176*
X03723Y02182*
X03726Y02188*
X03728Y02196*
Y02203*
X03726Y02211*
X03723Y02217*
X03717Y02223*
X03711Y02226*
X03703Y02228*
G37*
G36*
X02203D02*
X02196D01*
X02188Y02226*
X02182Y02223*
X02176Y02217*
X02173Y02211*
X02171Y02203*
Y02196*
X02173Y02188*
X02176Y02182*
X02182Y02176*
X02188Y02173*
X02196Y02171*
X02203*
X02211Y02173*
X02217Y02176*
X02223Y02182*
X02226Y02188*
X02228Y02196*
Y02203*
X02226Y02211*
X02223Y02217*
X02217Y02223*
X02211Y02226*
X02203Y02228*
G37*
G36*
X02103D02*
X02096D01*
X02088Y02226*
X02082Y02223*
X02076Y02217*
X02073Y02211*
X02071Y02203*
Y02196*
X02073Y02188*
X02076Y02182*
X02082Y02176*
X02088Y02173*
X02096Y02171*
X02103*
X02111Y02173*
X02117Y02176*
X02123Y02182*
X02126Y02188*
X02128Y02196*
Y02203*
X02126Y02211*
X02123Y02217*
X02117Y02223*
X02111Y02226*
X02103Y02228*
G37*
G36*
X02303Y02128D02*
X02296D01*
X02288Y02126*
X02282Y02123*
X02276Y02117*
X02273Y02111*
X02271Y02103*
Y02096*
X02273Y02088*
X02276Y02082*
X02282Y02076*
X02288Y02073*
X02296Y02071*
X02303*
X02311Y02073*
X02317Y02076*
X02323Y02082*
X02326Y02088*
X02328Y02096*
Y02103*
X02326Y02111*
X02323Y02117*
X02317Y02123*
X02311Y02126*
X02303Y02128*
G37*
G36*
X02203D02*
X02196D01*
X02188Y02126*
X02182Y02123*
X02176Y02117*
X02173Y02111*
X02171Y02103*
Y02096*
X02173Y02088*
X02176Y02082*
X02182Y02076*
X02188Y02073*
X02196Y02071*
X02203*
X02211Y02073*
X02217Y02076*
X02223Y02082*
X02226Y02088*
X02228Y02096*
Y02103*
X02226Y02111*
X02223Y02117*
X02217Y02123*
X02211Y02126*
X02203Y02128*
G37*
G36*
X02103D02*
X02096D01*
X02088Y02126*
X02082Y02123*
X02076Y02117*
X02073Y02111*
X02071Y02103*
Y02096*
X02073Y02088*
X02076Y02082*
X02082Y02076*
X02088Y02073*
X02096Y02071*
X02103*
X02111Y02073*
X02117Y02076*
X02123Y02082*
X02126Y02088*
X02128Y02096*
Y02103*
X02126Y02111*
X02123Y02117*
X02117Y02123*
X02111Y02126*
X02103Y02128*
G37*
G36*
X02645Y02036D02*
X02637D01*
X0263Y02034*
X02623Y02031*
X02618Y02025*
X02614Y02019*
X02612Y02011*
Y02004*
X02614Y01996*
X02618Y0199*
X02623Y01984*
X0263Y0198*
X02637Y01978*
X02645*
X02652Y0198*
X02659Y01984*
X02664Y0199*
X02668Y01996*
X0267Y02004*
Y02011*
X02668Y02019*
X02664Y02025*
X02659Y02031*
X02652Y02034*
X02645Y02036*
G37*
G36*
X03348Y02021D02*
X03341D01*
X03333Y02019*
X03327Y02015*
X03321Y0201*
X03317Y02003*
X03315Y01996*
Y01988*
X03317Y01981*
X03321Y01975*
X03327Y01969*
X03333Y01965*
X03341Y01963*
X03348*
X03356Y01965*
X03362Y01969*
X03368Y01975*
X03371Y01981*
X03373Y01988*
Y01996*
X03371Y02003*
X03368Y0201*
X03362Y02015*
X03356Y02019*
X03348Y02021*
G37*
G36*
X03549Y02016D02*
X03542D01*
X03534Y02014*
X03528Y02011*
X03522Y02005*
X03519Y01999*
X03517Y01991*
Y01984*
X03519Y01976*
X03522Y0197*
X03528Y01964*
X03534Y01961*
X03542Y01959*
X03549*
X03557Y01961*
X03563Y01964*
X03569Y0197*
X03572Y01976*
X03574Y01984*
Y01991*
X03572Y01999*
X03569Y02005*
X03563Y02011*
X03557Y02014*
X03549Y02016*
G37*
G36*
X03803Y01828D02*
X03796D01*
X03788Y01826*
X03782Y01823*
X03776Y01817*
X03773Y01811*
X03771Y01803*
Y01796*
X03773Y01788*
X03776Y01782*
X03782Y01776*
X03788Y01773*
X03796Y01771*
X03803*
X03811Y01773*
X03817Y01776*
X03823Y01782*
X03826Y01788*
X03828Y01796*
Y01803*
X03826Y01811*
X03823Y01817*
X03817Y01823*
X03811Y01826*
X03803Y01828*
G37*
G36*
X03703D02*
X03696D01*
X03688Y01826*
X03682Y01823*
X03676Y01817*
X03673Y01811*
X03671Y01803*
Y01796*
X03673Y01788*
X03676Y01782*
X03682Y01776*
X03688Y01773*
X03696Y01771*
X03703*
X03711Y01773*
X03717Y01776*
X03723Y01782*
X03726Y01788*
X03728Y01796*
Y01803*
X03726Y01811*
X03723Y01817*
X03717Y01823*
X03711Y01826*
X03703Y01828*
G37*
G36*
X03803Y01728D02*
X03796D01*
X03788Y01726*
X03782Y01723*
X03776Y01717*
X03773Y01711*
X03771Y01703*
Y01696*
X03773Y01688*
X03776Y01682*
X03782Y01676*
X03788Y01673*
X03796Y01671*
X03803*
X03811Y01673*
X03817Y01676*
X03823Y01682*
X03826Y01688*
X03828Y01696*
Y01703*
X03826Y01711*
X03823Y01717*
X03817Y01723*
X03811Y01726*
X03803Y01728*
G37*
G36*
X03703D02*
X03696D01*
X03688Y01726*
X03682Y01723*
X03676Y01717*
X03673Y01711*
X03671Y01703*
Y01696*
X03673Y01688*
X03676Y01682*
X03682Y01676*
X03688Y01673*
X03696Y01671*
X03703*
X03711Y01673*
X03717Y01676*
X03723Y01682*
X03726Y01688*
X03728Y01696*
Y01703*
X03726Y01711*
X03723Y01717*
X03717Y01723*
X03711Y01726*
X03703Y01728*
G37*
G36*
X03803Y01628D02*
X03796D01*
X03788Y01626*
X03782Y01623*
X03776Y01617*
X03773Y01611*
X03771Y01603*
Y01596*
X03773Y01588*
X03776Y01582*
X03782Y01576*
X03788Y01573*
X03796Y01571*
X03803*
X03811Y01573*
X03817Y01576*
X03823Y01582*
X03826Y01588*
X03828Y01596*
Y01603*
X03826Y01611*
X03823Y01617*
X03817Y01623*
X03811Y01626*
X03803Y01628*
G37*
G36*
X03703D02*
X03696D01*
X03688Y01626*
X03682Y01623*
X03676Y01617*
X03673Y01611*
X03671Y01603*
Y01596*
X03673Y01588*
X03676Y01582*
X03682Y01576*
X03688Y01573*
X03696Y01571*
X03703*
X03711Y01573*
X03717Y01576*
X03723Y01582*
X03726Y01588*
X03728Y01596*
Y01603*
X03726Y01611*
X03723Y01617*
X03717Y01623*
X03711Y01626*
X03703Y01628*
G37*
G36*
X03822Y01485D02*
X03815D01*
X03807Y01483*
X03801Y01479*
X03795Y01474*
X03791Y01467*
X03789Y0146*
Y01452*
X03791Y01445*
X03795Y01438*
X03801Y01433*
X03807Y01429*
X03815Y01427*
X03822*
X0383Y01429*
X03836Y01433*
X03842Y01438*
X03845Y01445*
X03847Y01452*
Y0146*
X03845Y01467*
X03842Y01474*
X03836Y01479*
X0383Y01483*
X03822Y01485*
G37*
G36*
X03704D02*
X03696D01*
X03689Y01483*
X03683Y01479*
X03677Y01474*
X03673Y01467*
X03671Y0146*
Y01452*
X03673Y01445*
X03677Y01438*
X03683Y01433*
X03689Y01429*
X03696Y01427*
X03704*
X03711Y01429*
X03718Y01433*
X03723Y01438*
X03727Y01445*
X03729Y01452*
Y0146*
X03727Y01467*
X03723Y01474*
X03718Y01479*
X03711Y01483*
X03704Y01485*
G37*
G36*
X03586D02*
X03578D01*
X03571Y01483*
X03564Y01479*
X03559Y01474*
X03555Y01467*
X03553Y0146*
Y01452*
X03555Y01445*
X03559Y01438*
X03564Y01433*
X03571Y01429*
X03578Y01427*
X03586*
X03593Y01429*
X036Y01433*
X03605Y01438*
X03609Y01445*
X03611Y01452*
Y0146*
X03609Y01467*
X03605Y01474*
X036Y01479*
X03593Y01483*
X03586Y01485*
G37*
G36*
X03822Y01367D02*
X03815D01*
X03807Y01365*
X03801Y01361*
X03795Y01356*
X03791Y01349*
X03789Y01342*
Y01334*
X03791Y01327*
X03795Y0132*
X03801Y01315*
X03807Y01311*
X03815Y01309*
X03822*
X0383Y01311*
X03836Y01315*
X03842Y0132*
X03845Y01327*
X03847Y01334*
Y01342*
X03845Y01349*
X03842Y01356*
X03836Y01361*
X0383Y01365*
X03822Y01367*
G37*
G36*
X03704D02*
X03696D01*
X03689Y01365*
X03683Y01361*
X03677Y01356*
X03673Y01349*
X03671Y01342*
Y01334*
X03673Y01327*
X03677Y0132*
X03683Y01315*
X03689Y01311*
X03696Y01309*
X03704*
X03711Y01311*
X03718Y01315*
X03723Y0132*
X03727Y01327*
X03729Y01334*
Y01342*
X03727Y01349*
X03723Y01356*
X03718Y01361*
X03711Y01365*
X03704Y01367*
G37*
G36*
X03586D02*
X03578D01*
X03571Y01365*
X03564Y01361*
X03559Y01356*
X03555Y01349*
X03553Y01342*
Y01334*
X03555Y01327*
X03559Y0132*
X03564Y01315*
X03571Y01311*
X03578Y01309*
X03586*
X03593Y01311*
X036Y01315*
X03605Y0132*
X03609Y01327*
X03611Y01334*
Y01342*
X03609Y01349*
X03605Y01356*
X036Y01361*
X03593Y01365*
X03586Y01367*
G37*
%LNpcbfoc-3*%
%LPD*%
G54D48*
X0337Y0285D03*
Y0293D03*
X03458Y03057D03*
X03356Y02523D03*
X03546Y01988D03*
X02154Y03261D03*
X03582Y01456D03*
Y01338D03*
X03818D03*
X037D03*
X03818Y01456D03*
X037D03*
X02086Y01574D03*
X02204D03*
X02322D03*
X02559D03*
X0244D03*
Y01692D03*
X02322D03*
X02204D03*
X02086D03*
X02322Y01811D03*
X02204D03*
X02086D03*
X02322Y01929D03*
X02204D03*
X02086D03*
X0254Y03428D03*
X01968Y01279D03*
D03*
D03*
D03*
X03363Y02298D03*
X0381Y0299D03*
Y0289D03*
Y0279D03*
X038Y023D03*
Y024D03*
X0371Y0289D03*
Y0279D03*
Y0299D03*
X037Y023D03*
Y024D03*
X038Y018D03*
Y016D03*
Y017D03*
Y022D03*
X037Y018D03*
Y022D03*
Y016D03*
Y017D03*
X02731Y02875D03*
X03075Y03215D03*
X0315Y0263D03*
X02885Y03075D03*
X02731Y02685D03*
X02477Y02648D03*
X03216Y03321D03*
X03234Y0308D03*
X03363Y02358D03*
X03281Y02212D03*
X03299Y02031D03*
X03443Y01629D03*
X03513D03*
X03342Y01747D03*
X03387Y01555D03*
X02589Y0355D03*
X02429Y0347D03*
X02719Y01975D03*
X03136Y02305D03*
X0285Y0368D03*
X02641Y02007D03*
X0235Y03225D03*
X02731Y02748D03*
X02355Y0305D03*
X02785Y0293D03*
X0285Y03545D03*
X02899Y02911D03*
X0285Y03615D03*
X03015Y0278D03*
X03Y0336D03*
X0278Y0301D03*
X02395Y03185D03*
X02733Y02808D03*
X03014Y03418D03*
X03015Y02715D03*
X02965Y0349D03*
X03015Y0265D03*
X0293Y03119D03*
X03253Y03495D03*
X0325Y03D03*
X0297Y02836D03*
X02649Y03549D03*
X02435Y037D03*
X023Y021D03*
X022Y023D03*
X021Y022D03*
Y024D03*
Y023D03*
X022Y021D03*
Y022D03*
X021Y021D03*
X024Y03D03*
X03154Y02569D03*
X03209Y02304D03*
X03536Y02682D03*
X03344Y01992D03*
G54D49*
X0261Y03375D03*
X02923Y02688D03*
X0266Y03395D03*
X02774Y02117D03*
Y02182D03*
Y0205D03*
X027Y03729D03*
X0276Y03394D03*
X027Y0368D03*
X0271Y03395D03*
X027Y0363D03*
G54D50*
X01968Y01279D03*
X04035Y03838D03*
Y01279D03*
X01968Y03838D03*
G54D51*
X02919Y02537D03*
X0287D03*
X02961Y02495D03*
X02919Y02445D03*
X02961D03*
X02919Y02396D03*
Y02495D03*
X0287D03*
Y02396D03*
Y02445D03*
X02961Y02396D03*
X0287Y02354D03*
X02919D03*
X0282Y02495D03*
Y02537D03*
X02778Y02495D03*
Y02445D03*
X0282D03*
Y02396D03*
X02778D03*
X0282Y02354D03*
M02*