%FSTAX23Y23*%
%MOIN*%
%SFA1B1*%

%IPPOS*%
%AMD18*
4,1,8,0.008300,-0.030200,0.030200,-0.008300,0.030200,-0.000900,-0.000900,0.030200,-0.008300,0.030200,-0.030200,0.008300,-0.030200,0.000900,0.000900,-0.030200,0.008300,-0.030200,0.0*
1,1,0.010340,0.004600,-0.026500*
1,1,0.010340,0.026500,-0.004600*
1,1,0.010340,-0.004600,0.026500*
1,1,0.010340,-0.026500,0.004600*
%
%AMD20*
4,1,8,-0.011800,0.002700,-0.011800,-0.002700,-0.009800,-0.004700,0.009800,-0.004700,0.011800,-0.002700,0.011800,0.002700,0.009800,0.004700,-0.009800,0.004700,-0.011800,0.002700,0.0*
1,1,0.003960,-0.009800,0.002700*
1,1,0.003960,-0.009800,-0.002700*
1,1,0.003960,0.009800,-0.002700*
1,1,0.003960,0.009800,0.002700*
%
%AMD21*
4,1,8,-0.004700,0.009800,-0.004700,-0.009800,-0.002700,-0.011800,0.002700,-0.011800,0.004700,-0.009800,0.004700,0.009800,0.002700,0.011800,-0.002700,0.011800,-0.004700,0.009800,0.0*
1,1,0.003960,-0.002700,0.009800*
1,1,0.003960,-0.002700,-0.009800*
1,1,0.003960,0.002700,-0.009800*
1,1,0.003960,0.002700,0.009800*
%
%AMD28*
4,1,8,0.000000,-0.032600,0.000000,-0.032600,0.010300,-0.022200,0.010300,0.022200,0.000000,0.032600,0.000000,0.032600,-0.010300,0.022200,-0.010300,-0.022200,0.000000,-0.032600,0.0*
1,1,0.020700,0.000000,-0.022200*
1,1,0.020700,0.000000,-0.022200*
1,1,0.020700,0.000000,0.022200*
1,1,0.020700,0.000000,0.022200*
%
%AMD30*
4,1,4,0.000600,0.013700,-0.013700,-0.000600,-0.000600,-0.013700,0.013700,0.000600,0.000600,0.013700,0.0*
%
%AMD38*
4,1,4,0.057100,-0.101500,0.101500,-0.057100,-0.057100,0.101500,-0.101500,0.057100,0.057100,-0.101500,0.0*
%
%AMD44*
4,1,8,-0.022200,-0.010300,0.022200,-0.010300,0.032600,0.000000,0.032600,0.000000,0.022200,0.010300,-0.022200,0.010300,-0.032600,0.000000,-0.032600,0.000000,-0.022200,-0.010300,0.0*
1,1,0.020700,-0.022200,0.000000*
1,1,0.020700,0.022200,0.000000*
1,1,0.020700,0.022200,0.000000*
1,1,0.020700,-0.022200,0.000000*
%
%AMD48*
4,1,8,-0.101400,0.099300,-0.101400,-0.099300,-0.099300,-0.101400,0.099300,-0.101400,0.101400,-0.099300,0.101400,0.099300,0.099300,0.101400,-0.099300,0.101400,-0.101400,0.099300,0.0*
1,1,0.004060,-0.099300,0.099300*
1,1,0.004060,-0.099300,-0.099300*
1,1,0.004060,0.099300,-0.099300*
1,1,0.004060,0.099300,0.099300*
%
%AMD49*
4,1,4,0.000000,0.043100,-0.043100,0.000000,0.000000,-0.043100,0.043100,0.000000,0.000000,0.043100,0.0*
%
%ADD14C,0.010000*%
%ADD15R,0.043310X0.086610*%
%ADD16R,0.267720X0.271650*%
%ADD17R,0.049210X0.033470*%
G04~CAMADD=18~8~0.0~0.0~413.4~543.3~51.7~0.0~15~0.0~0.0~0.0~0.0~0~0.0~0.0~0.0~0.0~0~0.0~0.0~0.0~225.0~634.0~633.0*
%ADD18D18*%
%ADD19R,0.271650X0.267720*%
G04~CAMADD=20~8~0.0~0.0~94.5~236.2~19.8~0.0~15~0.0~0.0~0.0~0.0~0~0.0~0.0~0.0~0.0~0~0.0~0.0~0.0~90.0~236.0~94.0*
%ADD20D20*%
G04~CAMADD=21~8~0.0~0.0~236.2~94.5~19.8~0.0~15~0.0~0.0~0.0~0.0~0~0.0~0.0~0.0~0.0~0~0.0~0.0~0.0~90.0~94.0~236.0*
%ADD21D21*%
%ADD22R,0.053150X0.106300*%
%ADD23R,0.066140X0.066930*%
%ADD24R,0.031970X0.025930*%
%ADD25R,0.015750X0.019680*%
%ADD26R,0.066930X0.023620*%
%ADD27R,0.020290X0.018600*%
G04~CAMADD=28~8~0.0~0.0~207.0~651.7~103.5~0.0~15~0.0~0.0~0.0~0.0~0~0.0~0.0~0.0~0.0~0~0.0~0.0~0.0~180.0~207.0~651.0*
%ADD28D28*%
%ADD29R,0.024730X0.023870*%
G04~CAMADD=30~9~0.0~0.0~202.9~186.0~0.0~0.0~0~0.0~0.0~0.0~0.0~0~0.0~0.0~0.0~0.0~0~0.0~0.0~0.0~45.0~274.0~273.0*
%ADD30D30*%
%ADD31R,0.133860X0.070870*%
%ADD32R,0.018600X0.020290*%
%ADD33R,0.028350X0.028350*%
%ADD34R,0.070870X0.047240*%
%ADD35R,0.057090X0.027560*%
%ADD36R,0.028350X0.028350*%
%ADD37R,0.106300X0.039370*%
G04~CAMADD=38~9~0.0~0.0~629.9~2244.1~0.0~0.0~0~0.0~0.0~0.0~0.0~0~0.0~0.0~0.0~0.0~0~0.0~0.0~0.0~225.0~2030.0~2029.0*
%ADD38D38*%
%ADD39R,0.033470X0.035430*%
%ADD40R,0.035680X0.033660*%
%ADD41R,0.033470X0.025590*%
%ADD42R,0.019680X0.017720*%
%ADD43R,0.025930X0.031970*%
G04~CAMADD=44~8~0.0~0.0~651.7~207.0~103.5~0.0~15~0.0~0.0~0.0~0.0~0~0.0~0.0~0.0~0.0~0~0.0~0.0~0.0~180.0~651.0~207.0*
%ADD44D44*%
%ADD45R,0.065170X0.020700*%
%ADD46R,0.074800X0.037400*%
%ADD47R,0.051180X0.027560*%
G04~CAMADD=48~8~0.0~0.0~2027.6~2027.6~20.3~0.0~15~0.0~0.0~0.0~0.0~0~0.0~0.0~0.0~0.0~0~0.0~0.0~0.0~90.0~2028.0~2028.0*
%ADD48D48*%
G04~CAMADD=49~10~0.0~610.2~0.0~0.0~0.0~0.0~0~0.0~0.0~0.0~0.0~0~0.0~0.0~0.0~0.0~0~0.0~0.0~0.0~405.0~610.2~0.0*
%ADD49D49*%
%ADD50C,0.061020*%
%ADD51C,0.050000*%
%ADD52C,0.039370*%
%ADD53C,0.019680*%
%ADD54C,0.118110*%
%LNpcbfoc-1*%
%LPD*%
G36*
X02975Y03126D02*
Y03079D01*
X02927*
X02871Y03134*
X02842*
Y03195*
X02906*
X02975Y03126*
G37*
G36*
X03667Y03122D02*
Y03069D01*
X03605*
X03524Y02988*
X03323*
X03322Y02989*
Y0307*
Y03106*
X03392Y03176*
X03613*
X03667Y03122*
G37*
G36*
X04334Y0296D02*
X03975D01*
X03975Y02969*
X03978Y0297*
X03981Y02972*
X03983Y02975*
X03984Y02979*
X03983Y02982*
X03981Y02985*
X03978Y02987*
X03975Y02988*
X0396*
X03937Y03011*
Y03052*
X03739*
Y03322*
X0374Y03323*
X04334*
Y0296*
G37*
G36*
X03618Y02777D02*
X03536D01*
Y02868*
X03618*
Y02777*
G37*
G36*
X03553Y02911D02*
X03458Y02816D01*
X03456Y02813*
X03455Y02809*
Y02777*
X03404Y02726*
X03237*
Y02975*
X03553*
Y02911*
G37*
G36*
X02945Y02567D02*
X02932D01*
Y02645*
X02902Y02676*
Y02737*
X02945*
Y02567*
G37*
G36*
X03666Y0253D02*
Y02486D01*
X03303*
Y0253*
X03396Y02623*
X03573*
X03666Y0253*
G37*
G36*
X0261Y025D02*
X0261Y02499D01*
X02689Y02421*
X02748*
Y02411*
X02681*
X02621Y02471*
X02548*
X02451Y02568*
Y02603*
X02507*
X0261Y025*
G37*
G36*
X02434Y02567D02*
X02542Y02459D01*
X02618*
X02676Y02401*
X02748*
Y02391*
X02444*
X02288Y02546*
X02345Y02603*
X02434*
Y02567*
G37*
G36*
X04351Y02728D02*
Y02366D01*
X03984*
Y02386*
X03983Y02389*
X03981Y02392*
X03978Y02394*
X03975Y02395*
X03971Y02394*
X03968Y02392*
X03966Y02389*
X03965Y02386*
Y02366*
X03936*
Y02458*
X03738*
Y02722*
X03745Y02729*
X04351Y02728*
G37*
G36*
X03626Y0222D02*
X03526D01*
Y02313*
X03626*
Y0222*
G37*
G36*
X03544Y02334D02*
X03481D01*
X03446Y02299*
Y02185*
X03233*
X03208Y02207*
Y02253*
Y02426*
X03222Y0244*
X03544*
Y02334*
G37*
G36*
X02766Y02242D02*
X02737Y02212D01*
Y02106*
X02742*
Y02074*
X02672*
X0266Y02065*
X02621*
Y021*
X0268*
X02703Y02124*
Y02202*
X02754Y02253*
Y02323*
X02766*
Y02242*
G37*
G36*
X02792Y02321D02*
Y02302D01*
X02792Y02302*
Y02297*
X02791Y02296*
Y02204*
X02792Y02201*
X02794Y02198*
X028Y02191*
Y02008*
X0278*
Y01977*
X0278Y01977*
Y01867*
X02743*
X02671Y0194*
Y01967*
Y02024*
X02707Y0206*
X02748*
Y02073*
X02748Y02074*
Y02106*
X02748Y02107*
Y02214*
X02771Y02237*
X02773Y02242*
Y02323*
X02774Y02326*
X02789*
X02792Y02321*
G37*
G36*
X03676Y01886D02*
X03559D01*
X03535Y01862*
X03425*
Y01964*
X03472*
X03528Y0202*
X03676*
Y01886*
G37*
G36*
X04353Y01769D02*
X03937D01*
Y01857*
X03933Y01861*
X03768*
X03764Y01871*
X03884Y0199*
X03886Y01993*
X03887Y01997*
X03886Y02*
X03884Y02003*
X03881Y02005*
X03877Y02006*
X03874Y02005*
X03871Y02003*
X03751Y01882*
X03741Y01885*
Y02132*
X04353*
Y01769*
G37*
G36*
X03584Y0177D02*
Y0151D01*
X03332*
X03169Y01673*
Y01809*
X03545*
X03584Y0177*
G37*
G36*
X02749Y02324D02*
X02748Y02323D01*
Y02261*
X02696Y02209*
Y02135*
X02674Y02113*
X02609*
Y01993*
X02666Y01935*
X02718Y01883*
X02741Y01861*
X02869*
X02955Y01947*
Y0209*
X02939Y02106*
X02881*
Y02196*
X02854Y02223*
Y02325*
X02867*
Y02252*
X03061Y02053*
Y0182*
X03062Y01816*
X03064Y01813*
X03067Y01811*
X0307Y0181*
X03074Y01811*
X03089*
Y01739*
X03318Y01504*
X03591*
Y01833*
X03865*
Y01287*
X02964*
Y0157*
X02721*
X02721Y0157*
X0272Y0157*
X02473Y01817*
X02473Y01819*
Y02031*
X02473Y02033*
X02565Y02125*
Y02167*
X02565Y02169*
X02625Y02229*
X02627Y02229*
X02627Y0223*
X02631*
Y02285*
X02631Y02287*
X02706Y02362*
X02708Y02363*
X02749*
Y02324*
G37*
G36*
X02283Y02543D02*
X02284Y02542D01*
X02439Y02386*
X02444Y02384*
X02747*
Y02369*
X02707*
X02702Y02367*
X02626Y02291*
X02624Y02287*
Y02235*
X02621Y02234*
X0256Y02173*
X02558Y02169*
Y02129*
X02468Y02039*
Y02037*
X02468Y02037*
X02466Y02033*
Y01818*
X02468Y01813*
X02716Y01565*
X02719Y01564*
X0272Y01562*
X02956*
Y01287*
X02037*
X02034Y01299*
X02029Y01312*
X02022Y01323*
X02012Y01333*
X02001Y0134*
X01988Y01345*
X01976Y01348*
Y02598*
X02228*
X02283Y02543*
G37*
%LNpcbfoc-2*%
%LPC*%
G36*
X03531Y01729D02*
X035D01*
X03496Y01728*
X03493Y01726*
X03491Y01723*
X0349Y0172*
X03491Y01716*
X03493Y01714*
X03496Y01712*
X035Y01711*
X03531*
X03534Y01712*
X03537Y01714*
X03539Y01716*
X0354Y0172*
X03539Y01723*
X03537Y01726*
X03534Y01728*
X03531Y01729*
G37*
G36*
X02211Y02474D02*
X0203D01*
X02026Y02472*
X02024Y02468*
Y02043*
X02025Y02041*
X02026Y02039*
X02026Y02039*
X02026Y02039*
X02028Y02038*
X0203Y02037*
X02364Y02036*
X02364Y02036*
Y02036*
X02366Y02036*
X02368Y02037*
Y02037*
X02375Y02044*
X02375*
X02376Y02047*
X02377Y02049*
Y02049*
Y02308*
X02375Y02313*
X02216Y02472*
X02211Y02474*
G37*
%LNpcbfoc-3*%
%LPD*%
G36*
X02371Y02308D02*
Y02049D01*
X02364Y02042*
X0203Y02043*
Y02468*
X02211*
X02371Y02308*
G37*
G54D14*
X02641Y03556D02*
X02679D01*
X02635Y0355D02*
X02641Y03556D01*
X02635Y03527D02*
Y0355D01*
X02633Y03525D02*
X02635Y03527D01*
X02728Y03457D02*
Y03593D01*
X02809Y03674*
X02446Y03451D02*
X02447Y03452D01*
Y03508*
X02447Y03509D02*
X02447Y03508D01*
X02447Y03509D02*
Y03511D01*
X02879Y02258D02*
X0307Y02067D01*
Y018D02*
Y02067D01*
X02879Y02258D02*
Y02311D01*
X02879Y02312D02*
X02879Y02311D01*
X02477Y02648D02*
X02688Y02436D01*
X02736*
X02748Y02618D02*
X02751Y02615D01*
X02781Y0258D02*
X02781Y02579D01*
X02751Y02615D02*
X02759D01*
X02781Y0258D02*
Y02593D01*
X02759Y02615D02*
X02781Y02593D01*
X0284Y02579D02*
Y02618D01*
X02151Y03263D02*
X02154Y03261D01*
X02078Y03263D02*
X02151D01*
X02077Y03264D02*
X02078Y03263D01*
X02446Y03405D02*
X02447Y03406D01*
Y03451*
X02602Y03457D02*
X02603Y03457D01*
Y03524*
X02564Y03526D02*
X026D01*
X02563Y03528D02*
X02564Y03526D01*
X026D02*
X02603Y03524D01*
X02731Y02674D02*
Y02685D01*
Y02674D02*
X02748Y02657D01*
X02731Y02875D02*
X02736D01*
X02812Y02799*
X02748Y0262D02*
Y02657D01*
X02812Y02647D02*
X0284Y02618D01*
X02812Y02647D02*
Y02799D01*
X02872Y03083D02*
Y03108D01*
X02866D02*
X02867Y03109D01*
X02872Y03083D02*
X02899Y03056D01*
X02867Y03109D02*
X02873D01*
X0266Y03395D02*
X02663Y03397D01*
Y03455D02*
X02665Y03457D01*
X02858Y03117D02*
X02866Y03108D01*
X02822Y03121D02*
Y03132D01*
X02663Y03397D02*
Y03455D01*
X02827Y03117D02*
X02858D01*
X02822Y03121D02*
X02827Y03117D01*
X03041Y02514D02*
X0315Y02623D01*
X03003Y02514D02*
X03041D01*
X0315Y02623D02*
Y0263D01*
X035Y0172D02*
X03531D01*
X03233Y02031D02*
X03299D01*
X02901Y0302D02*
Y03054D01*
Y0302D02*
X02908Y03012D01*
X02872Y03108D02*
D01*
X029Y03056D02*
X02901Y03054D01*
X02899Y03056D02*
X029D01*
X02908Y03012D02*
X02912D01*
X03108Y03078D02*
X03115Y03085D01*
X03128*
X03062Y03191D02*
X03076D01*
X03035Y03218D02*
X03062Y03191D01*
X03035Y03218D02*
X03035D01*
X03031Y03214D02*
X03035Y03218D01*
X03168Y03125D02*
X0318D01*
X03128Y03085D02*
X03168Y03125D01*
X03076Y03191D02*
X03084Y03184D01*
X03106Y0332D02*
X03171D01*
X03087Y03339D02*
X03106Y0332D01*
X03191Y03125D02*
X03224Y03092D01*
X03191Y03125D02*
X03216Y03149D01*
X03191Y03125D02*
D01*
X03224Y03092D02*
D01*
X03216Y03149D02*
X03257D01*
X03205Y02086D02*
X03267D01*
X03003Y02288D02*
X03205Y02086D01*
X03003Y02288D02*
Y02337D01*
X02978Y02286D02*
X03233Y02031D01*
X02978Y02286D02*
Y02312D01*
X02938Y02275D02*
Y02306D01*
X02899Y02264D02*
Y02305D01*
X02919Y02269D02*
Y02312D01*
X02899Y02264D02*
X03335Y01827D01*
X02958Y02281D02*
X03248Y01991D01*
X02958Y02281D02*
Y02305D01*
X02938Y02275D02*
X03265Y01949D01*
X02919Y02269D02*
X03343Y01845D01*
X03335Y01827D02*
X03551D01*
X03048Y02394D02*
X03189Y02253D01*
Y0219D02*
Y02253D01*
X03156Y02211D02*
Y02239D01*
X03149Y02204D02*
X03156Y02211D01*
X03189Y0219D02*
X03229Y02151D01*
X03156Y02239D02*
X03157Y02239D01*
Y0226*
X03585Y02149D02*
X03992D01*
X04025Y02182*
X03584Y02151D02*
X03585Y02149D01*
X03229Y02151D02*
X03584D01*
X0304Y02376D02*
X03157Y0226D01*
X0301Y02396D02*
X03012Y02394D01*
X03003Y02396D02*
X0301D01*
X03012Y02394D02*
X03048D01*
X03101Y02259D02*
X03109Y02252D01*
X0301Y02357D02*
X0302D01*
X03101Y02259D02*
Y02276D01*
X0301Y02376D02*
X0304D01*
X0302Y02357D02*
X03101Y02276D01*
X03572Y03022D02*
X03585Y03035D01*
X03572Y02918D02*
Y03022D01*
X03464Y02809D02*
X03572Y02918D01*
X03163Y03228D02*
X03169D01*
X0313Y0326D02*
X03163Y03228D01*
X0298Y0326D02*
X0313D01*
X02967Y03247D02*
X0298Y0326D01*
X02875Y03247D02*
X02967D01*
X03227Y02578D02*
Y03039D01*
X03464Y03276*
X03126Y02477D02*
X03227Y02578D01*
X03012Y02418D02*
X03186D01*
X03003Y02416D02*
X0301D01*
X03229Y0246D02*
X03721D01*
X0301Y02416D02*
X03012Y02418D01*
X03186D02*
X03229Y0246D01*
X03862Y02448D02*
X03905Y02405D01*
X03733Y02448D02*
X03862D01*
X03721Y0246D02*
X03733Y02448D01*
X02998Y02456D02*
X03147D01*
X03464Y02773D02*
Y02809D01*
X0318Y02437D02*
X03484Y02741D01*
X03147Y02456D02*
X03464Y02773D01*
X03001Y02437D02*
X0318D01*
X03484Y02741D02*
X03867D01*
X03081Y02495D02*
X03154Y02568D01*
X031Y02603D02*
Y02695D01*
X03154Y02568D02*
Y02569D01*
X0303Y02534D02*
X031Y02603D01*
X03012Y02477D02*
X03126D01*
X03025Y02715D02*
X03055Y02685D01*
X03015Y0278D02*
X031Y02695D01*
X03055Y0259D02*
Y02685D01*
X03019Y02554D02*
X03055Y0259D01*
X02978Y02579D02*
Y02623D01*
X03005Y0265D02*
X03015D01*
Y02715D02*
X03025D01*
X02978Y02623D02*
X03005Y0265D01*
X0309Y02992D02*
X03094Y02996D01*
X03186D02*
X0319Y03D01*
X03094Y02996D02*
X03186D01*
X02535Y03188D02*
X02539D01*
X02525Y03179D02*
X02535Y03188D01*
X02525Y03175D02*
Y03179D01*
X02448Y03098D02*
X02525Y03175D01*
X02448Y03009D02*
Y03098D01*
X02395Y03185D02*
Y0319D01*
X02452Y03247*
X0235Y03225D02*
X02404Y03279D01*
X02078Y03312D02*
X02548D01*
X02404Y03279D02*
X0255D01*
X02452Y03247D02*
X0255D01*
X02076Y03315D02*
X02078Y03312D01*
X02322Y03031D02*
X02507Y03216D01*
X0255*
X02401Y02962D02*
X02448Y03009D01*
X02867Y02086D02*
Y02189D01*
Y02086D02*
X02902Y02051D01*
X0291*
X0284Y02216D02*
X02867Y02189D01*
X0284Y02216D02*
Y02313D01*
X02848Y01932D02*
Y02182D01*
X0282Y02209D02*
X02848Y02182D01*
X0284Y01925D02*
X02848Y01932D01*
X02818Y01925D02*
X0284D01*
X0281Y01916D02*
X02818Y01925D01*
X03225Y03493D02*
X03279D01*
X02633Y03457D02*
Y03525D01*
X0278Y03009D02*
X0285Y02939D01*
X02779Y03009D02*
X0278D01*
X02791Y03076D02*
Y03117D01*
X02943Y0293D02*
X02975D01*
X02892Y02977D02*
X02896D01*
X02943Y0293*
X02791Y03076D02*
X02891Y02976D01*
X02476Y03405D02*
X02476Y03406D01*
Y03449*
X02478Y03451*
X0243Y03695D02*
X02435Y037D01*
X02482D02*
X02482Y03701D01*
X02435Y037D02*
X02482D01*
X02476Y03405D02*
X02549D01*
X0255Y03405*
X02929Y02756D02*
X02958D01*
X02922Y02862D02*
X02949D01*
X02929Y02822D02*
X02933Y02825D01*
X02949*
X02958Y02756D02*
X0297Y02767D01*
Y02836*
X02949Y02825D02*
X02959Y02836D01*
X02949Y02862D02*
X0297Y02841D01*
Y02836D02*
Y02841D01*
X02633Y03457D02*
X02633Y03457D01*
X02958Y02579D02*
Y02756D01*
X02959Y02836D02*
X02971D01*
X03464Y03276D02*
X03627D01*
X03543Y01845D02*
X03569Y01872D01*
X03752D02*
X03877Y01997D01*
X03569Y01872D02*
X03752D01*
X02548Y03312D02*
X0255Y0331D01*
Y03373D02*
X0255Y03374D01*
X02609D02*
X0261Y03375D01*
X0255Y03374D02*
X02609D01*
X04025Y02182D02*
Y02252D01*
X03975Y02302D02*
X04025Y02252D01*
X03975Y02302D02*
Y02386D01*
X03905Y02381D02*
Y02405D01*
Y02381D02*
X03942Y02344D01*
Y0222D02*
Y02344D01*
Y0222D02*
X03956Y02206D01*
X03975*
X03956Y02979D02*
X03975D01*
X03899Y03035D02*
X03956Y02979D01*
X03585Y03035D02*
X03899D01*
X02809Y03674D02*
X02844D01*
X0285Y0368*
X02691Y02585D02*
X02722Y02554D01*
X02691Y02585D02*
Y0302D01*
X02759Y03088D02*
Y03126D01*
X02691Y0302D02*
X02759Y03088D01*
X02722Y02554D02*
X02736D01*
X02602Y02547D02*
Y03132D01*
Y02547D02*
X02694Y02455D01*
X02736*
X02975Y0293D02*
X02984Y02921D01*
X02731Y02748D02*
X02775Y02705D01*
Y02633D02*
Y02705D01*
Y02633D02*
X02801Y02607D01*
Y02579D02*
Y02607D01*
X02795Y0293D02*
X0283Y02895D01*
X02785Y0293D02*
X02795D01*
X0283Y02654D02*
Y02895D01*
X02845Y0354D02*
X0285Y03545D01*
X0286Y02579D02*
Y02624D01*
X0283Y02654D02*
X0286Y02624D01*
X0281Y0354D02*
X02845D01*
X02791Y03521D02*
X0281Y0354D01*
X02791Y03457D02*
Y03521D01*
X02655Y0257D02*
Y03035D01*
Y0257D02*
X02711Y02514D01*
X02655Y03035D02*
X02696Y03076D01*
Y03132*
X02711Y02514D02*
X02736D01*
X03227Y03219D02*
X03257Y0319D01*
X03168Y03219D02*
X03227D01*
X02899Y02909D02*
Y02911D01*
X0287Y02862D02*
X02897D01*
X02899Y0258D02*
Y02635D01*
Y0258D02*
X02899Y02579D01*
X02868Y02666D02*
Y02878D01*
Y02666D02*
X02899Y02635D01*
X02815Y03615D02*
X0285D01*
X02759Y03559D02*
X02815Y03615D01*
X02759Y03457D02*
Y03559D01*
X02868Y02878D02*
X02899Y02909D01*
X03003Y02534D02*
X0303D01*
X02948Y0336D02*
X03D01*
X02898Y0331D02*
X02948Y0336D01*
X02875Y0331D02*
X02898D01*
X0262Y02555D02*
X027Y02475D01*
X0262Y02555D02*
Y0305D01*
X02633Y03063*
Y03132*
X027Y02475D02*
X02736D01*
X02879Y0258D02*
Y0263D01*
Y0258D02*
X02879Y02579D01*
X0285Y02659D02*
Y02939D01*
Y02659D02*
X02879Y0263D01*
X02741Y02808D02*
X02793Y02757D01*
Y0264D02*
Y02757D01*
X02733Y02808D02*
X02741D01*
X02793Y0264D02*
X0282Y02613D01*
Y02579D02*
Y02613D01*
X02697Y03726D02*
X027Y03729D01*
X02646Y03726D02*
X02697D01*
X02643Y03724D02*
X02646Y03726D01*
X02789Y034D02*
X02822Y03433D01*
Y03457*
X02765Y034D02*
X02789D01*
X0276Y03394D02*
X02765Y034D01*
X02644Y03681D02*
X02698D01*
X02643Y03682D02*
X02644Y03681D01*
X02698D02*
X027Y0368D01*
X02698Y03414D02*
Y03455D01*
X0271Y03395D02*
Y03402D01*
X02698Y03414D02*
X0271Y03402D01*
X02696Y03457D02*
X02698Y03455D01*
X02673Y02577D02*
X02717Y02534D01*
X02673Y02577D02*
Y03028D01*
X02728Y03082D02*
Y03128D01*
X02673Y03028D02*
X02728Y03082D01*
X02717Y02534D02*
X02735D01*
X02736Y02534*
X02907Y03347D02*
X02978Y03418D01*
X029Y03342D02*
X02905Y03347D01*
X02978Y03418D02*
X03013D01*
X02905Y03347D02*
X02907D01*
X02875Y03342D02*
X029D01*
X03003Y02554D02*
X03019D01*
X02877Y03213D02*
X02922D01*
X02875Y03216D02*
X02877Y03213D01*
X02922D02*
X03014Y03121D01*
X03022Y03125D02*
X03034D01*
X03053Y03106*
Y03091D02*
Y03106D01*
Y03091D02*
X03067Y03076D01*
Y03074D02*
Y03076D01*
X02647Y03635D02*
X02694D01*
X027Y0363*
X02643Y03639D02*
X02647Y03635D01*
X02638Y02562D02*
X02705Y02495D01*
X02638Y02562D02*
Y03042D01*
X02665Y0307*
Y03132*
X02705Y02495D02*
X02736D01*
X02967Y03442D02*
Y03487D01*
X02965Y0349D02*
X02967Y03487D01*
X02898Y03373D02*
X02967Y03442D01*
X02875Y03373D02*
X02898D01*
X03171Y03399D02*
X03172Y034D01*
Y03494*
X03116Y03399D02*
X03171D01*
X03091Y03373D02*
X03116Y03399D01*
X0309Y03372D02*
Y03375D01*
X03088Y0337D02*
X0309Y03372D01*
X03083Y03366D02*
X03087Y0337D01*
X03063Y03366D02*
X03083D01*
X0288Y0328D02*
X0288Y03279D01*
X02975D02*
X03063Y03366D01*
X0288Y03279D02*
X02975D01*
X02895Y02818D02*
X02899Y02822D01*
X02887Y02809D02*
X02895Y02817D01*
Y02818*
X02919Y02579D02*
Y02642D01*
X02899Y02822D02*
X029D01*
X02887Y02674D02*
X02919Y02642D01*
X02887Y02674D02*
Y02809D01*
X03922Y02799D02*
X03975D01*
X03895Y02772D02*
X03922Y02799D01*
X03895Y02769D02*
Y02772D01*
X03867Y02741D02*
X03895Y02769D01*
X0272Y02612D02*
X02746Y02586D01*
X02761*
X02717Y0262D02*
X0272Y02616D01*
Y02612D02*
Y02616D01*
X02761Y02586D02*
X02761Y02586D01*
Y02579D02*
Y02586D01*
X03004Y02495D02*
X03081D01*
X03003Y02495D02*
X03004Y02495D01*
X0301Y02475D02*
X03012Y02477D01*
X03003Y02475D02*
X0301D01*
X03536Y02682D02*
X03624D01*
X03626Y02684*
X03368Y01949D02*
X03506Y02086D01*
X03629*
X03265Y01949D02*
X03368D01*
X03343Y01845D02*
X03543D01*
X03248Y01991D02*
X03343D01*
X03344Y01992*
X03551Y01827D02*
X03569Y01846D01*
X03869D02*
X03906Y01809D01*
X03569Y01846D02*
X03869D01*
X03906Y0166D02*
Y01809D01*
Y0166D02*
X03957Y01609D01*
X0282Y02209D02*
Y02312D01*
X028Y02204D02*
Y02296D01*
Y02204D02*
X0281Y02195D01*
Y01991D02*
Y02195D01*
X02801Y02296D02*
Y02305D01*
X03957Y01609D02*
X03976D01*
X02598Y03667D02*
X02615Y03684D01*
X02615*
X02539Y03667D02*
X02598D01*
X02566Y03723D02*
X02617D01*
X02543Y03701D02*
X02566Y03723D01*
X02482Y03667D02*
X02486D01*
X02539Y03701D02*
X02543D01*
X02615Y03639D02*
X02616Y0364D01*
X02486Y03667D02*
X02514Y03639D01*
X02615*
G54D15*
X02655Y02178D03*
X02525D03*
X0355Y02267D03*
X03559Y02822D03*
X03065Y01764D03*
X03421Y02267D03*
X0343Y02822D03*
X03194Y01764D03*
G54D16*
X03125Y01425D03*
X028D03*
X04281Y01968D03*
Y03149D03*
Y02559D03*
G54D17*
X0291Y02123D03*
Y02051D03*
G54D18*
X03154Y01628D03*
X03203Y01678D03*
G54D19*
X03728Y01699D03*
X03726Y02296D03*
X03727Y02889D03*
X03875Y03186D03*
X03874Y02595D03*
X03877Y01997D03*
G54D20*
X02736Y02337D03*
Y02357D03*
Y02376D03*
Y02436D03*
X03003Y02337D03*
Y02514D03*
X02736Y02396D03*
X03003Y02455D03*
X02736Y02554D03*
Y02455D03*
Y02514D03*
X03003Y02534D03*
X02736Y02475D03*
Y02534D03*
X03003Y02554D03*
X02736Y02495D03*
X03003Y02357D03*
Y02436D03*
X02736Y02416D03*
X03003Y02376D03*
Y02416D03*
Y02396D03*
Y02475D03*
Y02495D03*
G54D21*
X02879Y02312D03*
X0286D03*
X02781D03*
Y02579D03*
X0284D03*
X02978Y02312D03*
X02938Y02579D03*
X0284Y02312D03*
X02958Y02579D03*
X02801D03*
X0286D03*
X02899D03*
X02879D03*
X0282D03*
X02978D03*
X02761Y02312D03*
X02958D03*
X02761Y02579D03*
X02919D03*
X02938Y02312D03*
X02919D03*
X02899D03*
X0282D03*
X02801D03*
G54D22*
X02431Y02192D03*
X02318D03*
G54D23*
X02584Y02284D03*
Y02425D03*
G54D24*
X02721Y02034D03*
X02912Y03012D03*
Y02959D03*
X02721Y02087D03*
G54D25*
X02748Y0262D03*
X02717D03*
G54D26*
X02077Y03263D03*
Y03312D03*
G54D27*
X02446Y03405D03*
X02447Y03451D03*
X02476Y03405D03*
X02477Y03451D03*
G54D28*
X02665Y03457D03*
X02602D03*
X02822Y03132D03*
X02633Y03457D03*
X02822D03*
X02696D03*
X02791Y03132D03*
X02728Y03457D03*
X02791D03*
X02633Y03132D03*
X02696D03*
X02665D03*
X02759Y03457D03*
X02728Y03132D03*
X02602D03*
X02759D03*
G54D29*
X02603Y03525D03*
X02634D03*
G54D30*
X02873Y03109D03*
X02894Y0313D03*
G54D31*
X035Y0172D03*
X03475Y02378D03*
X03481Y02941D03*
X035Y01925D03*
X03475Y02583D03*
X03481Y03145D03*
G54D32*
X02929Y02726D03*
X03087Y0334D03*
X02929Y02755D03*
X03087Y0337D03*
G54D33*
X03108Y03076D03*
X03068D03*
G54D34*
X03021Y03224D03*
X03179Y03129D03*
Y03224D03*
X03021Y03129D03*
G54D35*
X03171Y0332D03*
X03374D03*
Y03399D03*
X03171D03*
X03185Y03001D03*
X02982Y02923D03*
X03185D03*
X02982Y03001D03*
G54D36*
X03257Y03149D03*
Y0319D03*
G54D37*
X01951Y03385D03*
Y0319D03*
G54D38*
X02397Y02494D03*
X02266Y02363D03*
G54D39*
X02417Y02585D03*
X02468D03*
G54D40*
X02641Y02034D03*
Y02083D03*
G54D41*
X02482Y03701D03*
X02539Y03667D03*
X02482D03*
X02539Y03701D03*
G54D42*
X02929Y02822D03*
X02927Y02862D03*
X02897D03*
X02643Y03724D03*
Y03682D03*
Y03639D03*
X029Y02822D03*
X02614Y03682D03*
Y03639D03*
Y03724D03*
G54D43*
X03225Y03494D03*
X03172D03*
G54D44*
X0255Y03405D03*
X02875Y03247D03*
Y03216D03*
X0255Y03184D03*
Y03216D03*
Y03247D03*
Y03279D03*
Y0331D03*
Y03342D03*
X02875Y03405D03*
Y03279D03*
Y03373D03*
Y03342D03*
Y0331D03*
X0255Y03373D03*
G54D45*
X02875Y03184D03*
G54D46*
X03975Y02979D03*
X03626Y02505D03*
X03975Y02799D03*
X03627Y03096D03*
Y03276D03*
X03975Y02206D03*
Y02386D03*
X03629Y02086D03*
X03626Y02684D03*
X03976Y01609D03*
X03629Y01907D03*
X03976Y01789D03*
G54D47*
X0281Y01916D03*
Y01991D03*
G54D48*
X0287Y02445D03*
G54D49*
X0226Y03104D03*
G54D50*
X0233Y03033D03*
X02401Y02962D03*
X02472Y02891D03*
G54D51*
X02679Y03556D03*
X02447Y03511D03*
X03346Y01456D03*
Y01338D03*
X03405Y01397D03*
X03464Y01338D03*
X03523Y01397D03*
X03582Y01338D03*
Y01456D03*
X03464D03*
X03622Y01594D03*
Y01791D03*
Y01692D03*
Y02401D03*
Y02204D03*
Y02303D03*
Y02795D03*
Y02992D03*
Y02893D03*
X03641Y01397D03*
X037Y01456D03*
Y01338D03*
X0372Y01594D03*
X03671Y01643D03*
Y01742D03*
X0372Y01692D03*
Y02204D03*
Y01791D03*
X03759Y01397D03*
X03818Y01594D03*
Y01338D03*
Y01456D03*
X03771Y01642D03*
X03769Y01742D03*
X03818Y01692D03*
Y02204D03*
Y01791D03*
X03671Y02253D03*
Y02352D03*
X0372Y02303D03*
Y02401D03*
X03671Y02844D03*
Y02942D03*
X0372Y02795D03*
Y02992D03*
Y02893D03*
X03769Y02253D03*
Y02352D03*
X03818Y02303D03*
Y02401D03*
X03769Y02844D03*
Y02942D03*
X03818Y02795D03*
Y02992D03*
Y02893D03*
X02086Y01574D03*
X02204D03*
Y01692D03*
X02086Y01811D03*
Y01692D03*
X02204Y01811D03*
X02322Y01574D03*
X02559D03*
X0244D03*
X02322Y01811D03*
Y01929D03*
X0244Y01692D03*
X02322D03*
X02086Y01929D03*
X02204D03*
X02719Y01975D03*
X02154Y03261D03*
X02477Y02648D03*
X02563Y03528D03*
X02731Y02685D03*
Y02875D03*
X03267Y02086D03*
X03238Y02342D03*
Y02401D03*
X0315Y0263D03*
X03375Y01594D03*
Y01653D03*
X03316Y01771D03*
X03375Y01712D03*
Y01771D03*
X03257D03*
Y01712D03*
X03435Y01653D03*
X03494D03*
X03299Y02031D03*
X03297Y02401D03*
Y02283D03*
Y02342D03*
X03356Y02224D03*
Y02342D03*
Y02401D03*
Y02283D03*
X029Y03056D03*
X03084Y03184D03*
X03267Y02765D03*
X03326Y02824D03*
X03267Y02883D03*
Y02824D03*
X03326Y02883D03*
Y02765D03*
X03385D03*
Y02883D03*
Y02942D03*
Y02824D03*
X03216Y03321D03*
X03268Y02942D03*
X03326Y02942D03*
X03224Y03092D03*
X03238Y02283D03*
X03297Y02224D03*
X03238Y02224D03*
X03435Y01594D03*
X03494D03*
X03316Y01653D03*
Y01712D03*
X03149Y02204D03*
X03109Y02252D03*
X03458Y0306D03*
X03356Y02523D03*
X03154Y02569D03*
X03015Y0265D03*
X0309Y02992D03*
X02395Y03185D03*
X0235Y03225D03*
X03279Y03493D03*
X02779Y03009D03*
X0295Y03105D03*
X021Y021D03*
X022Y022D03*
Y021D03*
X021Y023D03*
Y024D03*
Y022D03*
X022Y023D03*
X023Y021D03*
X02435Y037D03*
X0297Y02836D03*
X02641Y02007D03*
X0254Y03428D03*
X03546Y01988D03*
X0285Y0368D03*
X02731Y02748D03*
X02785Y0293D03*
X0285Y03545D03*
X02899Y02911D03*
X0285Y03615D03*
X03015Y0278D03*
X03Y0336D03*
X02733Y02808D03*
X03014Y03418D03*
X03015Y02715D03*
X02965Y0349D03*
X03536Y02682D03*
X03344Y01992D03*
G54D52*
X02774Y02117D03*
Y0205D03*
Y02182D03*
X0266Y03395D03*
X02923Y02688D03*
X0261Y03375D03*
X027Y03729D03*
X0276Y03394D03*
X027Y0368D03*
X0271Y03395D03*
X027Y0363D03*
G54D53*
X02778Y02445D03*
Y02396D03*
X0287Y02354D03*
X0282D03*
Y02396D03*
Y02445D03*
X0287Y02396D03*
Y02445D03*
X02778Y02495D03*
X0282D03*
X0287D03*
Y02537D03*
X0282D03*
X02919Y02396D03*
Y02354D03*
X02961Y02396D03*
X02919Y02495D03*
Y02445D03*
X02961Y02495D03*
X02919Y02537D03*
X02961Y02445D03*
G54D54*
X01968Y01279D03*
X04035Y03838D03*
Y01279D03*
X01968Y03838D03*
M02*