%FSTAX23Y23*%
%MOIN*%
%SFA1B1*%

%IPPOS*%
%AMD17*
4,1,8,-0.004700,0.009800,-0.004700,-0.009800,-0.002700,-0.011800,0.002700,-0.011800,0.004700,-0.009800,0.004700,0.009800,0.002700,0.011800,-0.002700,0.011800,-0.004700,0.009800,0.0*
1,1,0.003960,-0.002700,0.009800*
1,1,0.003960,-0.002700,-0.009800*
1,1,0.003960,0.002700,-0.009800*
1,1,0.003960,0.002700,0.009800*
%
%AMD20*
4,1,8,-0.011800,0.002700,-0.011800,-0.002700,-0.009800,-0.004700,0.009800,-0.004700,0.011800,-0.002700,0.011800,0.002700,0.009800,0.004700,-0.009800,0.004700,-0.011800,0.002700,0.0*
1,1,0.003960,-0.009800,0.002700*
1,1,0.003960,-0.009800,-0.002700*
1,1,0.003960,0.009800,-0.002700*
1,1,0.003960,0.009800,0.002700*
%
%AMD21*
4,1,8,0.027200,-0.015500,0.027200,0.015500,0.022000,0.020700,-0.022000,0.020700,-0.027200,0.015500,-0.027200,-0.015500,-0.022000,-0.020700,0.022000,-0.020700,0.027200,-0.015500,0.0*
1,1,0.010340,0.022000,-0.015500*
1,1,0.010340,0.022000,0.015500*
1,1,0.010340,-0.022000,0.015500*
1,1,0.010340,-0.022000,-0.015500*
%
%AMD30*
4,1,4,0.000600,0.013700,-0.013700,-0.000600,-0.000600,-0.013700,0.013700,0.000600,0.000600,0.013700,0.0*
%
%AMD32*
4,1,8,0.000000,-0.032600,0.000000,-0.032600,0.010300,-0.022200,0.010300,0.022200,0.000000,0.032600,0.000000,0.032600,-0.010300,0.022200,-0.010300,-0.022200,0.000000,-0.032600,0.0*
1,1,0.020700,0.000000,-0.022200*
1,1,0.020700,0.000000,-0.022200*
1,1,0.020700,0.000000,0.022200*
1,1,0.020700,0.000000,0.022200*
%
%AMD38*
4,1,4,0.057100,-0.101500,0.101500,-0.057100,-0.057100,0.101500,-0.101500,0.057100,0.057100,-0.101500,0.0*
%
%AMD44*
4,1,8,-0.022200,-0.010300,0.022200,-0.010300,0.032600,0.000000,0.032600,0.000000,0.022200,0.010300,-0.022200,0.010300,-0.032600,0.000000,-0.032600,0.000000,-0.022200,-0.010300,0.0*
1,1,0.020700,-0.022200,0.000000*
1,1,0.020700,0.022200,0.000000*
1,1,0.020700,0.022200,0.000000*
1,1,0.020700,-0.022200,0.000000*
%
%ADD15R,0.267720X0.271650*%
%ADD16R,0.049210X0.033470*%
G04‾CAMADD=17‾8‾0.0‾0.0‾236.2‾94.5‾19.8‾0.0‾15‾0.0‾0.0‾0.0‾0.0‾0‾0.0‾0.0‾0.0‾0.0‾0‾0.0‾0.0‾0.0‾90.0‾94.0‾236.0*
%ADD17D17*%
%ADD18R,0.271650X0.267720*%
%ADD19R,0.043310X0.086610*%
G04‾CAMADD=20‾8‾0.0‾0.0‾94.5‾236.2‾19.8‾0.0‾15‾0.0‾0.0‾0.0‾0.0‾0‾0.0‾0.0‾0.0‾0.0‾0‾0.0‾0.0‾0.0‾90.0‾236.0‾94.0*
%ADD20D20*%
G04‾CAMADD=21‾8‾0.0‾0.0‾413.4‾543.3‾51.7‾0.0‾15‾0.0‾0.0‾0.0‾0.0‾0‾0.0‾0.0‾0.0‾0.0‾0‾0.0‾0.0‾0.0‾270.0‾544.0‾414.0*
%ADD21D21*%
%ADD22R,0.106300X0.039370*%
%ADD23R,0.066930X0.023620*%
%ADD24R,0.057090X0.027560*%
%ADD25R,0.028350X0.028350*%
%ADD26R,0.070870X0.047240*%
%ADD27R,0.018600X0.020290*%
%ADD28R,0.133860X0.070870*%
%ADD29R,0.028350X0.028350*%
G04‾CAMADD=30‾9‾0.0‾0.0‾202.9‾186.0‾0.0‾0.0‾0‾0.0‾0.0‾0.0‾0.0‾0‾0.0‾0.0‾0.0‾0.0‾0‾0.0‾0.0‾0.0‾45.0‾274.0‾273.0*
%ADD30D30*%
%ADD31R,0.031970X0.025930*%
G04‾CAMADD=32‾8‾0.0‾0.0‾207.0‾651.7‾103.5‾0.0‾15‾0.0‾0.0‾0.0‾0.0‾0‾0.0‾0.0‾0.0‾0.0‾0‾0.0‾0.0‾0.0‾180.0‾207.0‾651.0*
%ADD32D32*%
%ADD33R,0.024730X0.023870*%
%ADD34R,0.020290X0.018600*%
%ADD35R,0.015750X0.019680*%
%ADD36R,0.066140X0.066930*%
%ADD37R,0.053150X0.106300*%
G04‾CAMADD=38‾9‾0.0‾0.0‾629.9‾2244.1‾0.0‾0.0‾0‾0.0‾0.0‾0.0‾0.0‾0‾0.0‾0.0‾0.0‾0.0‾0‾0.0‾0.0‾0.0‾225.0‾2030.0‾2029.0*
%ADD38D38*%
%ADD39R,0.033470X0.035430*%
%ADD40R,0.035680X0.033660*%
%ADD41R,0.033470X0.025590*%
%ADD42R,0.019680X0.017720*%
%ADD43R,0.025930X0.031970*%
G04‾CAMADD=44‾8‾0.0‾0.0‾651.7‾207.0‾103.5‾0.0‾15‾0.0‾0.0‾0.0‾0.0‾0‾0.0‾0.0‾0.0‾0.0‾0‾0.0‾0.0‾0.0‾180.0‾651.0‾207.0*
%ADD44D44*%
%ADD45R,0.065170X0.020700*%
%ADD46R,0.074800X0.037400*%
%ADD47R,0.051180X0.027560*%
%LNpcbfoc-1*%
%LPD*%
G36*
X02814Y0235D02*
X02776D01*
X02776*
X02775Y0235*
X02775Y02351*
X02774Y02352*
Y02352*
Y0239*
Y0239*
X02775Y02391*
X02775Y02392*
X02776Y02392*
X02776*
X02814*
X02814*
X02815Y02392*
X02816Y02391*
X02816Y0239*
Y0239*
Y02352*
Y02352*
X02816Y02351*
X02815Y0235*
X02814Y0235*
X02814*
G37*
G36*
X02774Y02402D02*
Y02439D01*
Y0244*
X02775Y02441*
X02775Y02441*
X02776Y02441*
X02776*
X02814*
X02814*
X02815Y02441*
X02816Y02441*
X02816Y0244*
Y02439*
Y02402*
Y02401*
X02816Y02401*
X02815Y024*
X02814Y024*
X02814*
X02776*
X02776*
X02775Y024*
X02775Y02401*
X02774Y02401*
Y02402*
G37*
G36*
X02826Y02392D02*
X02864D01*
X02864*
X02865Y02392*
X02865Y02391*
X02866Y0239*
Y0239*
Y02352*
Y02352*
X02865Y02351*
X02865Y0235*
X02864Y0235*
X02864*
X02826*
X02825*
X02825Y0235*
X02824Y02351*
X02824Y02352*
Y02352*
Y0239*
Y0239*
X02824Y02391*
X02825Y02392*
X02825Y02392*
X02826*
G37*
G36*
Y024D02*
X02825D01*
X02825Y024*
X02824Y02401*
X02824Y02401*
Y02402*
Y02439*
Y0244*
X02824Y02441*
X02825Y02441*
X02825Y02441*
X02826*
X02864*
X02864*
X02865Y02441*
X02865Y02441*
X02866Y0244*
Y02439*
Y02402*
Y02401*
X02865Y02401*
X02865Y024*
X02864Y024*
X02864*
X02826*
G37*
G36*
X02776Y02449D02*
X02776D01*
X02775Y0245*
X02775Y0245*
X02774Y02451*
Y02451*
Y02489*
Y02489*
X02775Y0249*
X02775Y02491*
X02776Y02491*
X02776*
X02814*
X02814*
X02815Y02491*
X02816Y0249*
X02816Y02489*
Y02489*
Y02451*
Y02451*
X02816Y0245*
X02815Y0245*
X02814Y02449*
X02814*
X02776*
G37*
G36*
Y02541D02*
X02814D01*
X02814*
X02815Y0254*
X02816Y0254*
X02816Y02539*
Y02539*
Y02501*
Y025*
X02816Y025*
X02815Y02499*
X02814Y02499*
X02814*
X02776*
X02776*
X02775Y02499*
X02775Y025*
X02774Y025*
Y02501*
Y02539*
Y02539*
X02775Y0254*
X02775Y0254*
X02776Y02541*
X02776*
G37*
G36*
X02864Y02449D02*
X02826D01*
X02825*
X02825Y0245*
X02824Y0245*
X02824Y02451*
Y02451*
Y02489*
Y02489*
X02824Y0249*
X02825Y02491*
X02825Y02491*
X02826*
X02864*
X02864*
X02865Y02491*
X02865Y0249*
X02866Y02489*
Y02489*
Y02451*
Y02451*
X02865Y0245*
X02865Y0245*
X02864Y02449*
X02864*
G37*
G36*
X02866Y02501D02*
Y025D01*
X02865Y025*
X02865Y02499*
X02864Y02499*
X02864*
X02826*
X02825*
X02825Y02499*
X02824Y025*
X02824Y025*
Y02501*
Y02539*
Y02539*
X02824Y0254*
X02825Y0254*
X02825Y02541*
X02826*
X02864*
X02864*
X02865Y0254*
X02865Y0254*
X02866Y02539*
Y02539*
Y02501*
G37*
G36*
X02915Y0239D02*
Y02352D01*
Y02352*
X02915Y02351*
X02914Y0235*
X02914Y0235*
X02913*
X02875*
X02875*
X02874Y0235*
X02874Y02351*
X02874Y02352*
Y02352*
Y0239*
Y0239*
X02874Y02391*
X02874Y02392*
X02875Y02392*
X02875*
X02913*
X02914*
X02914Y02392*
X02915Y02391*
X02915Y0239*
Y0239*
G37*
G36*
X02875Y02441D02*
X02913D01*
X02914*
X02914Y02441*
X02915Y02441*
X02915Y0244*
Y02439*
Y02402*
Y02401*
X02915Y02401*
X02914Y024*
X02914Y024*
X02913*
X02875*
X02875*
X02874Y024*
X02874Y02401*
X02874Y02401*
Y02402*
Y02439*
Y0244*
X02874Y02441*
X02874Y02441*
X02875Y02441*
X02875*
G37*
G36*
X02923Y02352D02*
Y0239D01*
Y0239*
X02923Y02391*
X02924Y02392*
X02925Y02392*
X02925*
X02963*
X02963*
X02964Y02392*
X02965Y02391*
X02965Y0239*
Y0239*
Y02352*
Y02352*
X02965Y02351*
X02964Y0235*
X02963Y0235*
X02963*
X02925*
X02925*
X02924Y0235*
X02923Y02351*
X02923Y02352*
Y02352*
G37*
G36*
X02925Y024D02*
X02925D01*
X02924Y024*
X02923Y02401*
X02923Y02401*
Y02402*
Y02439*
Y0244*
X02923Y02441*
X02924Y02441*
X02925Y02441*
X02925*
X02963*
X02963*
X02964Y02441*
X02965Y02441*
X02965Y0244*
Y02439*
Y02402*
Y02401*
X02965Y02401*
X02964Y024*
X02963Y024*
X02963*
X02925*
G37*
G36*
X02915Y02451D02*
Y02451D01*
X02915Y0245*
X02914Y0245*
X02914Y02449*
X02913*
X02875*
X02875*
X02874Y0245*
X02874Y0245*
X02874Y02451*
Y02451*
Y02489*
Y02489*
X02874Y0249*
X02874Y02491*
X02875Y02491*
X02875*
X02913*
X02914*
X02914Y02491*
X02915Y0249*
X02915Y02489*
Y02489*
Y02451*
G37*
G36*
X02963Y02449D02*
X02925D01*
X02925*
X02924Y0245*
X02923Y0245*
X02923Y02451*
Y02451*
Y02489*
Y02489*
X02923Y0249*
X02924Y02491*
X02925Y02491*
X02925*
X02963*
X02963*
X02964Y02491*
X02965Y0249*
X02965Y02489*
Y02489*
Y02451*
Y02451*
X02965Y0245*
X02964Y0245*
X02963Y02449*
X02963*
G37*
G36*
X02913Y02541D02*
X02914D01*
X02914Y0254*
X02915Y0254*
X02915Y02539*
Y02539*
Y02501*
Y025*
X02915Y025*
X02914Y02499*
X02914Y02499*
X02913*
X02875*
X02875*
X02874Y02499*
X02874Y025*
X02874Y025*
Y02501*
Y02539*
Y02539*
X02874Y0254*
X02874Y0254*
X02875Y02541*
X02875*
X02913*
G37*
G36*
X02965Y02501D02*
Y025D01*
X02965Y025*
X02964Y02499*
X02963Y02499*
X02963*
X02925*
X02925*
X02924Y02499*
X02923Y025*
X02923Y025*
Y02501*
Y02539*
Y02539*
X02923Y0254*
X02924Y0254*
X02925Y02541*
X02925*
X02963*
X02963*
X02964Y0254*
X02965Y0254*
X02965Y02539*
Y02539*
Y02501*
G37*
G54D15*
X04287Y01968D03*
X03125Y01425D03*
X028D03*
X04283Y03141D03*
X04287Y02559D03*
G54D16*
X0291Y02051D03*
Y02123D03*
G54D17*
X0284Y02312D03*
X02879D03*
X0286D03*
X02938Y02579D03*
X0284D03*
X02978Y02312D03*
X02781Y02579D03*
Y02312D03*
X02958Y02579D03*
X02801D03*
X0286D03*
X02899D03*
X02879D03*
X0282D03*
X02978D03*
X02761Y02312D03*
X02958D03*
X02761Y02579D03*
X02919D03*
X02938Y02312D03*
X02919D03*
X02899D03*
X0282D03*
X02801D03*
G54D18*
X03727Y02889D03*
X03728Y01699D03*
X03726Y02296D03*
X03875Y03186D03*
X03874Y02595D03*
X03877Y01997D03*
G54D19*
X02655Y02178D03*
X03229Y01645D03*
X03559Y02822D03*
X0355Y02267D03*
X0343Y02822D03*
X03421Y02267D03*
X03359Y01645D03*
X02525Y02178D03*
G54D20*
X02736Y02357D03*
Y02337D03*
X03003Y02514D03*
Y02337D03*
X02736Y02376D03*
Y02436D03*
Y02396D03*
X03003Y02455D03*
X02736Y02554D03*
Y02455D03*
Y02514D03*
X03003Y02534D03*
X02736Y02475D03*
Y02534D03*
X03003Y02554D03*
X02736Y02495D03*
X03003Y02357D03*
Y02436D03*
X02736Y02416D03*
X03003Y02376D03*
Y02416D03*
Y02396D03*
Y02475D03*
Y02495D03*
G54D21*
X03473Y0148D03*
Y01549D03*
G54D22*
X01951Y03385D03*
Y0319D03*
G54D23*
X02077Y03312D03*
Y03263D03*
G54D24*
X03374Y0332D03*
Y03399D03*
X03171D03*
Y0332D03*
X03187Y03D03*
X02984Y02921D03*
X03187D03*
X02984Y03D03*
G54D25*
X03257Y03149D03*
Y0319D03*
G54D26*
X0318Y03125D03*
X03022Y03219D03*
X0318D03*
X03022Y03125D03*
G54D27*
X03087Y0334D03*
X02929Y02726D03*
Y02755D03*
X03087Y0337D03*
G54D28*
X03458Y02933D03*
X03475Y02378D03*
X03464Y01707D03*
Y01912D03*
X03475Y02583D03*
X03458Y03138D03*
G54D29*
X03108Y03076D03*
X03068D03*
G54D30*
X02873Y03109D03*
X02894Y0313D03*
G54D31*
X02912Y03012D03*
X02721Y02034D03*
X02912Y02959D03*
X02721Y02087D03*
G54D32*
X02822Y03132D03*
X02602Y03457D03*
X02665D03*
X02633D03*
X02822D03*
X02696D03*
X02791Y03132D03*
X02728Y03457D03*
X02791D03*
X02633Y03132D03*
X02696D03*
X02665D03*
X02759Y03457D03*
X02728Y03132D03*
X02602D03*
X02759D03*
G54D33*
X02603Y03525D03*
X02634D03*
G54D34*
X02447Y03451D03*
X02446Y03405D03*
X02476D03*
X02477Y03451D03*
G54D35*
X02748Y0262D03*
X02717D03*
G54D36*
X02584Y02284D03*
Y02425D03*
G54D37*
X02431Y02192D03*
X02318D03*
G54D38*
X02397Y02494D03*
X02266Y02363D03*
G54D39*
X02417Y02585D03*
X02468D03*
G54D40*
X02641Y02034D03*
Y02083D03*
G54D41*
X02482Y03701D03*
X02539Y03667D03*
X02482D03*
X02539Y03701D03*
G54D42*
X02929Y02822D03*
X02927Y02862D03*
X02897D03*
X02643Y03724D03*
Y03682D03*
Y03639D03*
X029Y02822D03*
X02614Y03682D03*
Y03639D03*
Y03724D03*
G54D43*
X03225Y03494D03*
X03172D03*
G54D44*
X0255Y03405D03*
X02875Y03247D03*
Y03216D03*
X0255Y03184D03*
Y03216D03*
Y03247D03*
Y03279D03*
Y0331D03*
Y03342D03*
X02875Y03405D03*
Y03279D03*
Y03373D03*
Y03342D03*
Y0331D03*
X0255Y03373D03*
G54D45*
X02875Y03184D03*
G54D46*
X03975Y02979D03*
X03626Y02505D03*
X03975Y02799D03*
X03627Y03096D03*
Y03276D03*
X03975Y02206D03*
Y02386D03*
X03629Y02086D03*
X03626Y02684D03*
X03976Y01609D03*
X03629Y01907D03*
X03976Y01789D03*
G54D47*
X0281Y01916D03*
Y01991D03*
M02*